<svg id="Visível_ISO_" data-name="Visível (ISO)" xmlns="http://www.w3.org/2000/svg" viewBox="0 0 482.14 71.12"><defs><style>.cls-1{fill:none;stroke:#000;stroke-linecap:round;stroke-linejoin:round;stroke-width:0.25px;}.cls-2{fill:#1d70b7;}.cls-3{fill:#009540;}.cls-4{fill:#e20613;}.cls-5{fill:#1d1d1b;}</style></defs><title>Regua</title><g id="LINE"><line class="cls-1" x1="466.61" y1="30.58" x2="466.26" y2="32.5"/></g><g id="SPLINE"><path class="cls-1" d="M523.69,417.83a3.3,3.3,0,0,1,1.49-.36" transform="translate(-57.43 -385.33)"/></g><g id="SPLINE-2" data-name="SPLINE"><path class="cls-1" d="M525.18,417.47a3.28,3.28,0,0,1,2.46,1.06,3.78,3.78,0,0,1,1,2.73" transform="translate(-57.43 -385.33)"/></g><g id="SPLINE-3" data-name="SPLINE"><path class="cls-1" d="M528.64,421.26a4.08,4.08,0,0,1-.81,2.49" transform="translate(-57.43 -385.33)"/></g><g id="SPLINE-4" data-name="SPLINE"><path class="cls-1" d="M527.83,423.75a3.59,3.59,0,0,1-3.08,1.51" transform="translate(-57.43 -385.33)"/></g><g id="SPLINE-5" data-name="SPLINE"><path class="cls-1" d="M524.75,425.26a3.8,3.8,0,0,1-2.55-.84,3.46,3.46,0,0,1-1.19-2.26" transform="translate(-57.43 -385.33)"/></g><g id="LINE-2" data-name="LINE"><line class="cls-1" x1="463.58" y1="36.82" x2="465.75" y2="36.6"/></g><g id="SPLINE-6" data-name="SPLINE"><path class="cls-1" d="M523.18,421.93a1.84,1.84,0,0,0,.55,1.16,1.46,1.46,0,0,0,1,.43" transform="translate(-57.43 -385.33)"/></g><g id="SPLINE-7" data-name="SPLINE"><path class="cls-1" d="M524.78,423.52a1.45,1.45,0,0,0,1.15-.55,2.51,2.51,0,0,0,.47-1.68" transform="translate(-57.43 -385.33)"/></g><g id="SPLINE-8" data-name="SPLINE"><path class="cls-1" d="M526.4,421.29a2.25,2.25,0,0,0-.47-1.57,1.55,1.55,0,0,0-1.22-.52" transform="translate(-57.43 -385.33)"/></g><g id="SPLINE-9" data-name="SPLINE"><path class="cls-1" d="M524.71,419.2A2.24,2.24,0,0,0,523,420" transform="translate(-57.43 -385.33)"/></g><g id="LINE-3" data-name="LINE"><line class="cls-1" x1="465.6" y1="34.7" x2="463.84" y2="34.44"/></g><g id="LINE-4" data-name="LINE"><line class="cls-1" x1="463.84" y1="34.44" x2="464.96" y2="28.54"/></g><g id="LINE-5" data-name="LINE"><line class="cls-1" x1="464.96" y1="28.54" x2="470.71" y2="28.54"/></g><g id="LINE-6" data-name="LINE"><line class="cls-1" x1="470.71" y1="28.54" x2="470.71" y2="30.58"/></g><g id="LINE-7" data-name="LINE"><line class="cls-1" x1="470.71" y1="30.58" x2="466.61" y2="30.58"/></g><g id="SPLINE-10" data-name="SPLINE"><path class="cls-1" d="M120.31,416.65a6.22,6.22,0,0,0,1.85-1,4,4,0,0,0,1.37-1.82" transform="translate(-57.43 -385.33)"/></g><g id="LINE-8" data-name="LINE"><line class="cls-1" x1="62.88" y1="33.29" x2="62.88" y2="31.32"/></g><g id="SPLINE-11" data-name="SPLINE"><path class="cls-1" d="M123.12,417a7.61,7.61,0,0,1-2.81,1.64" transform="translate(-57.43 -385.33)"/></g><g id="LINE-9" data-name="LINE"><line class="cls-1" x1="65.69" y1="39.83" x2="65.69" y2="31.65"/></g><g id="LINE-10" data-name="LINE"><line class="cls-1" x1="67.87" y1="39.83" x2="65.69" y2="39.83"/></g><g id="LINE-11" data-name="LINE"><line class="cls-1" x1="67.87" y1="28.45" x2="67.87" y2="39.83"/></g><g id="LINE-12" data-name="LINE"><line class="cls-1" x1="66.1" y1="28.45" x2="67.87" y2="28.45"/></g><g id="SPLINE-12" data-name="SPLINE"><path class="cls-1" d="M95.06,423.45a1.06,1.06,0,0,0,.7-.25,1.66,1.66,0,0,0,.48-.9" transform="translate(-57.43 -385.33)"/></g><g id="SPLINE-13" data-name="SPLINE"><path class="cls-1" d="M96.24,422.3a12.18,12.18,0,0,0,.23-2.82" transform="translate(-57.43 -385.33)"/></g><g id="SPLINE-14" data-name="SPLINE"><path class="cls-1" d="M96.47,419.48a11.77,11.77,0,0,0-.21-2.74,2,2,0,0,0-.5-1,1.11,1.11,0,0,0-.7-.25" transform="translate(-57.43 -385.33)"/></g><g id="SPLINE-15" data-name="SPLINE"><path class="cls-1" d="M91.38,419.45a7.52,7.52,0,0,1,1.11-4.61" transform="translate(-57.43 -385.33)"/></g><g id="SPLINE-16" data-name="SPLINE"><path class="cls-1" d="M92.49,414.84a3.09,3.09,0,0,1,2.57-1.15" transform="translate(-57.43 -385.33)"/></g><g id="SPLINE-17" data-name="SPLINE"><path class="cls-1" d="M95.06,413.69a3.08,3.08,0,0,1,2.57,1.17" transform="translate(-57.43 -385.33)"/></g><g id="SPLINE-18" data-name="SPLINE"><path class="cls-1" d="M97.63,414.86q1.11,1.39,1.11,4.62" transform="translate(-57.43 -385.33)"/></g><g id="SPLINE-19" data-name="SPLINE"><path class="cls-1" d="M93.65,419.48a12.57,12.57,0,0,0,.2,2.73,2,2,0,0,0,.51,1,1.08,1.08,0,0,0,.7.24" transform="translate(-57.43 -385.33)"/></g><g id="SPLINE-20" data-name="SPLINE"><path class="cls-1" d="M93.87,416.64a12.47,12.47,0,0,0-.22,2.84" transform="translate(-57.43 -385.33)"/></g><g id="SPLINE-21" data-name="SPLINE"><path class="cls-1" d="M95.06,415.49a1.14,1.14,0,0,0-.71.25,1.8,1.8,0,0,0-.48.9" transform="translate(-57.43 -385.33)"/></g><g id="SPLINE-22" data-name="SPLINE"><path class="cls-1" d="M98.74,419.48c0,2.14-.37,3.68-1.12,4.62" transform="translate(-57.43 -385.33)"/></g><g id="SPLINE-23" data-name="SPLINE"><path class="cls-1" d="M97.62,424.1a3.08,3.08,0,0,1-2.56,1.16" transform="translate(-57.43 -385.33)"/></g><g id="SPLINE-24" data-name="SPLINE"><path class="cls-1" d="M95.06,425.26A3.25,3.25,0,0,1,92.39,424c-.68-.85-1-2.36-1-4.54" transform="translate(-57.43 -385.33)"/></g><g id="LINE-13" data-name="LINE"><line class="cls-1" x1="121.09" y1="31.66" x2="119.08" y2="31.32"/></g><g id="SPLINE-25" data-name="SPLINE"><path class="cls-1" d="M180,415.48a1.29,1.29,0,0,0-.95.38,1.74,1.74,0,0,0-.48,1.13" transform="translate(-57.43 -385.33)"/></g><g id="SPLINE-26" data-name="SPLINE"><path class="cls-1" d="M181.19,416.72a1.16,1.16,0,0,0-1.24-1.24" transform="translate(-57.43 -385.33)"/></g><g id="SPLINE-27" data-name="SPLINE"><path class="cls-1" d="M179.39,418.18a1.87,1.87,0,0,0,1.34-.38,1.36,1.36,0,0,0,.46-1.08" transform="translate(-57.43 -385.33)"/></g><g id="LINE-14" data-name="LINE"><line class="cls-1" x1="121.72" y1="34.62" x2="121.96" y2="32.85"/></g><g id="SPLINE-28" data-name="SPLINE"><path class="cls-1" d="M180.14,419.79a3.61,3.61,0,0,0-1,.16" transform="translate(-57.43 -385.33)"/></g><g id="SPLINE-29" data-name="SPLINE"><path class="cls-1" d="M181.64,421.57a1.86,1.86,0,0,0-.43-1.3,1.39,1.39,0,0,0-1.07-.48" transform="translate(-57.43 -385.33)"/></g><g id="SPLINE-30" data-name="SPLINE"><path class="cls-1" d="M180.05,423.45a1.48,1.48,0,0,0,1.14-.51,2,2,0,0,0,.45-1.37" transform="translate(-57.43 -385.33)"/></g><g id="SPLINE-31" data-name="SPLINE"><path class="cls-1" d="M178.45,421.79A2,2,0,0,0,179,423a1.46,1.46,0,0,0,1.06.43" transform="translate(-57.43 -385.33)"/></g><g id="LINE-15" data-name="LINE"><line class="cls-1" x1="118.92" y1="36.72" x2="121.02" y2="36.46"/></g><g id="SPLINE-32" data-name="SPLINE"><path class="cls-1" d="M180.07,425.26a3.76,3.76,0,0,1-2.55-.89,3.5,3.5,0,0,1-1.17-2.32" transform="translate(-57.43 -385.33)"/></g><g id="SPLINE-33" data-name="SPLINE"><path class="cls-1" d="M183.87,421.66a3.42,3.42,0,0,1-1.08,2.55,3.78,3.78,0,0,1-2.72,1.05" transform="translate(-57.43 -385.33)"/></g><g id="SPLINE-34" data-name="SPLINE"><path class="cls-1" d="M181.74,419a2.61,2.61,0,0,1,1.55.93,2.74,2.74,0,0,1,.58,1.76" transform="translate(-57.43 -385.33)"/></g><g id="SPLINE-35" data-name="SPLINE"><path class="cls-1" d="M183.37,416.59a2.68,2.68,0,0,1-1.63,2.38" transform="translate(-57.43 -385.33)"/></g><g id="SPLINE-36" data-name="SPLINE"><path class="cls-1" d="M182.58,414.71a2.64,2.64,0,0,1,.79,1.88" transform="translate(-57.43 -385.33)"/></g><g id="SPLINE-37" data-name="SPLINE"><path class="cls-1" d="M180,413.69a3.38,3.38,0,0,1,2.57,1" transform="translate(-57.43 -385.33)"/></g><g id="SPLINE-38" data-name="SPLINE"><path class="cls-1" d="M176.51,416.65a4.66,4.66,0,0,1,.63-1.65,2.82,2.82,0,0,1,1.18-1,3.84,3.84,0,0,1,1.69-.35" transform="translate(-57.43 -385.33)"/></g><g id="SPLINE-39" data-name="SPLINE"><path class="cls-1" d="M148.06,417.14a3.58,3.58,0,0,1,1.21-2.58,4.08,4.08,0,0,1,2.55-.78" transform="translate(-57.43 -385.33)"/></g><g id="SPLINE-40" data-name="SPLINE"><path class="cls-1" d="M151.82,413.78a3.71,3.71,0,0,1,2.64.9,3,3,0,0,1,1,2.26" transform="translate(-57.43 -385.33)"/></g><g id="SPLINE-41" data-name="SPLINE"><path class="cls-1" d="M155.42,416.94a4,4,0,0,1-.28,1.45,5.85,5.85,0,0,1-.87,1.45" transform="translate(-57.43 -385.33)"/></g><g id="SPLINE-42" data-name="SPLINE"><path class="cls-1" d="M154.27,419.84a14.89,14.89,0,0,1-1.42,1.44c-.69.63-1.12,1.05-1.31,1.26a3.65,3.65,0,0,0-.44.6" transform="translate(-57.43 -385.33)"/></g><g id="LINE-16" data-name="LINE"><line class="cls-1" x1="93.67" y1="37.81" x2="97.99" y2="37.81"/></g><g id="LINE-17" data-name="LINE"><line class="cls-1" x1="97.99" y1="37.81" x2="97.99" y2="39.83"/></g><g id="LINE-18" data-name="LINE"><line class="cls-1" x1="97.99" y1="39.83" x2="90.37" y2="39.83"/></g><g id="SPLINE-43" data-name="SPLINE"><path class="cls-1" d="M147.8,425.16a5.2,5.2,0,0,1,.74-2.16,14.44,14.44,0,0,1,2.45-2.72" transform="translate(-57.43 -385.33)"/></g><g id="SPLINE-44" data-name="SPLINE"><path class="cls-1" d="M151,420.28a14.5,14.5,0,0,0,1.8-1.86" transform="translate(-57.43 -385.33)"/></g><g id="SPLINE-45" data-name="SPLINE"><path class="cls-1" d="M152.79,418.42a2.38,2.38,0,0,0,.45-1.33" transform="translate(-57.43 -385.33)"/></g><g id="SPLINE-46" data-name="SPLINE"><path class="cls-1" d="M153.24,417.09a1.5,1.5,0,0,0-.39-1.11,1.46,1.46,0,0,0-1.08-.39" transform="translate(-57.43 -385.33)"/></g><g id="SPLINE-47" data-name="SPLINE"><path class="cls-1" d="M151.77,415.59a1.42,1.42,0,0,0-1.08.41,2.09,2.09,0,0,0-.46,1.36" transform="translate(-57.43 -385.33)"/></g><g id="LINE-19" data-name="LINE"><line class="cls-1" x1="92.8" y1="32.03" x2="90.63" y2="31.81"/></g><g id="SPLINE-48" data-name="SPLINE"><path class="cls-1" d="M269,421.41a3.84,3.84,0,0,1-1,2.8,3.48,3.48,0,0,1-2.61,1.05" transform="translate(-57.43 -385.33)"/></g><g id="SPLINE-49" data-name="SPLINE"><path class="cls-1" d="M265.73,417.71a3.08,3.08,0,0,1,2.33,1,3.73,3.73,0,0,1,1,2.67" transform="translate(-57.43 -385.33)"/></g><g id="SPLINE-50" data-name="SPLINE"><path class="cls-1" d="M263.72,418.66a2.52,2.52,0,0,1,2-1" transform="translate(-57.43 -385.33)"/></g><g id="SPLINE-51" data-name="SPLINE"><path class="cls-1" d="M265.48,415.48a1.4,1.4,0,0,0-1.16.61,5.16,5.16,0,0,0-.6,2.57" transform="translate(-57.43 -385.33)"/></g><g id="SPLINE-52" data-name="SPLINE"><path class="cls-1" d="M263.9,421.24a2.45,2.45,0,0,0,.49,1.64,1.42,1.42,0,0,0,1.11.57" transform="translate(-57.43 -385.33)"/></g><g id="SPLINE-53" data-name="SPLINE"><path class="cls-1" d="M265.5,423.45a1.26,1.26,0,0,0,1-.47,2.41,2.41,0,0,0,.4-1.54" transform="translate(-57.43 -385.33)"/></g><g id="SPLINE-54" data-name="SPLINE"><path class="cls-1" d="M266.73,416.74a1.58,1.58,0,0,0-.4-1,1.21,1.21,0,0,0-.85-.3" transform="translate(-57.43 -385.33)"/></g><g id="LINE-20" data-name="LINE"><line class="cls-1" x1="211.4" y1="31.17" x2="209.3" y2="31.41"/></g><g id="SPLINE-55" data-name="SPLINE"><path class="cls-1" d="M265.61,413.69a3.2,3.2,0,0,1,2.14.72,3.43,3.43,0,0,1,1.08,2.09" transform="translate(-57.43 -385.33)"/></g><g id="SPLINE-56" data-name="SPLINE"><path class="cls-1" d="M261.46,419.55a7,7,0,0,1,1.16-4.49,3.7,3.7,0,0,1,3-1.37" transform="translate(-57.43 -385.33)"/></g><g id="SPLINE-57" data-name="SPLINE"><path class="cls-1" d="M265.4,425.26a3.52,3.52,0,0,1-2.83-1.34,6.83,6.83,0,0,1-1.11-4.37" transform="translate(-57.43 -385.33)"/></g><g id="SPLINE-58" data-name="SPLINE"><path class="cls-1" d="M265.4,419.3a1.38,1.38,0,0,0-1.07.5,2.1,2.1,0,0,0-.43,1.44" transform="translate(-57.43 -385.33)"/></g><g id="SPLINE-59" data-name="SPLINE"><path class="cls-1" d="M266.91,421.44a2.53,2.53,0,0,0-.43-1.62,1.37,1.37,0,0,0-1.08-.52" transform="translate(-57.43 -385.33)"/></g><g id="LINE-21" data-name="LINE"><line class="cls-1" x1="151.6" y1="31.77" x2="148.99" y2="35.65"/></g><g id="LINE-22" data-name="LINE"><line class="cls-1" x1="148.99" y1="35.65" x2="151.6" y2="35.65"/></g><g id="LINE-23" data-name="LINE"><line class="cls-1" x1="155.11" y1="35.65" x2="155.11" y2="37.55"/></g><g id="LINE-24" data-name="LINE"><line class="cls-1" x1="155.11" y1="37.55" x2="153.7" y2="37.55"/></g><g id="LINE-25" data-name="LINE"><line class="cls-1" x1="153.7" y1="37.55" x2="153.7" y2="39.83"/></g><g id="LINE-26" data-name="LINE"><line class="cls-1" x1="153.7" y1="39.83" x2="151.6" y2="39.83"/></g><g id="LINE-27" data-name="LINE"><line class="cls-1" x1="151.6" y1="39.83" x2="151.6" y2="37.55"/></g><g id="LINE-28" data-name="LINE"><line class="cls-1" x1="151.6" y1="37.55" x2="146.96" y2="37.55"/></g><g id="LINE-29" data-name="LINE"><line class="cls-1" x1="151.6" y1="35.65" x2="151.6" y2="31.77"/></g><g id="LINE-30" data-name="LINE"><line class="cls-1" x1="146.96" y1="37.55" x2="146.96" y2="35.66"/></g><g id="LINE-31" data-name="LINE"><line class="cls-1" x1="146.96" y1="35.66" x2="151.88" y2="28.45"/></g><g id="LINE-32" data-name="LINE"><line class="cls-1" x1="151.88" y1="28.45" x2="153.7" y2="28.45"/></g><g id="LINE-33" data-name="LINE"><line class="cls-1" x1="153.7" y1="28.45" x2="153.7" y2="35.65"/></g><g id="LINE-34" data-name="LINE"><line class="cls-1" x1="153.7" y1="35.65" x2="155.11" y2="35.65"/></g><g id="LINE-35" data-name="LINE"><line class="cls-1" x1="236" y1="39.74" x2="233.9" y2="39.74"/></g><g id="SPLINE-60" data-name="SPLINE"><path class="cls-1" d="M297.24,415.46a11.59,11.59,0,0,0-1.86,2.6,15.28,15.28,0,0,0-1.46,3.6,13.72,13.72,0,0,0-.49,3.41" transform="translate(-57.43 -385.33)"/></g><g id="LINE-36" data-name="LINE"><line class="cls-1" x1="239.81" y1="28.54" x2="239.81" y2="30.13"/></g><g id="LINE-37" data-name="LINE"><line class="cls-1" x1="232.38" y1="28.54" x2="239.81" y2="28.54"/></g><g id="LINE-38" data-name="LINE"><line class="cls-1" x1="232.38" y1="30.57" x2="232.38" y2="28.54"/></g><g id="LINE-39" data-name="LINE"><line class="cls-1" x1="237.32" y1="30.57" x2="232.38" y2="30.57"/></g><g id="SPLINE-61" data-name="SPLINE"><path class="cls-1" d="M291.33,425.07a14.71,14.71,0,0,1,1-4.8,16.18,16.18,0,0,1,2.45-4.37" transform="translate(-57.43 -385.33)"/></g><g id="LINE-40" data-name="LINE"><line class="cls-1" x1="178.74" y1="30.48" x2="178.39" y2="32.41"/></g><g id="SPLINE-62" data-name="SPLINE"><path class="cls-1" d="M235.82,417.74a3.33,3.33,0,0,1,1.49-.36" transform="translate(-57.43 -385.33)"/></g><g id="SPLINE-63" data-name="SPLINE"><path class="cls-1" d="M237.31,417.38a3.27,3.27,0,0,1,2.46,1.05,3.78,3.78,0,0,1,1,2.73" transform="translate(-57.43 -385.33)"/></g><g id="SPLINE-64" data-name="SPLINE"><path class="cls-1" d="M240.77,421.16a4.09,4.09,0,0,1-.81,2.5" transform="translate(-57.43 -385.33)"/></g><g id="SPLINE-65" data-name="SPLINE"><path class="cls-1" d="M240,423.66a3.6,3.6,0,0,1-3.07,1.5" transform="translate(-57.43 -385.33)"/></g><g id="SPLINE-66" data-name="SPLINE"><path class="cls-1" d="M236.89,425.16a3.81,3.81,0,0,1-2.56-.84,3.42,3.42,0,0,1-1.19-2.26" transform="translate(-57.43 -385.33)"/></g><g id="LINE-41" data-name="LINE"><line class="cls-1" x1="175.71" y1="36.73" x2="177.88" y2="36.5"/></g><g id="SPLINE-67" data-name="SPLINE"><path class="cls-1" d="M235.31,421.84a1.92,1.92,0,0,0,.55,1.16,1.5,1.5,0,0,0,1,.43" transform="translate(-57.43 -385.33)"/></g><g id="SPLINE-68" data-name="SPLINE"><path class="cls-1" d="M236.91,423.43a1.48,1.48,0,0,0,1.16-.56,2.54,2.54,0,0,0,.47-1.67" transform="translate(-57.43 -385.33)"/></g><g id="SPLINE-69" data-name="SPLINE"><path class="cls-1" d="M238.54,421.2a2.3,2.3,0,0,0-.47-1.57,1.59,1.59,0,0,0-1.23-.52" transform="translate(-57.43 -385.33)"/></g><g id="SPLINE-70" data-name="SPLINE"><path class="cls-1" d="M236.84,419.11a2.19,2.19,0,0,0-1.67.82" transform="translate(-57.43 -385.33)"/></g><g id="LINE-42" data-name="LINE"><line class="cls-1" x1="177.74" y1="34.6" x2="175.97" y2="34.34"/></g><g id="LINE-43" data-name="LINE"><line class="cls-1" x1="175.97" y1="34.34" x2="177.09" y2="28.45"/></g><g id="LINE-44" data-name="LINE"><line class="cls-1" x1="177.09" y1="28.45" x2="182.84" y2="28.45"/></g><g id="LINE-45" data-name="LINE"><line class="cls-1" x1="182.84" y1="28.45" x2="182.84" y2="30.48"/></g><g id="LINE-46" data-name="LINE"><line class="cls-1" x1="182.84" y1="30.48" x2="178.74" y2="30.48"/></g><g id="SPLINE-71" data-name="SPLINE"><path class="cls-1" d="M346.33,417.51a3.8,3.8,0,0,1,1-2.77,3.49,3.49,0,0,1,2.62-1.06" transform="translate(-57.43 -385.33)"/></g><g id="SPLINE-72" data-name="SPLINE"><path class="cls-1" d="M349.61,421.22a3.06,3.06,0,0,1-2.31-1,3.74,3.74,0,0,1-1-2.68" transform="translate(-57.43 -385.33)"/></g><g id="SPLINE-73" data-name="SPLINE"><path class="cls-1" d="M351.65,420.27a2.58,2.58,0,0,1-2,1" transform="translate(-57.43 -385.33)"/></g><g id="SPLINE-74" data-name="SPLINE"><path class="cls-1" d="M349.91,423.46a1.39,1.39,0,0,0,1.14-.62,5.13,5.13,0,0,0,.6-2.57" transform="translate(-57.43 -385.33)"/></g><g id="SPLINE-75" data-name="SPLINE"><path class="cls-1" d="M351.46,417.69a2.46,2.46,0,0,0-.48-1.62,1.41,1.41,0,0,0-1.12-.58" transform="translate(-57.43 -385.33)"/></g><g id="SPLINE-76" data-name="SPLINE"><path class="cls-1" d="M349.86,415.49a1.27,1.27,0,0,0-1,.47,2.46,2.46,0,0,0-.4,1.55" transform="translate(-57.43 -385.33)"/></g><g id="SPLINE-77" data-name="SPLINE"><path class="cls-1" d="M348.65,422.19a1.52,1.52,0,0,0,.4,1,1.21,1.21,0,0,0,.86.31" transform="translate(-57.43 -385.33)"/></g><g id="LINE-47" data-name="LINE"><line class="cls-1" x1="289.12" y1="37.1" x2="291.22" y2="36.86"/></g><g id="SPLINE-78" data-name="SPLINE"><path class="cls-1" d="M349.74,425.26a3.13,3.13,0,0,1-2.14-.71,3.4,3.4,0,0,1-1.05-2.12" transform="translate(-57.43 -385.33)"/></g><g id="SPLINE-79" data-name="SPLINE"><path class="cls-1" d="M353.9,419.4a7,7,0,0,1-1.15,4.49,3.76,3.76,0,0,1-3,1.37" transform="translate(-57.43 -385.33)"/></g><g id="SPLINE-80" data-name="SPLINE"><path class="cls-1" d="M350,413.68a3.49,3.49,0,0,1,2.82,1.34,6.86,6.86,0,0,1,1.11,4.38" transform="translate(-57.43 -385.33)"/></g><g id="SPLINE-81" data-name="SPLINE"><path class="cls-1" d="M350,419.63a1.38,1.38,0,0,0,1.06-.49,2.18,2.18,0,0,0,.42-1.45" transform="translate(-57.43 -385.33)"/></g><g id="SPLINE-82" data-name="SPLINE"><path class="cls-1" d="M348.46,417.51a2.46,2.46,0,0,0,.44,1.61,1.36,1.36,0,0,0,1.08.51" transform="translate(-57.43 -385.33)"/></g><g id="SPLINE-83" data-name="SPLINE"><path class="cls-1" d="M323.18,416.75a1.27,1.27,0,0,0-1.34-1.34" transform="translate(-57.43 -385.33)"/></g><g id="SPLINE-84" data-name="SPLINE"><path class="cls-1" d="M321.84,415.41a1.29,1.29,0,0,0-1.38,1.35" transform="translate(-57.43 -385.33)"/></g><g id="SPLINE-85" data-name="SPLINE"><path class="cls-1" d="M323.43,421.63a1.82,1.82,0,0,0-.45-1.28,1.49,1.49,0,0,0-1.13-.48" transform="translate(-57.43 -385.33)"/></g><g id="SPLINE-86" data-name="SPLINE"><path class="cls-1" d="M321.85,419.87a1.36,1.36,0,0,0-1.2.55,2.06,2.06,0,0,0-.38,1.2" transform="translate(-57.43 -385.33)"/></g><g id="SPLINE-87" data-name="SPLINE"><path class="cls-1" d="M321.92,425.26a4,4,0,0,1-2.58-.81" transform="translate(-57.43 -385.33)"/></g><g id="SPLINE-88" data-name="SPLINE"><path class="cls-1" d="M319.34,424.45a3.16,3.16,0,0,1-1.22-2.63" transform="translate(-57.43 -385.33)"/></g><g id="SPLINE-89" data-name="SPLINE"><path class="cls-1" d="M318.12,421.82a3.2,3.2,0,0,1,.46-1.69A2.92,2.92,0,0,1,320,419" transform="translate(-57.43 -385.33)"/></g><g id="SPLINE-90" data-name="SPLINE"><path class="cls-1" d="M320,419a2.65,2.65,0,0,1-1.22-1,2.62,2.62,0,0,1-.38-1.37" transform="translate(-57.43 -385.33)"/></g><g id="SPLINE-91" data-name="SPLINE"><path class="cls-1" d="M318.41,416.6a2.73,2.73,0,0,1,.88-2.09,3.56,3.56,0,0,1,2.52-.83" transform="translate(-57.43 -385.33)"/></g><g id="SPLINE-92" data-name="SPLINE"><path class="cls-1" d="M321.81,418.13a1.38,1.38,0,0,0,1-.36,1.42,1.42,0,0,0,.37-1" transform="translate(-57.43 -385.33)"/></g><g id="SPLINE-93" data-name="SPLINE"><path class="cls-1" d="M320.46,416.76a1.38,1.38,0,0,0,.37,1,1.35,1.35,0,0,0,1,.36" transform="translate(-57.43 -385.33)"/></g><g id="SPLINE-94" data-name="SPLINE"><path class="cls-1" d="M321.87,423.52A1.44,1.44,0,0,0,323,423a2,2,0,0,0,.44-1.4" transform="translate(-57.43 -385.33)"/></g><g id="SPLINE-95" data-name="SPLINE"><path class="cls-1" d="M320.27,421.62a2,2,0,0,0,.45,1.4,1.51,1.51,0,0,0,1.15.5" transform="translate(-57.43 -385.33)"/></g><g id="SPLINE-96" data-name="SPLINE"><path class="cls-1" d="M321.81,413.68a3.55,3.55,0,0,1,2.51.83,2.72,2.72,0,0,1,.9,2.09" transform="translate(-57.43 -385.33)"/></g><g id="SPLINE-97" data-name="SPLINE"><path class="cls-1" d="M325.22,416.6a2.48,2.48,0,0,1-.41,1.4,2.67,2.67,0,0,1-1.16.95" transform="translate(-57.43 -385.33)"/></g><g id="SPLINE-98" data-name="SPLINE"><path class="cls-1" d="M323.65,419a3.06,3.06,0,0,1,1.44,1.1,2.91,2.91,0,0,1,.49,1.68" transform="translate(-57.43 -385.33)"/></g><g id="SPLINE-99" data-name="SPLINE"><path class="cls-1" d="M325.58,421.73a3.39,3.39,0,0,1-1,2.55,3.63,3.63,0,0,1-2.66,1" transform="translate(-57.43 -385.33)"/></g><g id="SPLINE-100" data-name="SPLINE"><path class="cls-1" d="M371,416.56a6.4,6.4,0,0,0,1.85-1.06,4.07,4.07,0,0,0,1.37-1.81" transform="translate(-57.43 -385.33)"/></g><g id="LINE-48" data-name="LINE"><line class="cls-1" x1="313.6" y1="33.19" x2="313.6" y2="31.22"/></g><g id="SPLINE-101" data-name="SPLINE"><path class="cls-1" d="M373.83,416.88a7.59,7.59,0,0,1-2.8,1.65" transform="translate(-57.43 -385.33)"/></g><g id="LINE-49" data-name="LINE"><line class="cls-1" x1="316.4" y1="39.74" x2="316.4" y2="31.55"/></g><g id="LINE-50" data-name="LINE"><line class="cls-1" x1="318.58" y1="39.74" x2="316.4" y2="39.74"/></g><g id="LINE-51" data-name="LINE"><line class="cls-1" x1="318.58" y1="28.35" x2="318.58" y2="39.74"/></g><g id="LINE-52" data-name="LINE"><line class="cls-1" x1="316.82" y1="28.35" x2="318.58" y2="28.35"/></g><g id="SPLINE-102" data-name="SPLINE"><path class="cls-1" d="M382.93,423.45a1.06,1.06,0,0,0,.7-.25,1.8,1.8,0,0,0,.48-.9" transform="translate(-57.43 -385.33)"/></g><g id="SPLINE-103" data-name="SPLINE"><path class="cls-1" d="M384.11,422.3a12.32,12.32,0,0,0,.22-2.82" transform="translate(-57.43 -385.33)"/></g><g id="SPLINE-104" data-name="SPLINE"><path class="cls-1" d="M384.33,419.48a11.93,11.93,0,0,0-.2-2.74,2,2,0,0,0-.5-1,1.13,1.13,0,0,0-.7-.25" transform="translate(-57.43 -385.33)"/></g><g id="SPLINE-105" data-name="SPLINE"><path class="cls-1" d="M379.24,419.45a7.52,7.52,0,0,1,1.12-4.61" transform="translate(-57.43 -385.33)"/></g><g id="SPLINE-106" data-name="SPLINE"><path class="cls-1" d="M380.36,414.84a3.09,3.09,0,0,1,2.57-1.15" transform="translate(-57.43 -385.33)"/></g><g id="SPLINE-107" data-name="SPLINE"><path class="cls-1" d="M382.93,413.69a3.09,3.09,0,0,1,2.57,1.17" transform="translate(-57.43 -385.33)"/></g><g id="SPLINE-108" data-name="SPLINE"><path class="cls-1" d="M385.5,414.86q1.11,1.39,1.11,4.62" transform="translate(-57.43 -385.33)"/></g><g id="SPLINE-109" data-name="SPLINE"><path class="cls-1" d="M381.52,419.48a12,12,0,0,0,.2,2.73,2,2,0,0,0,.51,1,1.08,1.08,0,0,0,.7.24" transform="translate(-57.43 -385.33)"/></g><g id="SPLINE-110" data-name="SPLINE"><path class="cls-1" d="M381.74,416.64a12.47,12.47,0,0,0-.22,2.84" transform="translate(-57.43 -385.33)"/></g><g id="SPLINE-111" data-name="SPLINE"><path class="cls-1" d="M382.93,415.49a1.14,1.14,0,0,0-.71.25,1.8,1.8,0,0,0-.48.9" transform="translate(-57.43 -385.33)"/></g><g id="SPLINE-112" data-name="SPLINE"><path class="cls-1" d="M386.61,419.48c0,2.14-.37,3.68-1.12,4.62" transform="translate(-57.43 -385.33)"/></g><g id="SPLINE-113" data-name="SPLINE"><path class="cls-1" d="M385.49,424.1a3.08,3.08,0,0,1-2.56,1.16" transform="translate(-57.43 -385.33)"/></g><g id="SPLINE-114" data-name="SPLINE"><path class="cls-1" d="M382.93,425.26a3.25,3.25,0,0,1-2.67-1.27c-.68-.85-1-2.36-1-4.54" transform="translate(-57.43 -385.33)"/></g><g id="SPLINE-115" data-name="SPLINE"><path class="cls-1" d="M408.18,416.65a6.22,6.22,0,0,0,1.85-1,4,4,0,0,0,1.37-1.82" transform="translate(-57.43 -385.33)"/></g><g id="LINE-53" data-name="LINE"><line class="cls-1" x1="350.75" y1="33.29" x2="350.75" y2="31.32"/></g><g id="SPLINE-116" data-name="SPLINE"><path class="cls-1" d="M411,417a7.61,7.61,0,0,1-2.81,1.64" transform="translate(-57.43 -385.33)"/></g><g id="LINE-54" data-name="LINE"><line class="cls-1" x1="353.56" y1="39.83" x2="353.56" y2="31.65"/></g><g id="LINE-55" data-name="LINE"><line class="cls-1" x1="355.73" y1="39.83" x2="353.56" y2="39.83"/></g><g id="LINE-56" data-name="LINE"><line class="cls-1" x1="355.73" y1="28.45" x2="355.73" y2="39.83"/></g><g id="LINE-57" data-name="LINE"><line class="cls-1" x1="353.97" y1="28.45" x2="355.73" y2="28.45"/></g><g id="LINE-58" data-name="LINE"><line class="cls-1" x1="345.17" y1="28.45" x2="346.93" y2="28.45"/></g><g id="LINE-59" data-name="LINE"><line class="cls-1" x1="346.93" y1="28.45" x2="346.93" y2="39.83"/></g><g id="LINE-60" data-name="LINE"><line class="cls-1" x1="346.93" y1="39.83" x2="344.75" y2="39.83"/></g><g id="LINE-61" data-name="LINE"><line class="cls-1" x1="344.75" y1="39.83" x2="344.75" y2="31.65"/></g><g id="SPLINE-117" data-name="SPLINE"><path class="cls-1" d="M402.18,417a7.53,7.53,0,0,1-2.81,1.64" transform="translate(-57.43 -385.33)"/></g><g id="LINE-62" data-name="LINE"><line class="cls-1" x1="341.94" y1="33.29" x2="341.94" y2="31.32"/></g><g id="SPLINE-118" data-name="SPLINE"><path class="cls-1" d="M399.37,416.65a6.38,6.38,0,0,0,1.86-1,4.1,4.1,0,0,0,1.37-1.82" transform="translate(-57.43 -385.33)"/></g><g id="LINE-63" data-name="LINE"><line class="cls-1" x1="380.67" y1="32.03" x2="378.5" y2="31.81"/></g><g id="SPLINE-119" data-name="SPLINE"><path class="cls-1" d="M439.64,415.59a1.42,1.42,0,0,0-1.08.41,2.09,2.09,0,0,0-.46,1.36" transform="translate(-57.43 -385.33)"/></g><g id="SPLINE-120" data-name="SPLINE"><path class="cls-1" d="M441.11,417.09a1.5,1.5,0,0,0-.39-1.11,1.46,1.46,0,0,0-1.08-.39" transform="translate(-57.43 -385.33)"/></g><g id="SPLINE-121" data-name="SPLINE"><path class="cls-1" d="M440.66,418.42a2.38,2.38,0,0,0,.45-1.33" transform="translate(-57.43 -385.33)"/></g><g id="SPLINE-122" data-name="SPLINE"><path class="cls-1" d="M438.86,420.28a14.5,14.5,0,0,0,1.8-1.86" transform="translate(-57.43 -385.33)"/></g><g id="SPLINE-123" data-name="SPLINE"><path class="cls-1" d="M435.67,425.16a5.2,5.2,0,0,1,.74-2.16,14.44,14.44,0,0,1,2.45-2.72" transform="translate(-57.43 -385.33)"/></g><g id="LINE-64" data-name="LINE"><line class="cls-1" x1="385.85" y1="39.83" x2="378.24" y2="39.83"/></g><g id="LINE-65" data-name="LINE"><line class="cls-1" x1="385.85" y1="37.81" x2="385.85" y2="39.83"/></g><g id="LINE-66" data-name="LINE"><line class="cls-1" x1="381.54" y1="37.81" x2="385.85" y2="37.81"/></g><g id="SPLINE-124" data-name="SPLINE"><path class="cls-1" d="M442.14,419.84a14.89,14.89,0,0,1-1.42,1.44c-.69.63-1.12,1.05-1.31,1.26a3.65,3.65,0,0,0-.44.6" transform="translate(-57.43 -385.33)"/></g><g id="SPLINE-125" data-name="SPLINE"><path class="cls-1" d="M443.28,416.94a4,4,0,0,1-.27,1.45,5.85,5.85,0,0,1-.87,1.45" transform="translate(-57.43 -385.33)"/></g><g id="SPLINE-126" data-name="SPLINE"><path class="cls-1" d="M439.69,413.78a3.68,3.68,0,0,1,2.63.9,3,3,0,0,1,1,2.26" transform="translate(-57.43 -385.33)"/></g><g id="SPLINE-127" data-name="SPLINE"><path class="cls-1" d="M435.93,417.14a3.58,3.58,0,0,1,1.21-2.58,4.08,4.08,0,0,1,2.55-.78" transform="translate(-57.43 -385.33)"/></g><g id="LINE-67" data-name="LINE"><line class="cls-1" x1="373.51" y1="28.45" x2="375.27" y2="28.45"/></g><g id="LINE-68" data-name="LINE"><line class="cls-1" x1="375.27" y1="28.45" x2="375.27" y2="39.83"/></g><g id="LINE-69" data-name="LINE"><line class="cls-1" x1="375.27" y1="39.83" x2="373.1" y2="39.83"/></g><g id="LINE-70" data-name="LINE"><line class="cls-1" x1="373.1" y1="39.83" x2="373.1" y2="31.65"/></g><g id="SPLINE-128" data-name="SPLINE"><path class="cls-1" d="M430.53,417a7.61,7.61,0,0,1-2.81,1.64" transform="translate(-57.43 -385.33)"/></g><g id="LINE-71" data-name="LINE"><line class="cls-1" x1="370.29" y1="33.29" x2="370.29" y2="31.32"/></g><g id="SPLINE-129" data-name="SPLINE"><path class="cls-1" d="M427.72,416.65a6.22,6.22,0,0,0,1.85-1,4,4,0,0,0,1.37-1.82" transform="translate(-57.43 -385.33)"/></g><g id="LINE-72" data-name="LINE"><line class="cls-1" x1="408.95" y1="31.66" x2="406.95" y2="31.32"/></g><g id="SPLINE-130" data-name="SPLINE"><path class="cls-1" d="M467.82,415.48a1.31,1.31,0,0,0-1,.38,1.85,1.85,0,0,0-.48,1.13" transform="translate(-57.43 -385.33)"/></g><g id="SPLINE-131" data-name="SPLINE"><path class="cls-1" d="M469.06,416.72a1.22,1.22,0,0,0-.34-.91,1.25,1.25,0,0,0-.9-.33" transform="translate(-57.43 -385.33)"/></g><g id="SPLINE-132" data-name="SPLINE"><path class="cls-1" d="M467.26,418.18a1.88,1.88,0,0,0,1.34-.38,1.36,1.36,0,0,0,.46-1.08" transform="translate(-57.43 -385.33)"/></g><g id="LINE-73" data-name="LINE"><line class="cls-1" x1="409.58" y1="34.62" x2="409.83" y2="32.85"/></g><g id="SPLINE-133" data-name="SPLINE"><path class="cls-1" d="M468,419.79a3.73,3.73,0,0,0-1,.16" transform="translate(-57.43 -385.33)"/></g><g id="SPLINE-134" data-name="SPLINE"><path class="cls-1" d="M469.51,421.57a1.86,1.86,0,0,0-.43-1.3,1.41,1.41,0,0,0-1.07-.48" transform="translate(-57.43 -385.33)"/></g><g id="SPLINE-135" data-name="SPLINE"><path class="cls-1" d="M467.92,423.45a1.45,1.45,0,0,0,1.13-.51,2,2,0,0,0,.46-1.37" transform="translate(-57.43 -385.33)"/></g><g id="SPLINE-136" data-name="SPLINE"><path class="cls-1" d="M466.31,421.79a2,2,0,0,0,.55,1.23,1.45,1.45,0,0,0,1.06.43" transform="translate(-57.43 -385.33)"/></g><g id="LINE-74" data-name="LINE"><line class="cls-1" x1="406.78" y1="36.72" x2="408.88" y2="36.46"/></g><g id="SPLINE-137" data-name="SPLINE"><path class="cls-1" d="M467.94,425.26a3.72,3.72,0,0,1-2.55-.89,3.51,3.51,0,0,1-1.18-2.32" transform="translate(-57.43 -385.33)"/></g><g id="SPLINE-138" data-name="SPLINE"><path class="cls-1" d="M471.74,421.66a3.4,3.4,0,0,1-1.09,2.55,3.74,3.74,0,0,1-2.71,1.05" transform="translate(-57.43 -385.33)"/></g><g id="SPLINE-139" data-name="SPLINE"><path class="cls-1" d="M469.61,419a2.61,2.61,0,0,1,1.55.93,2.74,2.74,0,0,1,.58,1.76" transform="translate(-57.43 -385.33)"/></g><g id="SPLINE-140" data-name="SPLINE"><path class="cls-1" d="M471.24,416.59a2.68,2.68,0,0,1-1.63,2.38" transform="translate(-57.43 -385.33)"/></g><g id="SPLINE-141" data-name="SPLINE"><path class="cls-1" d="M470.45,414.71a2.64,2.64,0,0,1,.79,1.88" transform="translate(-57.43 -385.33)"/></g><g id="SPLINE-142" data-name="SPLINE"><path class="cls-1" d="M467.88,413.69a3.4,3.4,0,0,1,2.57,1" transform="translate(-57.43 -385.33)"/></g><g id="SPLINE-143" data-name="SPLINE"><path class="cls-1" d="M464.38,416.65A4.66,4.66,0,0,1,465,415a2.79,2.79,0,0,1,1.17-1,3.92,3.92,0,0,1,1.7-.35" transform="translate(-57.43 -385.33)"/></g><g id="LINE-75" data-name="LINE"><line class="cls-1" x1="401.86" y1="28.35" x2="403.62" y2="28.35"/></g><g id="LINE-76" data-name="LINE"><line class="cls-1" x1="403.62" y1="28.35" x2="403.62" y2="39.74"/></g><g id="LINE-77" data-name="LINE"><line class="cls-1" x1="403.62" y1="39.74" x2="401.44" y2="39.74"/></g><g id="LINE-78" data-name="LINE"><line class="cls-1" x1="401.44" y1="39.74" x2="401.44" y2="31.55"/></g><g id="SPLINE-144" data-name="SPLINE"><path class="cls-1" d="M458.87,416.88a7.55,7.55,0,0,1-2.81,1.65" transform="translate(-57.43 -385.33)"/></g><g id="LINE-79" data-name="LINE"><line class="cls-1" x1="398.63" y1="33.19" x2="398.63" y2="31.22"/></g><g id="SPLINE-145" data-name="SPLINE"><path class="cls-1" d="M456.06,416.56a6.31,6.31,0,0,0,1.86-1.06,4.07,4.07,0,0,0,1.37-1.81" transform="translate(-57.43 -385.33)"/></g><g id="LINE-80" data-name="LINE"><line class="cls-1" x1="441.57" y1="35.65" x2="442.98" y2="35.65"/></g><g id="LINE-81" data-name="LINE"><line class="cls-1" x1="441.57" y1="28.45" x2="441.57" y2="35.65"/></g><g id="LINE-82" data-name="LINE"><line class="cls-1" x1="439.75" y1="28.45" x2="441.57" y2="28.45"/></g><g id="LINE-83" data-name="LINE"><line class="cls-1" x1="434.83" y1="35.66" x2="439.75" y2="28.45"/></g><g id="LINE-84" data-name="LINE"><line class="cls-1" x1="434.83" y1="37.55" x2="434.83" y2="35.66"/></g><g id="LINE-85" data-name="LINE"><line class="cls-1" x1="439.47" y1="35.65" x2="439.47" y2="31.77"/></g><g id="LINE-86" data-name="LINE"><line class="cls-1" x1="439.47" y1="37.55" x2="434.83" y2="37.55"/></g><g id="LINE-87" data-name="LINE"><line class="cls-1" x1="439.47" y1="39.83" x2="439.47" y2="37.55"/></g><g id="LINE-88" data-name="LINE"><line class="cls-1" x1="441.57" y1="39.83" x2="439.47" y2="39.83"/></g><g id="LINE-89" data-name="LINE"><line class="cls-1" x1="441.57" y1="37.55" x2="441.57" y2="39.83"/></g><g id="LINE-90" data-name="LINE"><line class="cls-1" x1="442.98" y1="37.55" x2="441.57" y2="37.55"/></g><g id="LINE-91" data-name="LINE"><line class="cls-1" x1="442.98" y1="35.65" x2="442.98" y2="37.55"/></g><g id="LINE-92" data-name="LINE"><line class="cls-1" x1="436.86" y1="35.65" x2="439.47" y2="35.65"/></g><g id="LINE-93" data-name="LINE"><line class="cls-1" x1="439.47" y1="31.77" x2="436.86" y2="35.65"/></g><g id="LINE-94" data-name="LINE"><line class="cls-1" x1="430.2" y1="28.45" x2="431.97" y2="28.45"/></g><g id="LINE-95" data-name="LINE"><line class="cls-1" x1="431.97" y1="28.45" x2="431.97" y2="39.83"/></g><g id="LINE-96" data-name="LINE"><line class="cls-1" x1="431.97" y1="39.83" x2="429.79" y2="39.83"/></g><g id="LINE-97" data-name="LINE"><line class="cls-1" x1="429.79" y1="39.83" x2="429.79" y2="31.65"/></g><g id="SPLINE-146" data-name="SPLINE"><path class="cls-1" d="M487.22,417a7.61,7.61,0,0,1-2.81,1.64" transform="translate(-57.43 -385.33)"/></g><g id="LINE-98" data-name="LINE"><line class="cls-1" x1="426.98" y1="33.29" x2="426.98" y2="31.32"/></g><g id="SPLINE-147" data-name="SPLINE"><path class="cls-1" d="M484.41,416.65a6.38,6.38,0,0,0,1.86-1,4,4,0,0,0,1.36-1.82" transform="translate(-57.43 -385.33)"/></g><g id="SPLINE-148" data-name="SPLINE"><path class="cls-1" d="M512.76,416.56a6.27,6.27,0,0,0,1.85-1.06,4,4,0,0,0,1.37-1.81" transform="translate(-57.43 -385.33)"/></g><g id="LINE-99" data-name="LINE"><line class="cls-1" x1="455.33" y1="33.19" x2="455.33" y2="31.22"/></g><g id="SPLINE-149" data-name="SPLINE"><path class="cls-1" d="M515.57,416.88a7.63,7.63,0,0,1-2.81,1.65" transform="translate(-57.43 -385.33)"/></g><g id="LINE-100" data-name="LINE"><line class="cls-1" x1="458.14" y1="39.74" x2="458.14" y2="31.55"/></g><g id="LINE-101" data-name="LINE"><line class="cls-1" x1="460.31" y1="39.74" x2="458.14" y2="39.74"/></g><g id="LINE-102" data-name="LINE"><line class="cls-1" x1="460.31" y1="28.35" x2="460.31" y2="39.74"/></g><g id="LINE-103" data-name="LINE"><line class="cls-1" x1="458.55" y1="28.35" x2="460.31" y2="28.35"/></g><g id="ARC"><path class="cls-1" d="M532.36,456.32a7.08,7.08,0,0,0,7.08-7.08" transform="translate(-57.43 -385.33)"/></g><g id="ARC-2" data-name="ARC"><path class="cls-1" d="M539.44,392.54a7.08,7.08,0,0,0-7.08-7.08" transform="translate(-57.43 -385.33)"/></g><g id="LINE-104" data-name="LINE"><line class="cls-1" x1="482.01" y1="63.9" x2="482.01" y2="7.21"/></g><g id="LINE-105" data-name="LINE"><line class="cls-1" x1="474.93" y1="0.13" x2="463.59" y2="0.13"/></g><g id="LINE-106" data-name="LINE"><line class="cls-1" x1="462.17" y1="0.13" x2="449.42" y2="0.13"/></g><g id="LINE-107" data-name="LINE"><line class="cls-1" x1="448" y1="0.13" x2="435.24" y2="0.13"/></g><g id="LINE-108" data-name="LINE"><line class="cls-1" x1="433.83" y1="0.13" x2="421.07" y2="0.13"/></g><g id="LINE-109" data-name="LINE"><line class="cls-1" x1="419.65" y1="0.13" x2="406.9" y2="0.13"/></g><g id="LINE-110" data-name="LINE"><line class="cls-1" x1="405.48" y1="0.13" x2="392.72" y2="0.13"/></g><g id="LINE-111" data-name="LINE"><line class="cls-1" x1="391.31" y1="0.13" x2="378.55" y2="0.13"/></g><g id="LINE-112" data-name="LINE"><line class="cls-1" x1="377.13" y1="0.13" x2="364.38" y2="0.13"/></g><g id="LINE-113" data-name="LINE"><line class="cls-1" x1="362.96" y1="0.13" x2="350.2" y2="0.13"/></g><g id="LINE-114" data-name="LINE"><line class="cls-1" x1="348.79" y1="0.13" x2="336.03" y2="0.13"/></g><g id="LINE-115" data-name="LINE"><line class="cls-1" x1="334.61" y1="0.13" x2="321.86" y2="0.13"/></g><g id="LINE-116" data-name="LINE"><line class="cls-1" x1="320.44" y1="0.13" x2="307.68" y2="0.13"/></g><g id="LINE-117" data-name="LINE"><line class="cls-1" x1="306.27" y1="0.13" x2="293.51" y2="0.13"/></g><g id="LINE-118" data-name="LINE"><line class="cls-1" x1="292.09" y1="0.13" x2="279.34" y2="0.13"/></g><g id="LINE-119" data-name="LINE"><line class="cls-1" x1="277.92" y1="0.13" x2="265.16" y2="0.13"/></g><g id="LINE-120" data-name="LINE"><line class="cls-1" x1="263.75" y1="0.13" x2="250.99" y2="0.13"/></g><g id="LINE-121" data-name="LINE"><line class="cls-1" x1="249.57" y1="0.13" x2="236.82" y2="0.13"/></g><g id="LINE-122" data-name="LINE"><line class="cls-1" x1="235.4" y1="0.13" x2="222.64" y2="0.13"/></g><g id="LINE-123" data-name="LINE"><line class="cls-1" x1="221.23" y1="0.13" x2="208.47" y2="0.13"/></g><g id="LINE-124" data-name="LINE"><line class="cls-1" x1="207.05" y1="0.13" x2="194.3" y2="0.13"/></g><g id="LINE-125" data-name="LINE"><line class="cls-1" x1="192.88" y1="0.13" x2="180.13" y2="0.13"/></g><g id="LINE-126" data-name="LINE"><line class="cls-1" x1="178.71" y1="0.13" x2="165.95" y2="0.13"/></g><g id="LINE-127" data-name="LINE"><line class="cls-1" x1="164.53" y1="0.13" x2="151.78" y2="0.13"/></g><g id="LINE-128" data-name="LINE"><line class="cls-1" x1="150.36" y1="0.13" x2="137.61" y2="0.13"/></g><g id="LINE-129" data-name="LINE"><line class="cls-1" x1="136.19" y1="0.13" x2="123.43" y2="0.13"/></g><g id="LINE-130" data-name="LINE"><line class="cls-1" x1="122.01" y1="0.13" x2="109.26" y2="0.13"/></g><g id="LINE-131" data-name="LINE"><line class="cls-1" x1="107.84" y1="0.13" x2="95.09" y2="0.13"/></g><g id="LINE-132" data-name="LINE"><line class="cls-1" x1="93.67" y1="0.13" x2="80.91" y2="0.13"/></g><g id="LINE-133" data-name="LINE"><line class="cls-1" x1="79.5" y1="0.13" x2="66.74" y2="0.13"/></g><g id="LINE-134" data-name="LINE"><line class="cls-1" x1="65.32" y1="0.13" x2="52.57" y2="0.13"/></g><g id="LINE-135" data-name="LINE"><line class="cls-1" x1="51.15" y1="0.13" x2="38.39" y2="0.13"/></g><g id="LINE-136" data-name="LINE"><line class="cls-1" x1="36.98" y1="0.13" x2="21.38" y2="0.13"/></g><g id="LINE-137" data-name="LINE"><line class="cls-1" x1="0.13" y1="21.38" x2="0.13" y2="49.73"/></g><g id="LINE-138" data-name="LINE"><line class="cls-1" x1="21.38" y1="70.99" x2="474.93" y2="70.99"/></g><g id="LINE-139" data-name="LINE"><line class="cls-1" x1="463.59" y1="0.13" x2="463.59" y2="22.8"/></g><g id="LINE-140" data-name="LINE"><line class="cls-1" x1="463.59" y1="22.8" x2="462.17" y2="22.8"/></g><g id="LINE-141" data-name="LINE"><line class="cls-1" x1="462.17" y1="22.8" x2="462.17" y2="0.13"/></g><g id="LINE-142" data-name="LINE"><line class="cls-1" x1="449.42" y1="0.13" x2="449.42" y2="14.3"/></g><g id="LINE-143" data-name="LINE"><line class="cls-1" x1="449.42" y1="14.3" x2="448" y2="14.3"/></g><g id="LINE-144" data-name="LINE"><line class="cls-1" x1="448" y1="14.3" x2="448" y2="0.13"/></g><g id="LINE-145" data-name="LINE"><line class="cls-1" x1="435.24" y1="0.13" x2="435.24" y2="22.8"/></g><g id="LINE-146" data-name="LINE"><line class="cls-1" x1="435.24" y1="22.8" x2="433.83" y2="22.8"/></g><g id="LINE-147" data-name="LINE"><line class="cls-1" x1="433.83" y1="22.8" x2="433.83" y2="0.13"/></g><g id="LINE-148" data-name="LINE"><line class="cls-1" x1="421.07" y1="0.13" x2="421.07" y2="14.3"/></g><g id="LINE-149" data-name="LINE"><line class="cls-1" x1="421.07" y1="14.3" x2="419.65" y2="14.3"/></g><g id="LINE-150" data-name="LINE"><line class="cls-1" x1="419.65" y1="14.3" x2="419.65" y2="0.13"/></g><g id="LINE-151" data-name="LINE"><line class="cls-1" x1="406.9" y1="0.13" x2="406.9" y2="22.8"/></g><g id="LINE-152" data-name="LINE"><line class="cls-1" x1="406.9" y1="22.8" x2="405.48" y2="22.8"/></g><g id="LINE-153" data-name="LINE"><line class="cls-1" x1="405.48" y1="22.8" x2="405.48" y2="0.13"/></g><g id="LINE-154" data-name="LINE"><line class="cls-1" x1="392.72" y1="0.13" x2="392.72" y2="14.3"/></g><g id="LINE-155" data-name="LINE"><line class="cls-1" x1="392.72" y1="14.3" x2="391.31" y2="14.3"/></g><g id="LINE-156" data-name="LINE"><line class="cls-1" x1="391.31" y1="14.3" x2="391.31" y2="0.13"/></g><g id="LINE-157" data-name="LINE"><line class="cls-1" x1="378.55" y1="0.13" x2="378.55" y2="22.8"/></g><g id="LINE-158" data-name="LINE"><line class="cls-1" x1="378.55" y1="22.8" x2="377.13" y2="22.8"/></g><g id="LINE-159" data-name="LINE"><line class="cls-1" x1="377.13" y1="22.8" x2="377.13" y2="0.13"/></g><g id="LINE-160" data-name="LINE"><line class="cls-1" x1="364.38" y1="0.13" x2="364.38" y2="14.3"/></g><g id="LINE-161" data-name="LINE"><line class="cls-1" x1="364.38" y1="14.3" x2="362.96" y2="14.3"/></g><g id="LINE-162" data-name="LINE"><line class="cls-1" x1="362.96" y1="14.3" x2="362.96" y2="0.13"/></g><g id="LINE-163" data-name="LINE"><line class="cls-1" x1="350.2" y1="0.13" x2="350.2" y2="22.8"/></g><g id="LINE-164" data-name="LINE"><line class="cls-1" x1="350.2" y1="22.8" x2="348.79" y2="22.8"/></g><g id="LINE-165" data-name="LINE"><line class="cls-1" x1="348.79" y1="22.8" x2="348.79" y2="0.13"/></g><g id="LINE-166" data-name="LINE"><line class="cls-1" x1="336.03" y1="0.13" x2="336.03" y2="14.3"/></g><g id="LINE-167" data-name="LINE"><line class="cls-1" x1="336.03" y1="14.3" x2="334.61" y2="14.3"/></g><g id="LINE-168" data-name="LINE"><line class="cls-1" x1="334.61" y1="14.3" x2="334.61" y2="0.13"/></g><g id="LINE-169" data-name="LINE"><line class="cls-1" x1="321.86" y1="0.13" x2="321.86" y2="22.8"/></g><g id="LINE-170" data-name="LINE"><line class="cls-1" x1="321.86" y1="22.8" x2="320.44" y2="22.8"/></g><g id="LINE-171" data-name="LINE"><line class="cls-1" x1="320.44" y1="22.8" x2="320.44" y2="0.13"/></g><g id="LINE-172" data-name="LINE"><line class="cls-1" x1="307.68" y1="0.13" x2="307.68" y2="14.3"/></g><g id="LINE-173" data-name="LINE"><line class="cls-1" x1="307.68" y1="14.3" x2="306.27" y2="14.3"/></g><g id="LINE-174" data-name="LINE"><line class="cls-1" x1="306.27" y1="14.3" x2="306.27" y2="0.13"/></g><g id="LINE-175" data-name="LINE"><line class="cls-1" x1="293.51" y1="0.13" x2="293.51" y2="22.8"/></g><g id="LINE-176" data-name="LINE"><line class="cls-1" x1="293.51" y1="22.8" x2="292.09" y2="22.8"/></g><g id="LINE-177" data-name="LINE"><line class="cls-1" x1="292.09" y1="22.8" x2="292.09" y2="0.13"/></g><g id="LINE-178" data-name="LINE"><line class="cls-1" x1="279.34" y1="0.13" x2="279.34" y2="14.3"/></g><g id="LINE-179" data-name="LINE"><line class="cls-1" x1="279.34" y1="14.3" x2="277.92" y2="14.3"/></g><g id="LINE-180" data-name="LINE"><line class="cls-1" x1="277.92" y1="14.3" x2="277.92" y2="0.13"/></g><g id="LINE-181" data-name="LINE"><line class="cls-1" x1="265.16" y1="0.13" x2="265.16" y2="22.8"/></g><g id="LINE-182" data-name="LINE"><line class="cls-1" x1="265.16" y1="22.8" x2="263.75" y2="22.8"/></g><g id="LINE-183" data-name="LINE"><line class="cls-1" x1="263.75" y1="22.8" x2="263.75" y2="0.13"/></g><g id="LINE-184" data-name="LINE"><line class="cls-1" x1="250.99" y1="0.13" x2="250.99" y2="14.3"/></g><g id="LINE-185" data-name="LINE"><line class="cls-1" x1="250.99" y1="14.3" x2="249.57" y2="14.3"/></g><g id="LINE-186" data-name="LINE"><line class="cls-1" x1="249.57" y1="14.3" x2="249.57" y2="0.13"/></g><g id="LINE-187" data-name="LINE"><line class="cls-1" x1="236.82" y1="0.13" x2="236.82" y2="22.8"/></g><g id="LINE-188" data-name="LINE"><line class="cls-1" x1="236.82" y1="22.8" x2="235.4" y2="22.8"/></g><g id="LINE-189" data-name="LINE"><line class="cls-1" x1="235.4" y1="22.8" x2="235.4" y2="0.13"/></g><g id="LINE-190" data-name="LINE"><line class="cls-1" x1="222.64" y1="0.13" x2="222.64" y2="14.3"/></g><g id="LINE-191" data-name="LINE"><line class="cls-1" x1="222.64" y1="14.3" x2="221.23" y2="14.3"/></g><g id="LINE-192" data-name="LINE"><line class="cls-1" x1="221.23" y1="14.3" x2="221.23" y2="0.13"/></g><g id="LINE-193" data-name="LINE"><line class="cls-1" x1="208.47" y1="0.13" x2="208.47" y2="22.8"/></g><g id="LINE-194" data-name="LINE"><line class="cls-1" x1="208.47" y1="22.8" x2="207.05" y2="22.8"/></g><g id="LINE-195" data-name="LINE"><line class="cls-1" x1="207.05" y1="22.8" x2="207.05" y2="0.13"/></g><g id="LINE-196" data-name="LINE"><line class="cls-1" x1="194.3" y1="0.13" x2="194.3" y2="14.3"/></g><g id="LINE-197" data-name="LINE"><line class="cls-1" x1="194.3" y1="14.3" x2="192.88" y2="14.3"/></g><g id="LINE-198" data-name="LINE"><line class="cls-1" x1="192.88" y1="14.3" x2="192.88" y2="0.13"/></g><g id="LINE-199" data-name="LINE"><line class="cls-1" x1="180.13" y1="0.13" x2="180.13" y2="22.8"/></g><g id="LINE-200" data-name="LINE"><line class="cls-1" x1="180.13" y1="22.8" x2="178.71" y2="22.8"/></g><g id="LINE-201" data-name="LINE"><line class="cls-1" x1="178.71" y1="22.8" x2="178.71" y2="0.13"/></g><g id="LINE-202" data-name="LINE"><line class="cls-1" x1="165.95" y1="0.13" x2="165.95" y2="14.3"/></g><g id="LINE-203" data-name="LINE"><line class="cls-1" x1="165.95" y1="14.3" x2="164.53" y2="14.3"/></g><g id="LINE-204" data-name="LINE"><line class="cls-1" x1="164.53" y1="14.3" x2="164.53" y2="0.13"/></g><g id="LINE-205" data-name="LINE"><line class="cls-1" x1="151.78" y1="0.13" x2="151.78" y2="22.8"/></g><g id="LINE-206" data-name="LINE"><line class="cls-1" x1="151.78" y1="22.8" x2="150.36" y2="22.8"/></g><g id="LINE-207" data-name="LINE"><line class="cls-1" x1="150.36" y1="22.8" x2="150.36" y2="0.13"/></g><g id="LINE-208" data-name="LINE"><line class="cls-1" x1="137.61" y1="0.13" x2="137.61" y2="14.3"/></g><g id="LINE-209" data-name="LINE"><line class="cls-1" x1="137.61" y1="14.3" x2="136.19" y2="14.3"/></g><g id="LINE-210" data-name="LINE"><line class="cls-1" x1="136.19" y1="14.3" x2="136.19" y2="0.13"/></g><g id="LINE-211" data-name="LINE"><line class="cls-1" x1="123.43" y1="0.13" x2="123.43" y2="22.8"/></g><g id="LINE-212" data-name="LINE"><line class="cls-1" x1="123.43" y1="22.8" x2="122.01" y2="22.8"/></g><g id="LINE-213" data-name="LINE"><line class="cls-1" x1="122.01" y1="22.8" x2="122.01" y2="0.13"/></g><g id="LINE-214" data-name="LINE"><line class="cls-1" x1="109.26" y1="0.13" x2="109.26" y2="14.3"/></g><g id="LINE-215" data-name="LINE"><line class="cls-1" x1="109.26" y1="14.3" x2="107.84" y2="14.3"/></g><g id="LINE-216" data-name="LINE"><line class="cls-1" x1="107.84" y1="14.3" x2="107.84" y2="0.13"/></g><g id="LINE-217" data-name="LINE"><line class="cls-1" x1="95.09" y1="0.13" x2="95.09" y2="22.8"/></g><g id="LINE-218" data-name="LINE"><line class="cls-1" x1="95.09" y1="22.8" x2="93.67" y2="22.8"/></g><g id="LINE-219" data-name="LINE"><line class="cls-1" x1="93.67" y1="22.8" x2="93.67" y2="0.13"/></g><g id="LINE-220" data-name="LINE"><line class="cls-1" x1="80.91" y1="0.13" x2="80.91" y2="14.3"/></g><g id="LINE-221" data-name="LINE"><line class="cls-1" x1="80.91" y1="14.3" x2="79.5" y2="14.3"/></g><g id="LINE-222" data-name="LINE"><line class="cls-1" x1="79.5" y1="14.3" x2="79.5" y2="0.13"/></g><g id="LINE-223" data-name="LINE"><line class="cls-1" x1="66.74" y1="0.13" x2="66.74" y2="22.8"/></g><g id="LINE-224" data-name="LINE"><line class="cls-1" x1="66.74" y1="22.8" x2="65.32" y2="22.8"/></g><g id="LINE-225" data-name="LINE"><line class="cls-1" x1="65.32" y1="22.8" x2="65.32" y2="0.13"/></g><g id="LINE-226" data-name="LINE"><line class="cls-1" x1="65.32" y1="0.13" x2="66.74" y2="0.13"/></g><g id="LINE-227" data-name="LINE"><line class="cls-1" x1="79.5" y1="0.13" x2="80.91" y2="0.13"/></g><g id="LINE-228" data-name="LINE"><line class="cls-1" x1="93.67" y1="0.13" x2="95.09" y2="0.13"/></g><g id="LINE-229" data-name="LINE"><line class="cls-1" x1="107.84" y1="0.13" x2="109.26" y2="0.13"/></g><g id="LINE-230" data-name="LINE"><line class="cls-1" x1="122.01" y1="0.13" x2="123.43" y2="0.13"/></g><g id="LINE-231" data-name="LINE"><line class="cls-1" x1="136.19" y1="0.13" x2="137.61" y2="0.13"/></g><g id="LINE-232" data-name="LINE"><line class="cls-1" x1="150.36" y1="0.13" x2="151.78" y2="0.13"/></g><g id="LINE-233" data-name="LINE"><line class="cls-1" x1="164.53" y1="0.13" x2="165.95" y2="0.13"/></g><g id="LINE-234" data-name="LINE"><line class="cls-1" x1="178.71" y1="0.13" x2="180.13" y2="0.13"/></g><g id="LINE-235" data-name="LINE"><line class="cls-1" x1="192.88" y1="0.13" x2="194.3" y2="0.13"/></g><g id="LINE-236" data-name="LINE"><line class="cls-1" x1="207.05" y1="0.13" x2="208.47" y2="0.13"/></g><g id="LINE-237" data-name="LINE"><line class="cls-1" x1="221.23" y1="0.13" x2="222.64" y2="0.13"/></g><g id="LINE-238" data-name="LINE"><line class="cls-1" x1="235.4" y1="0.13" x2="236.82" y2="0.13"/></g><g id="LINE-239" data-name="LINE"><line class="cls-1" x1="249.57" y1="0.13" x2="250.99" y2="0.13"/></g><g id="LINE-240" data-name="LINE"><line class="cls-1" x1="263.75" y1="0.13" x2="265.16" y2="0.13"/></g><g id="LINE-241" data-name="LINE"><line class="cls-1" x1="277.92" y1="0.13" x2="279.34" y2="0.13"/></g><g id="LINE-242" data-name="LINE"><line class="cls-1" x1="292.09" y1="0.13" x2="293.51" y2="0.13"/></g><g id="LINE-243" data-name="LINE"><line class="cls-1" x1="306.27" y1="0.13" x2="307.68" y2="0.13"/></g><g id="LINE-244" data-name="LINE"><line class="cls-1" x1="320.44" y1="0.13" x2="321.86" y2="0.13"/></g><g id="LINE-245" data-name="LINE"><line class="cls-1" x1="334.61" y1="0.13" x2="336.03" y2="0.13"/></g><g id="LINE-246" data-name="LINE"><line class="cls-1" x1="348.79" y1="0.13" x2="350.2" y2="0.13"/></g><g id="LINE-247" data-name="LINE"><line class="cls-1" x1="362.96" y1="0.13" x2="364.38" y2="0.13"/></g><g id="LINE-248" data-name="LINE"><line class="cls-1" x1="377.13" y1="0.13" x2="378.55" y2="0.13"/></g><g id="LINE-249" data-name="LINE"><line class="cls-1" x1="391.31" y1="0.13" x2="392.72" y2="0.13"/></g><g id="LINE-250" data-name="LINE"><line class="cls-1" x1="405.48" y1="0.13" x2="406.9" y2="0.13"/></g><g id="LINE-251" data-name="LINE"><line class="cls-1" x1="419.65" y1="0.13" x2="421.07" y2="0.13"/></g><g id="LINE-252" data-name="LINE"><line class="cls-1" x1="433.83" y1="0.13" x2="435.24" y2="0.13"/></g><g id="LINE-253" data-name="LINE"><line class="cls-1" x1="448" y1="0.13" x2="449.42" y2="0.13"/></g><g id="LINE-254" data-name="LINE"><line class="cls-1" x1="462.17" y1="0.13" x2="463.59" y2="0.13"/></g><g id="LINE-255" data-name="LINE"><line class="cls-1" x1="52.57" y1="0.13" x2="52.57" y2="14.3"/></g><g id="LINE-256" data-name="LINE"><line class="cls-1" x1="52.57" y1="14.3" x2="51.15" y2="14.3"/></g><g id="LINE-257" data-name="LINE"><line class="cls-1" x1="51.15" y1="14.3" x2="51.15" y2="0.13"/></g><g id="LINE-258" data-name="LINE"><line class="cls-1" x1="38.39" y1="0.13" x2="38.39" y2="22.8"/></g><g id="LINE-259" data-name="LINE"><line class="cls-1" x1="38.39" y1="22.8" x2="36.98" y2="22.8"/></g><g id="LINE-260" data-name="LINE"><line class="cls-1" x1="36.98" y1="22.8" x2="36.98" y2="0.13"/></g><g id="LINE-261" data-name="LINE"><line class="cls-1" x1="36.98" y1="0.13" x2="38.39" y2="0.13"/></g><g id="LINE-262" data-name="LINE"><line class="cls-1" x1="51.15" y1="0.13" x2="52.57" y2="0.13"/></g><g id="ARC-3" data-name="ARC"><path class="cls-1" d="M78.81,385.46a21.25,21.25,0,0,0-21.25,21.26" transform="translate(-57.43 -385.33)"/></g><g id="ARC-4" data-name="ARC"><path class="cls-1" d="M57.56,435.06a21.25,21.25,0,0,0,21.25,21.26" transform="translate(-57.43 -385.33)"/></g><g id="LINE-263" data-name="LINE"><line class="cls-1" x1="22.8" y1="39.65" x2="15.72" y2="43.74"/></g><g id="LINE-264" data-name="LINE"><line class="cls-1" x1="15.72" y1="43.74" x2="8.63" y2="39.65"/></g><g id="LINE-265" data-name="LINE"><line class="cls-1" x1="8.63" y1="39.65" x2="8.63" y2="31.47"/></g><g id="LINE-266" data-name="LINE"><line class="cls-1" x1="8.63" y1="31.47" x2="15.72" y2="27.38"/></g><g id="LINE-267" data-name="LINE"><line class="cls-1" x1="15.72" y1="27.38" x2="22.8" y2="31.47"/></g><g id="LINE-268" data-name="LINE"><line class="cls-1" x1="22.8" y1="31.47" x2="22.8" y2="39.65"/></g><path class="cls-2" d="M451.74,453.11l9.73-5.59a1.42,1.42,0,0,0,.72-1.23v-1.42l-8.42,4.68v-2.21l4.76-2.78v-2.39l-4.74,2.77v-2.41l8.39-4.86v-2.49l-9.73,5.6a1.4,1.4,0,0,0-.72,1.23Z" transform="translate(-57.43 -385.33)"/><path class="cls-2" d="M451.63,440.2a1.48,1.48,0,0,0-.75,1.28v12.13l.13.07v-12.2a1.35,1.35,0,0,1,.68-1.17l10.5-6-.13-.08Z" transform="translate(-57.43 -385.33)"/><path class="cls-2" d="M451.69,428.1a1.47,1.47,0,0,0-1.49,0l-9.82,5.63a1.49,1.49,0,0,0-.74,1.29v11.27a1.48,1.48,0,0,0,.74,1.29l10.5,6v-.14l-10.43-6a1.36,1.36,0,0,1-.68-1.18V435a1.35,1.35,0,0,1,.68-1.17l9.81-5.64a1.39,1.39,0,0,1,1.37,0l10.43,6h0l.13.08.13-.08Z" transform="translate(-57.43 -385.33)"/><path class="cls-3" d="M442.36,445.52V436.8l-.55-.34a1.44,1.44,0,0,0-.25-.18l-1.34-.77,0,10.28a1.46,1.46,0,0,0,.73,1.26l9.13,5.25v-2.19Z" transform="translate(-57.43 -385.33)"/><path class="cls-4" d="M451.31,437.26l-.85-.49h0L449,435.9l4.61-2.61-1.78-1,0,0h0l0,0-4.55,2.66-2-1.16,7.44-4.28-1.19-.69a1.46,1.46,0,0,0-1.43,0l-8.53,4.89a.44.44,0,0,0,0,.77l9.53,5.37,2.3-1.33-1.91-1.13-.14-.09" transform="translate(-57.43 -385.33)"/><path class="cls-5" d="M488.72,443.75a1.29,1.29,0,0,1,.64-1.08,2.65,2.65,0,0,1,1.35-.34H491a1.81,1.81,0,0,1,.77.22.67.67,0,0,1,.36.66,1.28,1.28,0,0,1,0,.19,1.94,1.94,0,0,1-.05.2h-1.13a.19.19,0,0,0,0-.07v-.06a.29.29,0,0,0-.13-.27.56.56,0,0,0-.31-.09h-.08a.59.59,0,0,0-.33.13.31.31,0,0,0-.16.28c0,.11.1.2.32.29a5.87,5.87,0,0,0,.76.23,1.13,1.13,0,0,1,.55.24.69.69,0,0,1,.25.33.48.48,0,0,1,.05.17.86.86,0,0,1,0,.16,1.37,1.37,0,0,1-.52,1,2.24,2.24,0,0,1-1.55.46,1.59,1.59,0,0,1-1.18-.31,1.07,1.07,0,0,1-.27-.71v-.18a.22.22,0,0,0,0-.08s0-.06,0-.09h1.12a.2.2,0,0,0,0,.07v.06a.51.51,0,0,0,.12.35.44.44,0,0,0,.36.13h.14l.17-.05a.82.82,0,0,0,.26-.14.32.32,0,0,0,.13-.27v0c0-.09-.07-.17-.21-.23a3.12,3.12,0,0,0-.46-.17l-.31-.08-.25-.08h0l-.12,0-.12,0a1,1,0,0,1-.31-.24.85.85,0,0,1-.14-.54Z" transform="translate(-57.43 -385.33)"/><polygon class="cls-5" points="435.57 57.08 438.64 57.08 438.46 57.85 436.56 57.85 436.39 58.63 438.16 58.63 437.99 59.45 436.22 59.45 436.04 60.22 437.99 60.22 437.82 61.04 434.75 61.04 435.57 57.08"/><path class="cls-5" d="M496.37,443.75a1.29,1.29,0,0,1,.64-1.08,2.65,2.65,0,0,1,1.35-.34h.27a1.81,1.81,0,0,1,.77.22.67.67,0,0,1,.36.66,1.28,1.28,0,0,1,0,.19,1.94,1.94,0,0,1-.05.2h-1.13a.19.19,0,0,0,0-.07v-.06a.27.27,0,0,0-.13-.27.56.56,0,0,0-.31-.09h-.07a.59.59,0,0,0-.34.13.31.31,0,0,0-.16.28c0,.11.11.2.32.29a5.87,5.87,0,0,0,.76.23,1.21,1.21,0,0,1,.56.24.74.74,0,0,1,.24.33.48.48,0,0,1,.05.17.88.88,0,0,1,0,.16,1.4,1.4,0,0,1-.52,1,2.29,2.29,0,0,1-1.56.46,1.61,1.61,0,0,1-1.18-.31,1.07,1.07,0,0,1-.27-.71v-.18l0-.08a.28.28,0,0,1,0-.09h1.12a.2.2,0,0,0,0,.07v.06a.51.51,0,0,0,.12.35.45.45,0,0,0,.37.13h.13l.17-.05a.87.87,0,0,0,.27-.14.34.34,0,0,0,.12-.27v0c0-.09-.07-.17-.21-.23a2.75,2.75,0,0,0-.46-.17l-.31-.08-.25-.08h0l-.12,0-.12,0a1,1,0,0,1-.31-.24.85.85,0,0,1-.14-.54Z" transform="translate(-57.43 -385.33)"/><polygon class="cls-5" points="443.3 57.08 444.43 57.08 443.61 61.04 442.44 61.04 443.3 57.08"/><polygon class="cls-5" points="444.35 59.19 445.95 59.19 445.81 59.92 444.22 59.92 444.35 59.19"/><path class="cls-5" d="M504,443.75a1.31,1.31,0,0,1,.63-1.08,2.65,2.65,0,0,1,1.35-.34h.27a1.85,1.85,0,0,1,.78.22.68.68,0,0,1,.35.66,1.28,1.28,0,0,1,0,.19.84.84,0,0,1-.05.2h-1.12a.17.17,0,0,0,0-.07v-.06a.27.27,0,0,0-.13-.27.54.54,0,0,0-.31-.09h-.07a.62.62,0,0,0-.34.13.33.33,0,0,0-.16.28c0,.11.11.2.32.29a6.06,6.06,0,0,0,.77.23,1.17,1.17,0,0,1,.55.24.85.85,0,0,1,.25.33.47.47,0,0,1,0,.17.88.88,0,0,1,0,.16,1.4,1.4,0,0,1-.52,1,2.27,2.27,0,0,1-1.56.46,1.56,1.56,0,0,1-1.17-.31,1,1,0,0,1-.28-.71.28.28,0,0,1,0-.09v-.09a.22.22,0,0,1,0-.08s0-.06,0-.09h1.12s0,.05,0,.07v.06a.51.51,0,0,0,.12.35.46.46,0,0,0,.37.13h.14l.16-.05a.87.87,0,0,0,.27-.14.34.34,0,0,0,.12-.27v0c0-.09-.07-.17-.21-.23a2.75,2.75,0,0,0-.46-.17l-.31-.08-.24-.08h0l-.11,0-.13,0a.84.84,0,0,1-.3-.24.79.79,0,0,1-.14-.54Z" transform="translate(-57.43 -385.33)"/><path class="cls-5" d="M509.69,444.22a.64.64,0,0,0,.43-.15.69.69,0,0,0,.24-.34s0-.05,0-.07a.13.13,0,0,0,0-.06.34.34,0,0,0-.12-.26.6.6,0,0,0-.4-.1h-.56l-.22,1Zm-1.38-1.8h2.14a1.9,1.9,0,0,1,.79.22.76.76,0,0,1,.35.72,1.41,1.41,0,0,1-.55,1.25,2.29,2.29,0,0,1-1.31.38h-.82l-.3,1.37h-1.12Z" transform="translate(-57.43 -385.33)"/><polygon class="cls-4" points="413.83 49.84 416.78 49.84 416.78 50.64 414.7 50.64 414.7 51.69 416.37 51.69 416.37 52.49 414.7 52.49 414.7 54.47 413.83 54.47 413.83 49.84"/><path class="cls-4" d="M475.94,436.31l-.49,1.61h1ZM477,439.8l-.34-1.09H475.2l-.34,1.09h-.93l1.57-4.63h.87l1.57,4.63Z" transform="translate(-57.43 -385.33)"/><path class="cls-4" d="M479.38,437.77V439h.8c.49,0,.75-.21.75-.62s-.26-.62-.75-.62Zm0-1.8v1h.8c.36,0,.54-.14.54-.5s-.19-.5-.56-.5Zm-.86-.8h1.7a1.18,1.18,0,0,1,1.33,1.25.93.93,0,0,1-.46.86,1.09,1.09,0,0,1,.7,1.13,1.34,1.34,0,0,1-1.53,1.39h-1.74Z" transform="translate(-57.43 -385.33)"/><polygon class="cls-4" points="430.18 49.84 431.04 49.84 431.04 53.68 433.02 53.68 433.02 54.47 430.18 54.47 430.18 49.84"/><path class="cls-4" d="M493,436.31l-.49,1.61h1ZM494,439.8l-.34-1.09h-1.48l-.33,1.09H491l1.57-4.63h.86L495,439.8Z" transform="translate(-57.43 -385.33)"/><path class="cls-4" d="M496.4,437.77V439h.79c.5,0,.75-.21.75-.62s-.25-.62-.75-.62Zm0-1.8v1h.79c.37,0,.55-.14.55-.5s-.19-.5-.57-.5Zm-.86-.8h1.7a1.18,1.18,0,0,1,1.33,1.25,1,1,0,0,1-.46.86,1.11,1.11,0,0,1,.7,1.13c0,.89-.58,1.39-1.54,1.39h-1.73Z" transform="translate(-57.43 -385.33)"/><polygon class="cls-4" points="447.2 49.84 450.07 49.84 450.07 50.64 448.06 50.64 448.06 51.61 449.67 51.61 449.67 52.4 448.06 52.4 448.06 53.68 450.14 53.68 450.14 54.47 447.2 54.47 447.2 49.84"/><path class="cls-4" d="M510.27,436.4a.74.74,0,0,0-.64-.49.43.43,0,0,0-.45.43c0,.29.32.51.7.69.56.24,1.3.58,1.29,1.38a1.36,1.36,0,0,1-1.49,1.44,1.57,1.57,0,0,1-1.05-.37,1.66,1.66,0,0,1-.55-.92l.7-.44c.18.63.48.94.92.94a.53.53,0,0,0,.61-.6c0-.27-.3-.48-.69-.65-.56-.23-1.27-.58-1.26-1.43a1.23,1.23,0,0,1,1.27-1.26A1.37,1.37,0,0,1,511,436Z" transform="translate(-57.43 -385.33)"/><path class="cls-4" d="M515.13,436.72a1.15,1.15,0,0,0-1.15-.81,1.25,1.25,0,0,0-1,.41,2,2,0,0,0,0,2.34,1.24,1.24,0,0,0,1,.4,1.14,1.14,0,0,0,1.15-.81l.78.2a1.81,1.81,0,0,1-1.93,1.4,2.17,2.17,0,0,1-1.56-.62,2.69,2.69,0,0,1,0-3.48,2.13,2.13,0,0,1,1.56-.63,1.82,1.82,0,0,1,1.93,1.4Z" transform="translate(-57.43 -385.33)"/><path class="cls-4" d="M518.72,435.91a1.29,1.29,0,0,0-1,.4,1.72,1.72,0,0,0-.37,1.18,1.67,1.67,0,0,0,.37,1.17,1.25,1.25,0,0,0,1,.4,1.22,1.22,0,0,0,.94-.4,1.63,1.63,0,0,0,.37-1.17,1.67,1.67,0,0,0-.37-1.18,1.25,1.25,0,0,0-.94-.4m0-.79a2,2,0,0,1,1.88,1.05,2.68,2.68,0,0,1,.31,1.32,2.29,2.29,0,0,1-1.1,2.12,2.45,2.45,0,0,1-1.09.24,2,2,0,0,1-1.89-1,2.71,2.71,0,0,1-.3-1.32,2.26,2.26,0,0,1,1.1-2.12,2.4,2.4,0,0,1,1.09-.25" transform="translate(-57.43 -385.33)"/><polygon class="cls-4" points="464.26 49.84 465.12 49.84 465.12 53.68 467.09 53.68 467.09 54.47 464.26 54.47 464.26 49.84"/><path class="cls-4" d="M527,436.31l-.49,1.61h1Zm1.08,3.49-.34-1.09h-1.48L526,439.8H525l1.58-4.63h.86L529,439.8Z" transform="translate(-57.43 -385.33)"/><path class="cls-4" d="M485.29,437.74a.51.51,0,1,1-.51-.51.51.51,0,0,1,.51.51" transform="translate(-57.43 -385.33)"/><path class="cls-4" d="M502.2,437.74a.51.51,0,1,1-.51-.51.51.51,0,0,1,.51.51" transform="translate(-57.43 -385.33)"/></svg>