<?xml version="1.0" encoding="UTF-8" standalone="no"?>
<!-- Created with Inkscape (http://www.inkscape.org/) -->

<svg
   width="600mm"
   height="400mm"
   viewBox="0 0 600 400"
   version="1.1"
   id="svg19"
   sodipodi:docname="Caixa do Dominó - Due.svg"
   inkscape:version="1.2-alpha1 (unknown)"
   xmlns:inkscape="http://www.inkscape.org/namespaces/inkscape"
   xmlns:sodipodi="http://sodipodi.sourceforge.net/DTD/sodipodi-0.dtd"
   xmlns="http://www.w3.org/2000/svg"
   xmlns:svg="http://www.w3.org/2000/svg">
  <sodipodi:namedview
     id="namedview21"
     pagecolor="#ffffff"
     bordercolor="#999999"
     borderopacity="1"
     inkscape:pageshadow="0"
     inkscape:pageopacity="0"
     inkscape:pagecheckerboard="0"
     inkscape:deskcolor="#d1d1d1"
     inkscape:document-units="mm"
     showgrid="false"
     inkscape:zoom="0.53842708"
     inkscape:cx="123.5079"
     inkscape:cy="611.96773"
     inkscape:window-width="1920"
     inkscape:window-height="1013"
     inkscape:window-x="-9"
     inkscape:window-y="-9"
     inkscape:window-maximized="1"
     inkscape:current-layer="layer1" />
  <defs
     id="defs16">
    <style
       id="style1312">.cls-1{fill:none;stroke:#000;stroke-linecap:round;stroke-miterlimit:11.34;stroke-width:0.25px;}.cls-2{fill:#1d70b7;}.cls-3{fill:#009540;}.cls-4{fill:#e20613;}.cls-5{fill:#1d1d1b;}.cls-6{fill:#d61616;}</style>
  </defs>
  <g
     inkscape:label="CORTE"
     inkscape:groupmode="layer"
     id="layer1"
     inkscape:power="100"
     inkscape:feed="12"
     inkscape:engrave="0"
     inkscape:highlight-color="#e13535">
    <g
       id="g20116"
       inkscape:power="50"
       inkscape:feed="50"
       inkscape:engrave="0">
      <path
         style="color:#000000;fill:#000000;stroke-linecap:round;stroke-miterlimit:11.34;-inkscape-stroke:none"
         d="M 42.580078,-0.00585938 V 2.9902344 H 31.964844 v 7.3691406 h -3 v 9.841797 h 3 v 9.642578 h -3 v 9.837891 h 3 v 9.654296 h -3 v 9.828125 h 3 v 9.642579 h -3 v 9.83789 h 3 v 9.640625 h -3 v 9.841797 h 3 v 9.642577 h -3 v 9.8418 h 3 V 127.25 h -3 v 9.8418 h 3 v 9.64062 h -3 v 9.84961 h 3 v 9.63672 h -3 v 9.8418 h 3 v 9.64257 h -3 v 9.8418 h 3 v 7.35938 h 0.05078 10.564453 v 2.99804 h 9.837891 v -2.99804 h 9.642578 v 2.99804 h 9.841797 v -2.99804 h 10.615234 v -7.36719 h 2.996094 v -9.8418 h -2.996094 v -9.64062 h 2.996094 v -9.8418 h -2.996094 v -9.63086 h 2.996094 v -9.84961 h -2.996094 v -9.64062 h 2.996094 V 127.25 h -2.996094 v -9.63867 h 2.996094 v -9.8418 h -2.996094 v -9.642577 h 2.996094 v -9.841797 h -2.996094 v -9.640625 h 2.996094 v -9.83789 h -2.996094 v -9.642579 h 2.996094 v -9.828125 h -2.996094 v -9.654296 h 2.996094 V 29.84375 h -2.996094 v -9.642578 h 2.996094 V 10.359375 H 82.517578 V 2.9902344 H 71.902344 V -0.00585938 H 62.060547 V 2.9902344 H 52.417969 V -0.00585938 Z M 42.679687,0.09375 h 9.638672 v 2.9960938 h 9.841797 V 0.09375 h 9.642578 v 2.9960938 h 10.615235 v 7.3691402 h 2.996093 v 9.642578 h -2.996093 v 9.841797 h 2.996093 v 9.638672 H 82.417969 V 49.4375 h 2.996093 v 9.626953 h -2.996093 v 9.841797 h 2.996093 v 9.638672 h -2.996093 v 9.841797 h 2.996093 v 9.640625 h -2.996093 v 9.841796 h 2.996093 v 9.64258 h -2.996093 v 9.83789 h 2.996093 v 9.64062 h -2.996093 v 9.8418 h 2.996093 v 9.64844 h -2.996093 v 9.83203 h 2.996093 v 9.64062 h -2.996093 v 9.8418 h 2.996093 v 9.64258 h -2.996093 v 7.36523 H 71.802734 v 3 h -9.642578 v -3 h -9.841797 v 3 h -9.638672 v -3 H 32.064453 v -7.35742 h -3 v -9.64258 h 3 v -9.84179 h -3 v -9.64063 h 3 v -9.83984 h -3 v -9.64844 h 3 v -9.8418 h -3 v -9.64062 h 3 v -9.83789 h -3 v -9.64258 h 3 v -9.841796 h -3 v -9.640625 h 3 v -9.841797 h -3 V 68.90625 h 3 v -9.841797 h -3 V 49.4375 h 3 v -9.855469 h -3 v -9.638672 h 3 v -9.841797 h -3 v -9.642578 h 3 V 3.0898438 h 10.615234 z"
         id="top_outsideCutPath"
         inkscape:power="50"
         inkscape:feed="50"
         inkscape:engrave="0" />
      <path
         style="color:#000000;fill:#000000;stroke-linecap:round;stroke-miterlimit:11.34;-inkscape-stroke:none"
         d="m 60.986328,208.80664 0.03906,0.0391 h -0.08984 v 0.0606 7.99609 h -2.996094 v 9.85157 h 2.996094 v 8.10546 h 10.705078 v -2.99804 h 9.642578 v 2.99804 H 91.125 v -2.99804 h 9.66992 v 2.99804 h 10.71094 V 226.754 h 3 v -9.8418 h -3 v -8.10547 h -10.71094 v 2.99414 h -9.660154 v -2.99414 h -9.841797 v 2.99414 h -9.652344 v -2.99414 z m 0.04883,0.0996 h 10.50586 v 2.99609 h 9.851562 v -2.99609 h 9.642578 v 2.99609 h 9.859372 v -2.99609 h 10.51172 v 8.10547 h 3 v 9.64258 h -3 v 8.10547 h -10.51172 v -2.99805 h -9.869137 v 2.99805 h -9.642579 v -2.99805 h -9.841796 v 2.99805 h -10.50586 v -8.10547 h -2.99414 v -9.65235 h 2.99414 z"
         id="left_outsideCutPath"
         inkscape:power="50"
         inkscape:feed="50"
         inkscape:engrave="0" />
      <path
         style="color:#000000;fill:#000000;stroke-linecap:round;stroke-miterlimit:11.34;-inkscape-stroke:none"
         d="m 3.3046875,208.80664 0.039063,0.0391 h -0.089844 v 0.0606 7.99609 h -2.996094 v 9.85157 h 2.9960938 v 8.10546 H 13.970703 v -2.99804 h 9.636719 v 2.99804 h 9.841797 v -2.99804 h 9.642578 v 2.99804 H 53.806641 V 226.754 h 2.996093 v -9.8418 h -2.996093 v -8.10547 H 43.091797 v 2.99414 h -9.642578 v -2.99414 h -9.841797 v 2.99414 h -9.636719 v -2.99414 z m 0.048828,0.0996 H 13.869141 v 2.99609 h 9.839843 v -2.99609 h 9.640625 v 2.99609 h 9.841797 v -2.99609 h 10.515625 v 8.10547 h 2.996094 v 9.64258 h -2.996094 v 8.10547 H 43.191406 v -2.99805 h -9.841797 v 2.99805 h -9.640625 v -2.99805 h -9.839843 v 2.99805 H 3.3535156 V 226.6543 H 0.35742188 v -9.65235 H 3.3535156 Z"
         id="right_outsideCutPath"
         inkscape:power="50"
         inkscape:feed="50"
         inkscape:engrave="0" />
      <path
         style="color:#000000;fill:#000000;stroke-linecap:round;stroke-miterlimit:11.34;-inkscape-stroke:none"
         d="M -0.00585938,-0.00585938 V 10.458984 H 2.9902344 v 9.642578 h -2.99609378 v 9.841797 H 2.9902344 v 9.638672 H -0.00585938 V 49.4375 H 2.9902344 v 9.626953 H -0.00585938 V 68.90625 H 2.9902344 v 9.638672 h -2.99609378 v 9.841797 H 2.9902344 v 9.640625 h -2.99609378 v 9.841796 H 2.9902344 v 9.64258 h -2.99609378 v 9.83789 H 2.9902344 v 9.64062 h -2.99609378 v 9.8418 H 2.9902344 v 9.64844 h -2.99609378 v 9.83984 H 2.9902344 v 9.64063 h -2.99609378 v 9.84179 H 2.9902344 v 9.64258 h -2.99609378 v 10.45703 H 0.04492187 8.2011719 v -2.99804 h 9.6523441 v 2.99804 h 8.205078 V 195.4375 h -2.984375 v -9.64258 h 2.996093 v -9.8418 h -2.996093 v -9.64062 h 2.996093 v -9.83203 h -2.996093 v -9.64844 h 2.996093 v -9.8418 h -2.996093 v -9.64062 h 2.996093 v -9.83789 h -2.996093 v -9.64258 h 2.996093 v -9.841796 h -2.996093 v -9.640625 h 2.996093 V 78.544922 H 23.074219 V 68.90625 h 2.996093 V 59.064453 H 23.074219 V 49.4375 h 2.996093 v -9.855469 h -2.996093 v -9.638672 h 2.996093 v -9.841797 h -2.996093 v -9.642578 h 2.996093 V -0.00585938 H 17.863281 V 2.9902344 H 8.2011719 V -0.00585938 Z M 0.09375,0.09375 H 8.0996094 V 3.0898438 H 17.962891 V 0.09375 h 8.005859 v 10.265625 h -2.994141 v 9.841797 h 2.994141 v 9.642578 h -2.994141 v 9.837891 h 2.994141 v 9.654296 h -2.994141 v 9.828125 h 2.994141 v 9.642579 h -2.994141 v 9.83789 h 2.994141 v 9.640625 h -2.994141 v 9.841797 h 2.994141 v 9.642577 h -2.994141 v 9.8418 H 25.96875 V 127.25 h -2.994141 v 9.8418 h 2.994141 v 9.64062 h -2.994141 v 9.84961 h 2.994141 v 9.63086 h -2.994141 v 9.8418 h 2.994141 v 9.64062 h -2.994141 v 9.8418 h 2.984375 v 10.26562 h -8.005859 v -3 H 8.0996094 v 3 H 0.09375 v -10.25781 h 2.9960938 v -9.8418 H 0.09375 v -9.64257 h 2.9960938 v -9.8418 H 0.09375 v -9.63672 h 2.9960938 v -9.84961 H 0.09375 V 137.0918 H 3.0898438 V 127.25 H 0.09375 v -9.63867 h 2.9960938 v -9.8418 H 0.09375 V 98.126953 H 3.0898438 V 88.285156 H 0.09375 v -9.640625 h 2.9960938 v -9.83789 H 0.09375 V 59.164062 H 3.0898438 V 49.335937 H 0.09375 V 39.681641 H 3.0898438 V 29.84375 H 0.09375 V 20.201172 H 3.0898438 V 10.359375 H 0.09375 Z"
         id="front_outsideCutPath"
         inkscape:power="50"
         inkscape:feed="50"
         inkscape:engrave="0" />
      <path
         style="color:#000000;fill:#000000;stroke-linecap:round;stroke-miterlimit:11.34;-inkscape-stroke:none"
         d="M 88.423828,-0.00585938 V 10.458984 h 2.996094 v 9.642578 h -2.996094 v 9.841797 h 2.996094 v 9.638672 H 88.423828 V 49.4375 h 2.996094 v 9.626953 h -2.996094 v 9.841797 h 2.996094 v 9.638672 h -2.996094 v 9.841797 h 2.996094 v 9.640625 h -2.996094 v 9.841796 h 2.996094 v 9.64258 h -2.996094 v 9.83789 h 2.996094 v 9.64062 h -2.996094 v 9.8418 h 2.996094 v 9.64844 h -2.996094 v 9.83984 h 2.996094 v 9.64063 h -2.996094 v 9.84179 h 2.996094 v 9.64258 h -2.996094 l -0.01172,10.45703 h 0.05078 8.15625 v -2.99804 h 9.642582 v 2.99804 h 8.20508 V 195.4375 h -2.99805 v -9.64258 h 2.99805 v -9.8418 h -2.99805 v -9.64062 h 2.99805 v -9.83203 h -2.99805 v -9.64844 h 2.99805 v -9.8418 h -2.99805 v -9.64062 h 2.99805 v -9.83789 h -2.99805 v -9.64258 h 2.99805 v -9.841796 h -2.99805 v -9.640625 h 2.99805 v -9.841797 h -2.99805 V 68.90625 h 2.99805 v -9.841797 h -2.99805 V 49.4375 h 2.99805 v -9.855469 h -2.99805 v -9.638672 h 2.99805 v -9.841797 h -2.99805 v -9.642578 h 2.99805 V -0.00585938 h -8.20508 V 2.9902344 H 96.628906 V -0.00585938 Z M 88.523437,0.09375 h 8.00586 v 2.9960938 h 9.832033 V 0.09375 h 8.00586 v 10.265625 h -3 v 9.841797 h 3 v 9.642578 h -3 v 9.837891 h 3 v 9.654296 h -3 v 9.828125 h 3 v 9.642579 h -3 v 9.83789 h 3 v 9.640625 h -3 v 9.841797 h 3 v 9.642577 h -3 v 9.8418 h 3 V 127.25 h -3 v 9.8418 h 3 v 9.64062 h -3 v 9.84961 h 3 v 9.63086 h -3 v 9.8418 h 3 v 9.64062 h -3 v 9.8418 h 3 v 10.26562 h -8.00586 v -3 h -9.841799 v 3 h -8.005859 l 0.0098,-10.25781 h 2.996094 v -9.8418 h -2.996094 v -9.64257 h 2.996094 v -9.8418 h -2.996094 v -9.63672 h 2.996094 v -9.84961 h -2.996094 v -9.64062 h 2.996094 V 127.25 h -2.996094 v -9.63867 h 2.996094 v -9.8418 h -2.996094 v -9.642577 h 2.996094 v -9.841797 h -2.996094 v -9.640625 h 2.996094 v -9.83789 h -2.996094 v -9.642579 h 2.996094 v -9.828125 h -2.996094 v -9.654296 h 2.996094 V 29.84375 h -2.996094 v -9.642578 h 2.996094 v -9.841797 h -2.996094 z"
         id="front_outsideCutPath-2"
         inkscape:power="50"
         inkscape:feed="50"
         inkscape:engrave="0" />
    </g>
  </g>
  <g
     inkscape:groupmode="layer"
     id="layer2"
     inkscape:power="35"
     inkscape:feed="40"
     inkscape:engrave="2"
     inkscape:label="CONTORNO">
    <g
       id="g23584"
       inkscape:power="50"
       inkscape:feed="50"
       inkscape:engrave="0">
      <path
         class="cls-2"
         d="m 69.599801,229.08987 5.727291,-3.29187 a 0.83882783,0.83882783 0 0 0 0.419414,-0.72604 v -0.8353 l -4.955428,2.75262 v -1.30054 l 2.819589,-1.63536 v -1.40979 l -2.791393,1.63536 v -1.4098 l 4.934281,-2.86188 v -1.48028 l -5.727291,3.29892 a 0.83177886,0.83177886 0 0 0 -0.419414,0.70489 z"
         id="path1320"
         inkscape:power="50"
         inkscape:feed="50"
         inkscape:engrave="0"
         style="stroke-width:0.352449" />
      <path
         class="cls-2"
         d="m 69.529311,221.48051 a 0.88112168,0.88112168 0 0 0 -0.44056,0.75776 v 7.14061 l 0.07754,0.0458 v -7.18643 a 0.80358297,0.80358297 0 0 1 0.401792,-0.7049 l 6.181949,-3.53506 -0.07754,-0.0458 z"
         id="path1322"
         inkscape:power="50"
         inkscape:feed="50"
         inkscape:engrave="0"
         style="stroke-width:0.352449" />
      <path
         class="cls-2"
         d="m 69.568081,214.35752 a 0.88464616,0.88464616 0 0 0 -0.877597,0 l -5.780159,3.32007 a 0.8740727,0.8740727 0 0 0 -0.44056,0.75776 v 6.63661 a 0.8740727,0.8740727 0 0 0 0.44056,0.75776 l 6.178426,3.54916 v -0.0846 l -6.139656,-3.52448 a 0.80710745,0.80710745 0 0 1 -0.401792,-0.7049 v -6.62956 a 0.80710745,0.80710745 0 0 1 0.401792,-0.7049 l 5.776633,-3.31654 a 0.80005848,0.80005848 0 0 1 0.803583,0 l 6.220719,3.5844 0.07402,-0.0458 z"
         id="path1324"
         inkscape:power="50"
         inkscape:feed="50"
         inkscape:engrave="0"
         style="stroke-width:0.352449" />
      <path
         class="cls-3"
         d="m 64.07693,224.6173 v -5.1387 l -0.327777,-0.19737 a 1.0855419,1.0855419 0 0 0 -0.144504,-0.10574 l -0.789485,-0.45466 v 6.05507 a 0.85997475,0.85997475 0 0 0 0.433512,0.74367 l 5.374842,3.08745 v -1.28996 z"
         id="path1326"
         inkscape:power="50"
         inkscape:feed="50"
         inkscape:engrave="0"
         style="stroke-width:0.352449" />
      <path
         class="cls-4"
         d="m 69.342514,219.75351 -0.500478,-0.28901 v 0 l -0.88817,-0.51105 2.713855,-1.5402 -1.057346,-0.60974 v 0 0 h 0.02115 l -2.678609,1.56487 -1.177179,-0.68022 4.377413,-2.52353 -0.704898,-0.4018 a 0.84587681,0.84587681 0 0 0 -0.842352,0 l -5.022394,2.87951 a 0.25728753,0.25728753 0 0 0 0,0.45113 l 5.610983,3.17204 1.356928,-0.78596 -1.127836,-0.6626 a 0.64145658,0.64145658 0 0 0 -0.08106,-0.0529"
         id="path1328"
         inkscape:power="50"
         inkscape:feed="50"
         inkscape:engrave="0"
         style="stroke-width:0.352449" />
      <path
         class="cls-5"
         d="m 88.082209,223.47184 a 0.70489734,0.70489734 0 0 1 0.352449,-0.59564 1.4415151,1.4415151 0 0 1 0.750716,-0.19032 h 0.148028 a 1.0890664,1.0890664 0 0 1 0.429988,0.12336 0.38064456,0.38064456 0 0 1 0.197371,0.35245 c 0,0.0352 0,0.067 0,0.10573 a 0.72604426,0.72604426 0 0 1 -0.02467,0.11278 h -0.623834 a 0.12688152,0.12688152 0 0 0 0,-0.0352 v -0.0317 a 0.16212639,0.16212639 0 0 0 -0.07049,-0.15508 0.32777726,0.32777726 0 0 0 -0.176224,-0.0458 h -0.03877 a 0.398267,0.398267 0 0 0 -0.186798,0.067 0.18327331,0.18327331 0 0 0 -0.08811,0.15508 c 0,0.0634 0.05992,0.1163 0.176224,0.16212 a 2.2979653,2.2979653 0 0 0 0.426463,0.12688 0.70489734,0.70489734 0 0 1 0.303106,0.13393 0.46875673,0.46875673 0 0 1 0.140979,0.18328 0.47228122,0.47228122 0 0 1 0.02467,0.0952 0.74366669,0.74366669 0 0 1 0,0.0881 0.76481361,0.76481361 0 0 1 -0.285484,0.57802 1.2829132,1.2829132 0 0 1 -0.863499,0.25376 0.8740727,0.8740727 0 0 1 -0.65203,-0.1727 0.57096685,0.57096685 0 0 1 -0.151553,-0.39474 v -0.0458 c 0,-0.0176 0,-0.0317 0,-0.0493 0,-0.0176 0,-0.0317 0,-0.0494 0,-0.0176 0,-0.0317 0,-0.0458 h 0.637932 c 0,0 0,0.0247 0,0.0352 v 0.0353 a 0.28195894,0.28195894 0 0 0 0.06344,0.19032 0.25728753,0.25728753 0 0 0 0.20442,0.074 h 0.07754 l 0.09164,-0.0247 a 0.43703635,0.43703635 0 0 0 0.148028,-0.0811 0.17269985,0.17269985 0 0 0 0.06696,-0.14451 v -0.0282 q 0,-0.074 -0.116308,-0.12688 a 2.114692,2.114692 0 0 0 -0.253763,-0.0916 l -0.1727,-0.0423 -0.13393,-0.0423 h -0.02115 l -0.06344,-0.0247 -0.07049,-0.0247 a 0.4758057,0.4758057 0 0 1 -0.169175,-0.13041 0.46523224,0.46523224 0 0 1 -0.07754,-0.29605 z"
         id="path1330"
         inkscape:power="50"
         inkscape:feed="50"
         inkscape:engrave="0"
         style="stroke-width:0.352449" />
      <path
         id="polygon1332"
         class="cls-5"
         transform="matrix(0.35244867,0,0,0.35244867,-0.00176224,-0.00176224)"
         style="fill:#1d1d1b"
         d="m 261.2,633.17 h -2.99 l -0.27,1.22 h 2.78 l -0.27,1.29 h -2.78 l -0.28,1.21 h 3.06 l -0.27,1.29 h -4.83 l 1.3,-6.22 h 4.83 z"
         inkscape:power="50"
         inkscape:feed="50"
         inkscape:engrave="0" />
      <path
         class="cls-5"
         d="m 92.325691,223.47184 a 0.70489734,0.70489734 0 0 1 0.352449,-0.59564 1.4309416,1.4309416 0 0 1 0.750716,-0.19032 h 0.151553 a 1.057346,1.057346 0 0 1 0.426463,0.12336 0.38064456,0.38064456 0 0 1 0.197371,0.35245 0.54981993,0.54981993 0 0 1 0,0.10573 0.72604426,0.72604426 0 0 1 -0.02467,0.11278 h -0.623834 a 0.12688152,0.12688152 0 0 0 0,-0.0352 c 0,0 0,-0.0247 0,-0.0317 a 0.17269985,0.17269985 0 0 0 -0.07401,-0.15508 0.32425278,0.32425278 0 0 0 -0.1727,-0.0458 h -0.04229 a 0.41236494,0.41236494 0 0 0 -0.186797,0.067 0.17974882,0.17974882 0 0 0 -0.08459,0.15508 c 0,0.0634 0.05639,0.1163 0.1727,0.16212 a 2.2979653,2.2979653 0 0 0 0.426463,0.12688 0.72956875,0.72956875 0 0 1 0.30663,0.13393 0.48990365,0.48990365 0 0 1 0.137455,0.18328 0.47228122,0.47228122 0 0 1 0.02467,0.0952 0.37359559,0.37359559 0 0 1 0,0.0881 0.76481361,0.76481361 0 0 1 -0.285483,0.57802 1.2758642,1.2758642 0 0 1 -0.863499,0.25376 0.8740727,0.8740727 0 0 1 -0.65203,-0.1727 0.57096685,0.57096685 0 0 1 -0.151553,-0.39474 v -0.0458 a 0.23261612,0.23261612 0 0 0 0,-0.0493 v -0.0494 c 0,0 0,-0.0317 0,-0.0458 h 0.627358 v 0.0705 a 0.2643365,0.2643365 0 0 0 0.06344,0.19032 0.25023856,0.25023856 0 0 0 0.200896,0.074 h 0.07754 l 0.09164,-0.0247 a 0.40531597,0.40531597 0 0 0 0.148029,-0.0811 0.17269985,0.17269985 0 0 0 0.06696,-0.14451 v -0.0282 c 0,-0.0494 -0.03877,-0.0916 -0.112784,-0.12688 a 2.1887062,2.1887062 0 0 0 -0.257287,-0.0916 l -0.169176,-0.0423 -0.137455,-0.0423 h -0.02115 a 0.2643365,0.2643365 0 0 0 -0.06344,-0.0247 l -0.07049,-0.0247 a 0.43703635,0.43703635 0 0 1 -0.165651,-0.13041 0.44408532,0.44408532 0 0 1 -0.07754,-0.29605 z"
         id="path1334"
         inkscape:power="50"
         inkscape:feed="50"
         inkscape:engrave="0"
         style="stroke-width:0.352449" />
      <path
         id="polygon1336"
         class="cls-5"
         transform="matrix(0.35244867,0,0,0.35244867,-0.00176224,-0.00176224)"
         style="fill:#1d1d1b"
         d="m 269.29,638.18 h -1.84 l 1.36,-6.22 h 1.77 z"
         inkscape:power="50"
         inkscape:feed="50"
         inkscape:engrave="0" />
      <path
         id="polygon1338"
         class="cls-5"
         transform="matrix(0.35244867,0,0,0.35244867,-0.00176224,-0.00176224)"
         style="fill:#1d1d1b"
         d="m 272.76,636.42 h -2.52 l 0.21,-1.15 h 2.51 z"
         inkscape:power="50"
         inkscape:feed="50"
         inkscape:engrave="0" />
      <path
         class="cls-5"
         d="m 96.544502,223.47184 a 0.70489734,0.70489734 0 0 1 0.352449,-0.59564 1.448564,1.448564 0 0 1 0.750715,-0.19032 h 0.151553 a 1.057346,1.057346 0 0 1 0.426463,0.12336 0.38769354,0.38769354 0 0 1 0.200896,0.35245 0.56391787,0.56391787 0 0 1 0,0.10573 0.72604426,0.72604426 0 0 1 -0.02467,0.11278 h -0.623834 a 0.12688152,0.12688152 0 0 0 0,-0.0352 c 0,0 0,-0.0247 0,-0.0317 a 0.17269985,0.17269985 0 0 0 -0.07401,-0.15508 0.32425278,0.32425278 0 0 0 -0.1727,-0.0458 h -0.03877 a 0.41236494,0.41236494 0 0 0 -0.190322,0.067 0.17974882,0.17974882 0 0 0 -0.08459,0.15508 c 0,0.0634 0.05639,0.1163 0.1727,0.16212 a 2.3860775,2.3860775 0 0 0 0.426463,0.12688 0.72956875,0.72956875 0 0 1 0.30663,0.13393 0.48990365,0.48990365 0 0 1 0.137455,0.18328 0.47228122,0.47228122 0 0 1 0.02467,0.0952 0.37359559,0.37359559 0 0 1 0,0.0881 0.76481361,0.76481361 0 0 1 -0.285483,0.57802 1.2758642,1.2758642 0 0 1 -0.863499,0.25376 0.88112168,0.88112168 0 0 1 -0.65203,-0.1727 0.57096685,0.57096685 0 0 1 -0.151553,-0.39474 v -0.0458 a 0.23261612,0.23261612 0 0 0 0,-0.0493 c 0,0 0,-0.0317 0,-0.0494 a 0.20794472,0.20794472 0 0 0 0,-0.0458 h 0.634407 v 0.0705 a 0.28195894,0.28195894 0 0 0 0.06344,0.19032 0.25376304,0.25376304 0 0 0 0.20442,0.074 h 0.07401 l 0.09164,-0.0247 a 0.38064456,0.38064456 0 0 0 0.148029,-0.0811 0.17269985,0.17269985 0 0 0 0.06696,-0.14451 v -0.0282 q 0,-0.074 -0.116308,-0.12688 a 1.7622434,1.7622434 0 0 0 -0.253763,-0.0916 l -0.169176,-0.0423 -0.137455,-0.0423 h -0.01762 l -0.06696,-0.0247 -0.06696,-0.0247 a 0.4229384,0.4229384 0 0 1 -0.169176,-0.13041 0.44408532,0.44408532 0 0 1 -0.07754,-0.29605 z"
         id="path1340"
         inkscape:power="50"
         inkscape:feed="50"
         inkscape:engrave="0"
         style="stroke-width:0.352449" />
      <path
         class="cls-5"
         d="m 99.705967,223.73265 a 0.35244867,0.35244867 0 0 0 0.239665,-0.0846 0.40179148,0.40179148 0 0 0 0.130408,-0.1868 c 0,0 0,-0.0247 0,-0.0388 a 0.11983255,0.11983255 0 0 0 0,-0.0353 0.17974882,0.17974882 0 0 0 -0.067,-0.14098 0.32425278,0.32425278 0 0 0 -0.218516,-0.0599 h -0.310155 l -0.123357,0.54982 z m -0.768339,-1.00095 h 1.029151 0.08106 0.0916 a 1.0749684,1.0749684 0 0 1 0.43703,0.11983 0.41236494,0.41236494 0 0 1 0.19738,0.39827 0.78243605,0.78243605 0 0 1 -0.30663,0.7049 1.2582418,1.2582418 0 0 1 -0.726051,0.21147 h -0.454658 l -0.165651,0.76128 h -0.63789 z"
         id="path1342"
         inkscape:power="50"
         inkscape:feed="50"
         inkscape:engrave="0"
         style="stroke-width:0.352449" />
      <path
         id="polygon1344"
         class="cls-4"
         transform="matrix(0.35244867,0,0,0.35244867,-0.00176224,-0.00176224)"
         style="fill:#e20613"
         d="m 223.83,623.48 h 2.63 v 1.25 h -2.63 v 3.12 h -1.36 v -7.28 h 4.63 v 1.25 h -3.27 z"
         inkscape:power="50"
         inkscape:feed="50"
         inkscape:engrave="0" />
      <path
         class="cls-4"
         d="m 80.997991,219.34819 -0.271385,0.8917 h 0.542771 z m 0.595638,1.93495 -0.186797,-0.60269 h -0.817681 l -0.186798,0.60269 h -0.514575 l 0.870548,-2.56231 h 0.47933 l 0.874073,2.56231 z"
         id="path1346"
         inkscape:power="50"
         inkscape:feed="50"
         inkscape:engrave="0"
         style="stroke-width:0.352449" />
      <path
         class="cls-4"
         d="m 82.908263,220.1553 v 0.7049 h 0.440561 c 0.27491,0 0.415889,-0.11279 0.415889,-0.35245 0,-0.23967 -0.140979,-0.35245 -0.415889,-0.35245 z m 0,-0.99743 v 0.55687 h 0.440561 c 0.200895,0 0.299581,-0.0775 0.299581,-0.27844 0,-0.20089 -0.10221,-0.27843 -0.313679,-0.27843 z m -0.475806,-0.43704 h 0.941038 a 0.65203004,0.65203004 0 0 1 0.736618,0.7049 0.51457506,0.51457506 0 0 1 -0.253763,0.47228 0.6097362,0.6097362 0 0 1 0.384169,0.62736 0.74366669,0.74366669 0 0 1 -0.849401,0.77186 h -0.958661 z"
         id="path1348"
         inkscape:power="50"
         inkscape:feed="50"
         inkscape:engrave="0"
         style="stroke-width:0.352449" />
      <path
         id="polygon1350"
         class="cls-4"
         transform="matrix(0.35244867,0,0,0.35244867,-0.00176224,-0.00176224)"
         style="fill:#e20613"
         d="m 249.53,626.6 h 3.1 v 1.25 h -4.46 v -7.28 h 1.36 z"
         inkscape:power="50"
         inkscape:feed="50"
         inkscape:engrave="0" />
      <path
         class="cls-4"
         d="m 90.429518,219.34819 -0.27491,0.8917 h 0.546295 z m 0.595638,1.93495 -0.186798,-0.60269 h -0.817681 l -0.190322,0.60269 H 89.31578 l 0.874072,-2.56231 h 0.479331 l 0.870548,2.56231 z"
         id="path1352"
         inkscape:power="50"
         inkscape:feed="50"
         inkscape:engrave="0"
         style="stroke-width:0.352449" />
      <path
         class="cls-4"
         d="m 92.339789,220.1553 v 0.7049 h 0.437037 c 0.278434,0 0.415889,-0.11279 0.415889,-0.35245 0,-0.23967 -0.137455,-0.35245 -0.415889,-0.35245 z m 0,-0.99743 v 0.55687 h 0.437037 c 0.20442,0 0.303106,-0.0775 0.303106,-0.27844 0,-0.20089 -0.102211,-0.27843 -0.31368,-0.27843 z m -0.47933,-0.43704 h 0.941038 a 0.65203004,0.65203004 0 0 1 0.740142,0.7049 0.51457506,0.51457506 0 0 1 -0.257287,0.47228 0.6097362,0.6097362 0 0 1 0.387693,0.62736 0.74366669,0.74366669 0 0 1 -0.849401,0.77186 h -0.962185 z"
         id="path1354"
         inkscape:power="50"
         inkscape:feed="50"
         inkscape:engrave="0"
         style="stroke-width:0.352449" />
      <path
         id="polygon1356"
         class="cls-4"
         transform="matrix(0.35244867,0,0,0.35244867,-0.00176224,-0.00176224)"
         style="fill:#e20613"
         d="m 279.45,621.82 h -3.16 v 1.53 h 2.53 v 1.24 h -2.53 v 2.01 h 3.27 v 1.25 h -4.63 v -7.28 h 4.52 z"
         inkscape:power="50"
         inkscape:feed="50"
         inkscape:engrave="0" />
      <path
         class="cls-4"
         d="m 100.02669,219.40106 a 0.40884046,0.40884046 0 0 0 -0.352444,-0.27139 0.23261612,0.23261612 0 0 0 -0.246714,0.23614 c 0,0.15861 0.176224,0.28196 0.387694,0.38065 0.310154,0.13393 0.704894,0.32425 0.704894,0.76834 a 0.75071567,0.75071567 0 0 1 -0.824727,0.79653 0.88464616,0.88464616 0 0 1 -0.884646,-0.7049 l 0.384169,-0.24319 c 0.10221,0.35245 0.267861,0.52163 0.511051,0.52163 a 0.2925324,0.2925324 0 0 0 0.352453,-0.33483 c 0,-0.14803 -0.162131,-0.26786 -0.380649,-0.35245 -0.306631,-0.12688 -0.704898,-0.32072 -0.704898,-0.79301 a 0.68727491,0.68727491 0 0 1 0.704898,-0.70489 0.76481361,0.76481361 0 0 1 0.743669,0.46523 z"
         id="path1358"
         inkscape:power="50"
         inkscape:feed="50"
         inkscape:engrave="0"
         style="stroke-width:0.352449" />
      <path
         class="cls-4"
         d="m 102.7194,219.57728 a 0.63440761,0.63440761 0 0 0 -0.63793,-0.44761 0.70489734,0.70489734 0 0 0 -0.52515,0.22205 1.1313602,1.1313602 0 0 0 0,1.29701 0.68375042,0.68375042 0 0 0 0.52515,0.22556 0.63440761,0.63440761 0 0 0 0.63793,-0.44761 l 0.42999,0.10926 a 1.0044787,1.0044787 0 0 1 -1.05735,0.77539 1.1912765,1.1912765 0 0 1 -0.8635,-0.35245 1.4943824,1.4943824 0 0 1 0,-1.92789 1.194801,1.194801 0 0 1 0.8635,-0.35245 1.0044787,1.0044787 0 0 1 1.05735,0.77891 z"
         id="path1360"
         inkscape:power="50"
         inkscape:feed="50"
         inkscape:engrave="0"
         style="stroke-width:0.352449" />
      <path
         class="cls-4"
         d="m 104.72131,219.12967 a 0.70489734,0.70489734 0 0 0 -0.52162,0.21852 1.1278357,1.1278357 0 0 0 0,1.30406 0.70489734,0.70489734 0 0 0 0.52162,0.22204 0.68022593,0.68022593 0 0 0 0.52163,-0.22204 1.1278357,1.1278357 0 0 0 0,-1.30406 0.70489734,0.70489734 0 0 0 -0.52163,-0.21852 m 0,-0.44056 a 1.1137378,1.1137378 0 0 1 1.05735,0.58154 1.469711,1.469711 0 0 1 0.1727,0.72957 1.2723397,1.2723397 0 0 1 -0.60974,1.17718 1.3216825,1.3216825 0 0 1 -0.60621,0.13393 1.1137378,1.1137378 0 0 1 -1.05735,-0.57801 1.4450395,1.4450395 0 0 1 -0.1727,-0.7331 1.2476683,1.2476683 0 0 1 0.61326,-1.17013 1.3111091,1.3111091 0 0 1 0.60269,-0.14098"
         id="path1362"
         inkscape:power="50"
         inkscape:feed="50"
         inkscape:engrave="0"
         style="stroke-width:0.352449" />
      <path
         id="polygon1364"
         class="cls-4"
         transform="matrix(0.35244867,0,0,0.35244867,-0.00176224,-0.00176224)"
         style="fill:#e20613"
         d="m 303.12,626.6 h 3.1 v 1.25 h -4.46 v -7.28 h 1.36 z"
         inkscape:power="50"
         inkscape:feed="50"
         inkscape:engrave="0" />
      <path
         class="cls-4"
         d="m 109.30314,219.34819 -0.27138,0.8917 h 0.54277 z m 0.59564,1.93495 -0.1868,-0.60269 h -0.81768 l -0.18679,0.60269 h -0.51458 l 0.87055,-2.56231 h 0.47933 l 0.87407,2.56231 z"
         id="path1366"
         inkscape:power="50"
         inkscape:feed="50"
         inkscape:engrave="0"
         style="stroke-width:0.352449" />
      <path
         class="cls-4"
         d="m 86.182511,220.13768 a 0.27843445,0.27843445 0 0 1 -0.281959,0.27843 0.278435,0.278435 0 0 1 0,-0.55687 0.28195894,0.28195894 0 0 1 0.281959,0.27844"
         id="path1368"
         inkscape:power="50"
         inkscape:feed="50"
         inkscape:engrave="0"
         style="stroke-width:0.352449" />
      <path
         class="cls-4"
         d="m 95.557646,220.13768 a 0.28195894,0.28195894 0 1 1 -0.281959,-0.27844 0.27843445,0.27843445 0 0 1 0.281959,0.27844"
         id="path1370"
         inkscape:power="50"
         inkscape:feed="50"
         inkscape:engrave="0"
         style="stroke-width:0.352449" />
    </g>
    <path
       class="cls-6"
       d="m 6.0709283,227.04567 c 0,-0.074 0,-0.12688 0,-0.17975 0,-0.62736 0,-1.25824 0,-1.8856 0,-0.15155 0.049343,-0.18327 0.1726999,-0.18327 0.8846462,0 1.7622433,0 2.6468895,0 h 0.2220427 v -0.42646 H 6.0674039 c 0,-0.0916 0,-0.15508 0,-0.21852 0,-0.63793 0,-1.27234 0,-1.90675 0,-0.17975 0.035245,-0.23967 0.2079447,-0.23614 0.8705482,0 1.7410964,0 2.6116446,0 h 0.2255672 v -0.42999 H 6.0709283 c 0,-0.074 0,-0.12688 0,-0.18327 0,-0.64498 0,-1.29349 0,-1.93847 0,-0.15155 0.038769,-0.19737 0.1797489,-0.19737 0.8811216,0 1.7622433,0 2.643365,0 h 0.2220427 v -0.41589 H 6.0744528 c 0,-0.067 -0.017622,-0.11983 -0.017622,-0.1727 0,-0.63441 0,-1.26881 0,-1.90322 0,-0.15156 0.052867,-0.17975 0.1762243,-0.17975 h 2.8654077 v -0.42294 H 6.0674039 c 0,-0.0775 0,-0.13393 0,-0.1868 0,-0.64498 0,-1.29348 0,-1.93846 0,-0.14098 0.035245,-0.20795 0.1691753,-0.1868 a 1.0361991,1.0361991 0 0 0 0.1480285,0 H 50.687405 c 0.317204,0 0.317204,0 0.317204,0.35245 v 1.95609 h -3.027534 v 0.43351 h 3.020485 v 2.2451 h -3.020485 v 0.42646 h 0.214994 c 0.874073,0 1.762243,0 2.629267,0 0.151553,0 0.197371,0.0458 0.193847,0.21499 0,0.63441 0,1.26882 0,1.90323 0,0.0599 0,0.11983 0,0.19737 h -3.038108 v 0.43351 h 0.218518 c 0.877598,0 1.762244,0 2.629267,0 0.14098,0 0.193847,0.0352 0.190323,0.20089 0,0.65556 0,1.30759 0,1.95962 v 0.19032 H 47.977075 V 224.79 c 0.07049,0 0.14098,0 0.211469,0 0.881122,0 1.762244,0 2.643365,0 0.148029,0 0.190323,0.0423 0.186798,0.20442 0,0.67318 0,1.34283 0,2.04068 h -3.009911 c -0.02115,0.0317 -0.02467,0.0388 -0.02467,0.0423 -0.05639,0.38769 -0.04934,0.39827 0.303106,0.39827 h 2.724428 c 0,0.0846 0,0.15155 0,0.21499 0,0.61679 0,1.23357 0,1.85036 0,0.18327 -0.04934,0.24319 -0.20442,0.21852 a 1.0890664,1.0890664 0 0 0 -0.151553,0 H 6.3528873 c -0.3524487,0 -0.2960569,0.0493 -0.2960569,-0.33131 0,-0.56744 0,-1.13488 0,-1.70232 v -0.23967 h 3.048681 a 2.3296857,2.3296857 0 0 0 0,-0.35245 0.16917536,0.16917536 0 0 0 -0.130406,-0.0846 c -0.3136793,0 -0.6308831,0 -0.9480869,0 H 6.0709283 Z m 28.0267187,-2.77025 v 0 c -0.962185,0 -1.920846,0 -2.879506,0 -0.03877,0 -0.105735,0.0811 -0.112784,0.13041 a 9.3610367,9.3610367 0 0 0 -0.07049,1.0362 2.5305815,2.5305815 0 0 0 1.586019,2.46714 5.4136116,5.4136116 0 0 0 1.638886,0.38064 7.3027364,7.3027364 0 0 0 3.936852,-0.6344 4.229384,4.229384 0 0 0 2.46714,-3.46105 c 0.133931,-1.09259 -0.20442,-1.98428 -1.011527,-2.51296 a 3.1085973,3.1085973 0 0 0 -0.704898,-0.35245 c -0.65203,-0.21499 -1.318158,-0.38064 -1.970188,-0.59563 a 6.0339212,6.0339212 0 0 1 -1.159556,-0.47581 0.8740727,0.8740727 0 0 1 -0.200896,-1.36045 1.5014313,1.5014313 0 0 1 0.267861,-0.27139 1.6988026,1.6988026 0 0 1 1.64946,-0.27138 0.96570936,0.96570936 0 0 1 0.659079,1.17718 c 0,0.0458 0,0.0916 0,0.15507 h 2.657463 c 0.352449,0 0.352449,0 0.422939,-0.38417 0.264336,-1.40979 -0.260813,-2.46714 -1.497907,-2.98171 a 5.0893588,5.0893588 0 0 0 -1.624789,-0.35245 7.1265121,7.1265121 0 0 0 -3.439899,0.47933 4.1729923,4.1729923 0 0 0 -2.565826,3.62317 2.3050143,2.3050143 0 0 0 1.254717,2.40723 16.381814,16.381814 0 0 0 2.597547,0.89169 5.9105642,5.9105642 0 0 1 1.036199,0.43351 0.80005848,0.80005848 0 0 1 0.387694,0.78949 1.180703,1.180703 0 0 1 -0.504002,0.95866 2.1710838,2.1710838 0 0 1 -2.068874,0.3172 1.057346,1.057346 0 0 1 -0.743666,-0.89522 4.9342814,4.9342814 0 0 1 -0.007,-0.69785 z m -20.829717,0 h -0.02115 c -0.962185,0 -1.920845,0 -2.879505,0 -0.03877,0 -0.10221,0.0705 -0.109259,0.11279 a 7.6728075,7.6728075 0 0 0 -0.08106,0.85292 2.7350017,2.7350017 0 0 0 0.704898,2.06888 3.0980238,3.0980238 0 0 0 1.543725,0.81063 7.9124726,7.9124726 0 0 0 3.059254,0.0987 5.8788438,5.8788438 0 0 0 2.438945,-0.91285 4.1518453,4.1518453 0 0 0 1.906747,-3.78177 2.1851818,2.1851818 0 0 0 -0.736617,-1.63536 3.6725151,3.6725151 0 0 0 -1.385124,-0.72957 c -0.704897,-0.215 -1.409794,-0.39827 -2.114692,-0.62384 a 2.7702465,2.7702465 0 0 1 -0.704897,-0.35244 0.80005848,0.80005848 0 0 1 -0.289008,-0.93047 1.2053745,1.2053745 0 0 1 0.437037,-0.62383 1.7058516,1.7058516 0 0 1 1.536676,-0.32073 c 0.623834,0.15155 0.874072,0.55687 0.782436,1.25119 a 0.62735863,0.62735863 0 0 0 0,0.11983 h 2.622218 c 0.387693,0 0.387693,0 0.461708,-0.41941 0.250238,-1.40979 -0.281959,-2.43894 -1.490858,-2.93942 a 5.0858343,5.0858343 0 0 0 -1.656509,-0.35245 7.1652815,7.1652815 0 0 0 -3.436375,0.47933 4.1447964,4.1447964 0 0 0 -2.534105,3.59498 c -0.102211,1.00095 0.264336,1.94904 1.237094,2.41427 a 2.8724567,2.8724567 0 0 0 0.352449,0.16213 c 0.75424,0.25023 1.50848,0.48285 2.259196,0.73661 a 7.1934774,7.1934774 0 0 1 1.022101,0.42647 0.81768091,0.81768091 0 0 1 0.401792,0.8353 1.1842275,1.1842275 0 0 1 -0.489904,0.91284 2.1675593,2.1675593 0 0 1 -2.079447,0.32778 1.1137378,1.1137378 0 0 1 -0.768338,-1.11374 4.1412719,4.1412719 0 0 1 0.01057,-0.46171 z m 7.493059,3.80293 h 8.071074 c 0.148029,0 0.21147,-0.0458 0.236141,-0.21147 0.04934,-0.32426 0.123357,-0.64498 0.183273,-0.96571 0.07401,-0.3736 0.144504,-0.74719 0.222043,-1.14899 h -5.247961 c 0.162127,-0.8494 0.320729,-1.6706 0.482855,-2.50238 h 4.66642 c 0.119833,0 0.176225,-0.0317 0.200896,-0.1727 0.07754,-0.45466 0.169176,-0.90579 0.257288,-1.36045 0.04934,-0.25377 0.09868,-0.50753 0.151553,-0.79301 h -4.814449 a 1.0925909,1.0925909 0 0 1 0,-0.13746 c 0.137455,-0.70489 0.278434,-1.39217 0.401791,-2.09002 0.03172,-0.17975 0.10221,-0.21499 0.253763,-0.21499 q 2.350833,0 4.708715,0 c 0.334826,0 0.334826,0 0.405316,-0.35245 0.126881,-0.64146 0.250238,-1.28644 0.37712,-1.95961 h -8.071075 c -0.130406,0 -0.193847,0.0282 -0.218518,0.18679 -0.08459,0.49696 -0.190322,0.99038 -0.285484,1.48381 l -1.786914,9.22358 c -0.06344,0.31016 -0.116308,0.63794 -0.193847,1.01506 z m 20.812094,-0.0176 a 0.70489734,0.70489734 0 0 0 0.119832,0.0176 h 2.759674 c 0.123357,0 0.144503,-0.067 0.162126,-0.17623 q 1.025626,-5.30788 2.0583,-10.61223 c 0.07049,-0.35245 0.137455,-0.72604 0.207945,-1.09611 a 0.53219749,0.53219749 0 0 0 -0.109259,-0.0212 h -2.777296 c -0.105734,0 -0.13393,0.0529 -0.151553,0.14803 -0.06697,0.35245 -0.13393,0.7049 -0.20442,1.05734 l -1.7129,8.84647 z"
       id="path1373"
       inkscape:power="50"
       inkscape:feed="50"
       inkscape:engrave="0"
       style="stroke-width:0.352449" />
    <g
       id="g39272"
       inkscape:power="50"
       inkscape:feed="50"
       inkscape:engrave="0">
      <g
         id="g32472"
         inkscape:power="50"
         inkscape:feed="50"
         inkscape:engrave="0">
        <path
           d="m 16.256695,114.78725 a 1.1278357,1.1278357 0 0 0 -0.482855,-0.59917 0.93398898,0.93398898 0 0 0 -1.279388,0.40179 0.85645027,0.85645027 0 0 0 0,0.7049 1.1454582,1.1454582 0 0 0 0.232616,0.40884 0.68375042,0.68375042 0 0 0 0.292532,0.2009 1.4097947,1.4097947 0 0 0 0.380645,0.074 l 0.419414,0.0317 a 0.31367932,0.31367932 0 0 1 0.197371,0.10574 0.63088312,0.63088312 0 0 1 0.148028,0.23966 0.47228122,0.47228122 0 0 1 -0.02467,0.37007 0.53572198,0.53572198 0 0 1 -0.320728,0.28196 1.0291501,1.0291501 0 0 1 -0.525149,0.0352 1.7974882,1.7974882 0 0 1 -0.62031,-0.22557 2.1393634,2.1393634 0 0 1 -0.599162,-0.5181 2.8195894,2.8195894 0 0 1 -0.454659,-0.82473 2.5482039,2.5482039 0 0 1 -0.183273,-0.81416 1.8644535,1.8644535 0 0 1 0.109259,-0.72252 1.5683966,1.5683966 0 0 1 0.352448,-0.57096 1.5437252,1.5437252 0 0 1 0.567443,-0.35245 1.4732354,1.4732354 0 0 1 0.814156,-0.0811 2.657463,2.657463 0 0 1 0.800059,0.3172 2.5834488,2.5834488 0 0 1 0.207944,-0.72252 1.8292086,1.8292086 0 0 1 0.391218,-0.53572 1.723474,1.723474 0 0 1 0.570967,-0.35245 2.0301043,2.0301043 0 0 1 0.821206,-0.11631 2.0653492,2.0653492 0 0 1 0.828254,0.22557 2.3684551,2.3684551 0 0 1 0.704897,0.56744 2.6786099,2.6786099 0 0 1 0.528673,0.88465 2.3684551,2.3684551 0 0 1 0.155078,1.00095 2.3155878,2.3155878 0 0 1 -0.218518,0.84588 2.2662449,2.2662449 0 0 1 -0.433512,0.59916 1.2793887,1.2793887 0 0 1 -0.444086,0.3172 0.57449133,0.57449133 0 0 1 -0.465232,0 0.59211377,0.59211377 0 0 1 -0.299581,-0.35245 0.43703635,0.43703635 0 0 1 0,-0.26081 0.38769354,0.38769354 0 0 1 0.116308,-0.21147 3.0169606,3.0169606 0 0 0 0.704897,-0.8071 0.95866038,0.95866038 0 0 0 0.0282,-0.83178 1.1701296,1.1701296 0 0 0 -1.522578,-0.67318 1.1701296,1.1701296 0 0 0 -0.704898,0.56744 1.0820174,1.0820174 0 0 0 0,0.8776 c 0.02115,0.0564 0.05639,0.1445 0.112784,0.26081 a 2.1992797,2.1992797 0 0 1 0.10221,0.22909 0.56391787,0.56391787 0 0 1 0.01762,0.41237 0.47228122,0.47228122 0 0 1 -0.285484,0.25024 0.44408532,0.44408532 0 0 1 -0.394742,-0.0352 0.77891156,0.77891156 0 0 1 -0.296057,-0.41589 z"
           id="path1376"
           inkscape:power="50"
           inkscape:feed="50"
           inkscape:engrave="0"
           style="stroke-width:0.352449" />
        <path
           d="m 15.928918,110.54729 -2.023056,0.89522 c -0.398267,0.1727 -0.68375,0.29253 -0.859974,0.35245 a 0.82825437,0.82825437 0 0 1 -0.627359,0.0176 0.70489734,0.70489734 0 0 1 -0.384169,-0.42294 0.528673,0.528673 0 0 1 0.07754,-0.59211 1.85388,1.85388 0 0 1 0.704897,-0.39827 6.0938375,6.0938375 0 0 1 0.592114,-0.17975 l 2.202804,-0.59211 a 1.8327331,1.8327331 0 0 1 0.634407,-0.0846 0.35244867,0.35244867 0 0 1 0.324253,0.25729 0.35244867,0.35244867 0 0 1 -0.08106,0.39826 2.114692,2.114692 0 0 1 -0.560393,0.34893 z m 2.67861,-1.51906 a 0.72956875,0.72956875 0 0 1 0,0.52515 0.63440761,0.63440761 0 0 1 -0.408841,0.37007 0.64850555,0.64850555 0 0 1 -0.532197,-0.0211 0.70489734,0.70489734 0 0 1 -0.352449,-0.92694 0.65907901,0.65907901 0 0 1 0.387693,-0.35245 0.64498107,0.64498107 0 0 1 0.54982,0.0211 0.70489734,0.70489734 0 0 1 0.355974,0.38417 z"
           id="path1378"
           inkscape:power="50"
           inkscape:feed="50"
           inkscape:engrave="0"
           style="stroke-width:0.352449" />
        <path
           d="m 15.104188,102.5608 0.40884,1.12079 -1.652984,0.59916 0.606212,1.66003 -1.13841,0.41589 -0.595638,-1.66003 -1.660033,0.60269 -0.40884,-1.11727 1.660033,-0.60621 -0.613261,-1.67413 1.134885,-0.41236 0.609736,1.66708 z"
           id="path1380"
           inkscape:power="50"
           inkscape:feed="50"
           inkscape:engrave="0"
           style="stroke-width:0.352449" />
        <path
           d="M 10.448341,97.61947 A 2.0688737,2.0688737 0 0 1 9.6941007,97.168336 1.8820759,1.8820759 0 0 1 9.2429664,96.463439 2.0124819,2.0124819 0 0 1 9.1196093,95.645758 1.977237,1.977237 0 0 1 9.334603,94.87742 a 2.0900206,2.0900206 0 0 1 0.5251485,-0.648506 2.5023856,2.5023856 0 0 1 1.9631395,-0.563918 2.114692,2.114692 0 0 1 1.057346,0.500477 2.4671407,2.4671407 0 0 1 0.704897,1.029151 2.2274756,2.2274756 0 0 1 -0.655555,2.579924 4.9342814,4.9342814 0 0 1 -1.607165,0.88817 6.3017822,6.3017822 0 0 1 -1.5261032,0.352449 3.3588358,3.3588358 0 0 1 -1.2476683,-0.09516 2.1887062,2.1887062 0 0 1 -0.919891,-0.535722 2.4988611,2.4988611 0 0 1 -0.5921138,-0.948087 2.2556715,2.2556715 0 0 1 -0.137455,-1.057346 1.7622434,1.7622434 0 0 1 0.3066304,-0.831779 1.1842275,1.1842275 0 0 1 0.5357219,-0.437036 0.49342814,0.49342814 0 0 1 0.3735956,0.01762 0.46523224,0.46523224 0 0 1 0.267861,0.289008 0.59916274,0.59916274 0 0 1 0,0.37712 0.70489734,0.70489734 0 0 1 -0.2361406,0.352449 0.95866038,0.95866038 0 0 0 -0.3031058,0.468757 0.87759719,0.87759719 0 0 0 0.024671,0.560393 0.96923384,0.96923384 0 0 0 0.2995813,0.408841 1.2335703,1.2335703 0 0 0 0.4969527,0.253763 q 0.5815403,0.155077 1.7833908,-0.218519 z m 2.266245,-2.149937 a 0.93751346,0.93751346 0 0 0 -0.62031,-0.592113 1.5402007,1.5402007 0 0 0 -1.057346,0.05287 1.7269985,1.7269985 0 0 0 -0.630883,0.384169 1.0890664,1.0890664 0 0 0 -0.299581,0.525149 1.0221011,1.0221011 0 0 0 0.03877,0.570966 1.1137378,1.1137378 0 0 0 0.331302,0.461708 1.1595561,1.1595561 0 0 0 0.556869,0.24319 1.4097947,1.4097947 0 0 0 0.704897,-0.08106 1.6635577,1.6635577 0 0 0 0.863499,-0.659079 0.98685628,0.98685628 0 0 0 0.130406,-0.905794 z"
           id="path1382"
           inkscape:power="50"
           inkscape:feed="50"
           inkscape:engrave="0"
           style="stroke-width:0.352449" />
        <path
           d="m 9.4332887,92.702811 -2.0265799,0.89522 c -0.3947425,0.1727 -0.6802259,0.289008 -0.8564503,0.352449 a 0.84235232,0.84235232 0 0 1 -0.6273586,0 0.70489734,0.70489734 0 0 1 -0.384169,-0.422939 0.53219749,0.53219749 0 0 1 0.077539,-0.592113 1.8080617,1.8080617 0 0 1 0.7048973,-0.394743 6.1008865,6.1008865 0 0 1 0.5921138,-0.183273 l 2.2028042,-0.592114 a 1.8151107,1.8151107 0 0 1 0.6344076,-0.08106 0.35244867,0.35244867 0 0 1 0.3242522,0.253763 0.35244867,0.35244867 0 0 1 -0.081063,0.398267 2.0336288,2.0336288 0 0 1 -0.5603933,0.366546 z m 2.6786103,-1.519053 a 0.70489734,0.70489734 0 0 1 0,0.521624 0.63793209,0.63793209 0 0 1 -0.408841,0.373595 0.68022593,0.68022593 0 0 1 -0.881122,-0.415889 0.70489734,0.70489734 0 0 1 0.01762,-0.535722 0.66965247,0.66965247 0 0 1 0.387693,-0.352449 0.64850555,0.64850555 0 0 1 0.54982,0.02115 0.70489734,0.70489734 0 0 1 0.334827,0.387694 z"
           id="path1384"
           inkscape:power="50"
           inkscape:feed="50"
           inkscape:engrave="0"
           style="stroke-width:0.352449" />
      </g>
      <g
         id="g33417"
         inkscape:power="50"
         inkscape:feed="50"
         inkscape:engrave="0">
        <path
           d="m 12.732208,49.598339 a 2.5869732,2.5869732 0 0 1 -0.553344,-0.852926 2.8195894,2.8195894 0 0 1 -0.179749,-1.02915 3.0099116,3.0099116 0 0 1 0.162126,-1.008003 2.5341059,2.5341059 0 0 1 0.468757,-0.810632 2.0723982,2.0723982 0 0 1 2.756149,-0.352449 2.4424693,2.4424693 0 0 1 0.831779,1.022102 3.5808785,3.5808785 0 0 1 0.299581,1.501431 3.446948,3.446948 0 0 1 -0.380645,1.670607 2.4671407,2.4671407 0 0 1 -1.120786,1.057346 3.9791455,3.9791455 0 0 1 -1.811587,0.373595 5.0576384,5.0576384 0 0 1 -1.561347,-0.225567 2.9499954,2.9499954 0 0 1 -1.141934,-0.644981 2.6292671,2.6292671 0 0 1 -0.6837503,-1.015052 3.7500538,3.7500538 0 0 1 -0.2326161,-1.363977 3.3658848,3.3658848 0 0 1 0.2326161,-1.297011 2.1358389,2.1358389 0 0 1 0.5709673,-0.845876 1.057346,1.057346 0 0 1 0.655554,-0.281959 0.44408532,0.44408532 0 0 1 0.352449,0.176224 0.67670145,0.67670145 0 0 1 0.155077,0.454659 0.86349924,0.86349924 0 0 1 -0.123357,0.44761 0.75071567,0.75071567 0 0 1 -0.352449,0.30663 1.0044787,1.0044787 0 0 0 -0.447609,0.419414 1.2793887,1.2793887 0 0 0 -0.165651,0.666128 1.4450395,1.4450395 0 0 0 0.137455,0.606211 1.4908579,1.4908579 0 0 0 0.384169,0.507527 q 0.493428,0.444085 1.748145,0.518099 z m 2.872457,-1.554299 a 1.3005356,1.3005356 0 0 0 -0.384169,-0.95866 1.3569274,1.3569274 0 0 0 -1.000954,-0.380644 1.4097947,1.4097947 0 0 0 -0.704898,0.179748 1.20185,1.20185 0 0 0 -0.461708,0.486379 1.4943824,1.4943824 0 0 0 -0.158601,0.687275 1.5824945,1.5824945 0 0 0 0.151553,0.680226 1.2970111,1.2970111 0 0 0 0.44056,0.521624 1.1595561,1.1595561 0 0 0 0.676702,0.200896 1.4097947,1.4097947 0 0 0 1.036199,-0.405316 1.3428294,1.3428294 0 0 0 0.40884,-1.011528 z"
           id="path1386"
           inkscape:power="50"
           inkscape:feed="50"
           inkscape:engrave="0"
           style="stroke-width:0.352449" />
        <path
           d="m 15.816134,40.610898 h -0.859975 v 2.886555 a 1.3710253,1.3710253 0 0 1 -0.200895,0.817681 0.63088312,0.63088312 0 0 1 -0.539247,0.274909 0.47228122,0.47228122 0 0 1 -0.179749,-0.03877 0.77538707,0.77538707 0 0 1 -0.186798,-0.123357 c -0.06696,-0.05287 -0.130406,-0.109259 -0.193846,-0.165651 L 13.430057,44.050797 10.152284,41.002116 A 4.2575799,4.2575799 0 0 1 9.6835272,40.512212 0.7683381,0.7683381 0 0 1 9.5390233,40.04698 c 0,-0.58154 0.2678609,-0.874073 0.8035827,-0.874073 h 3.577354 v -0.246714 a 2.1605103,2.1605103 0 0 1 0.09516,-0.704897 0.40531597,0.40531597 0 0 1 0.426463,-0.267861 0.41588943,0.41588943 0 0 1 0.391218,0.218518 1.3780743,1.3780743 0 0 1 0.123357,0.655555 v 0.352448 h 0.859975 a 0.67317696,0.67317696 0 0 1 0.528673,0.197372 0.7683381,0.7683381 0 0 1 0.1727,0.521624 0.75071567,0.75071567 0 0 1 -0.179749,0.521624 0.66612799,0.66612799 0 0 1 -0.521623,0.190322 z m -1.896174,2.467141 v -2.467141 h -2.685659 z"
           id="path1388"
           inkscape:power="50"
           inkscape:feed="50"
           inkscape:engrave="0"
           style="stroke-width:0.352449" />
        <path
           d="m 13.465301,36.40971 -2.213377,0.183273 c -0.429988,0.03525 -0.740142,0.05287 -0.92694,0.05287 a 0.75071567,0.75071567 0 0 1 -0.5991629,-0.250238 0.97628282,0.97628282 0 0 1 -0.2149937,-0.659079 0.70489734,0.70489734 0 0 1 0.2749099,-0.662604 1.5648721,1.5648721 0 0 1 0.7930097,-0.16565 5.3290239,5.3290239 0 0 1 0.620309,0.03877 l 2.276819,0.250238 a 1.4661865,1.4661865 0 0 1 0.623834,0.1727 0.47228122,0.47228122 0 0 1 0.218518,0.437037 0.45465878,0.45465878 0 0 1 -0.211469,0.429987 1.7622434,1.7622434 0 0 1 -0.641457,0.1727 z m 3.041632,-0.637932 a 1.0221011,1.0221011 0 0 1 -0.183273,0.609736 0.57801582,0.57801582 0 0 1 -0.507526,0.264336 0.6097362,0.6097362 0 0 1 -0.489904,-0.250238 1.057346,1.057346 0 0 1 0,-1.230046 0.61326069,0.61326069 0 0 1 0.99743,0 1.0115277,1.0115277 0 0 1 0.183273,0.606212 z"
           id="path1390"
           inkscape:power="50"
           inkscape:feed="50"
           inkscape:engrave="0"
           style="stroke-width:0.352449" />
      </g>
      <g
         id="g33942"
         inkscape:power="50"
         inkscape:feed="50"
         inkscape:engrave="0">
        <path
           d="m 17.45502,17.923777 -3.9439,1.437991 q 1.240619,0.793009 1.381599,1.173654 a 0.47228122,0.47228122 0 0 1 -0.02467,0.37712 0.5040016,0.5040016 0 0 1 -0.285483,0.260812 0.40179148,0.40179148 0 0 1 -0.37712,-0.01762 3.5526826,3.5526826 0 0 1 -0.44761,-0.394742 3.8099701,3.8099701 0 0 0 -0.82473,-0.648506 3.7359559,3.7359559 0 0 0 -0.814156,-0.331301 4.5430634,4.5430634 0 0 1 -0.528673,-0.165651 0.39474251,0.39474251 0 0 1 -0.179749,-0.246714 0.47228122,0.47228122 0 0 1 0.04229,-0.433512 0.81415643,0.81415643 0 0 1 0.44056,-0.317204 l 4.962478,-1.811586 c 0.58154,-0.211469 0.944562,-0.119833 1.089066,0.278434 a 0.57801582,0.57801582 0 0 1 -0.02467,0.489904 0.82472989,0.82472989 0 0 1 -0.465233,0.348924 z"
           id="path1392"
           inkscape:power="50"
           inkscape:feed="50"
           inkscape:engrave="0"
           style="stroke-width:0.352449" />
        <path
           d="m 12.319843,13.902338 a 1.1313602,1.1313602 0 0 0 -0.486379,-0.599163 0.85997475,0.85997475 0 0 0 -0.775387,-0.04582 0.86349924,0.86349924 0 0 0 -0.507526,1.145458 1.2617662,1.2617662 0 0 0 0.232616,0.40884 0.70489734,0.70489734 0 0 0 0.296057,0.200896 1.3498784,1.3498784 0 0 0 0.380645,0.07401 l 0.415889,0.03172 a 0.31367932,0.31367932 0 0 1 0.200896,0.105734 0.63088312,0.63088312 0 0 1 0.148028,0.239665 0.48637916,0.48637916 0 0 1 -0.02467,0.352449 0.53219749,0.53219749 0 0 1 -0.324253,0.281959 1.0115277,1.0115277 0 0 1 -0.521624,0.03524 1.7622434,1.7622434 0 0 1 -0.62031,-0.225567 2.0900206,2.0900206 0 0 1 -0.599162,-0.5181 2.8195894,2.8195894 0 0 1 -0.4546593,-0.82473 2.5552529,2.5552529 0 0 1 -0.1656508,-0.775387 1.9314187,1.9314187 0 0 1 0.1127835,-0.72252 1.5683966,1.5683966 0 0 1 0.3524487,-0.570966 1.5437252,1.5437252 0 0 1 0.5674419,-0.352449 1.4732354,1.4732354 0 0 1 0.814157,-0.08106 2.657463,2.657463 0 0 1 0.800058,0.317204 2.5834488,2.5834488 0 0 1 0.218519,-0.736618 1.6706067,1.6706067 0 0 1 0.391218,-0.535722 1.723474,1.723474 0 0 1 0.570966,-0.352449 2.0230554,2.0230554 0 0 1 0.821206,-0.116308 2.0477268,2.0477268 0 0 1 0.82473,0.225567 2.3402592,2.3402592 0 0 1 0.704897,0.567443 2.7420507,2.7420507 0 0 1 0.500477,0.874072 2.4248468,2.4248468 0 0 1 0.155078,1.000955 2.2662449,2.2662449 0 0 1 -0.222043,0.845876 2.1851818,2.1851818 0 0 1 -0.429987,0.613261 1.2793887,1.2793887 0 0 1 -0.444086,0.317204 0.57449133,0.57449133 0 0 1 -0.465232,0 0.6097362,0.6097362 0 0 1 -0.303106,-0.352449 0.46523224,0.46523224 0 0 1 0,-0.260812 0.35244867,0.35244867 0 0 1 0.116308,-0.211469 3.1473666,3.1473666 0 0 0 0.704898,-0.807108 0.97275833,0.97275833 0 0 0 0.02819,-0.831778 1.187752,1.187752 0 0 0 -0.320728,-0.472282 1.1419337,1.1419337 0 0 0 -0.518099,-0.267861 1.3216825,1.3216825 0 0 0 -1.356928,0.623835 1.0961154,1.0961154 0 0 0 0,0.877597 c 0.02115,0.05639 0.05992,0.144504 0.116308,0.260812 0.05639,0.116308 0.08811,0.193847 0.10221,0.229091 a 0.56039339,0.56039339 0 0 1 0,0.412365 0.45818327,0.45818327 0 0 1 -0.281959,0.250239 0.44408532,0.44408532 0 0 1 -0.394742,-0.03524 0.76128913,0.76128913 0 0 1 -0.299581,-0.415889 z"
           id="path1394"
           inkscape:power="50"
           inkscape:feed="50"
           inkscape:engrave="0"
           style="stroke-width:0.352449" />
        <path
           d="M 12.002639,9.6623803 9.9760596,10.5576 C 9.5813171,10.7303 9.2958337,10.850132 9.1196093,10.910049 A 0.83530335,0.83530335 0 0 1 8.4887262,10.927671 0.70489734,0.70489734 0 0 1 8.1080817,10.504733 0.52162403,0.52162403 0 0 1 8.1856204,9.9126189 1.8644535,1.8644535 0 0 1 8.8905177,9.5143519 5.7308154,5.7308154 0 0 1 9.4826315,9.334603 L 11.674862,8.7460138 a 1.8115862,1.8115862 0 0 1 0.630883,-0.084588 0.35244867,0.35244867 0 0 1 0.324253,0.2572875 0.35244867,0.35244867 0 0 1 -0.07754,0.398267 2.114692,2.114692 0 0 1 -0.54982,0.3453997 z m 2.67861,-1.5120048 a 0.72956875,0.72956875 0 0 1 0,0.5251485 0.64145658,0.64145658 0 0 1 -0.40884,0.3700711 0.64850555,0.64850555 0 0 1 -0.525149,-0.021147 0.67317696,0.67317696 0 0 1 -0.352448,-0.391218 0.70489734,0.70489734 0 0 1 0,-0.535722 0.64850555,0.64850555 0 0 1 0.387693,-0.3524487 0.63793209,0.63793209 0 0 1 0.546296,0.021147 0.70489734,0.70489734 0 0 1 0.352448,0.3841691 z"
           id="path1396"
           inkscape:power="50"
           inkscape:feed="50"
           inkscape:engrave="0"
           style="stroke-width:0.352449" />
      </g>
      <g
         id="g31945"
         inkscape:power="50"
         inkscape:feed="50"
         inkscape:engrave="0">
        <path
           d="m 14.882145,154.41657 a 2.1323145,2.1323145 0 0 1 0.542771,0.68023 1.9102718,1.9102718 0 0 1 0.183273,0.8353 1.9525656,1.9525656 0 0 1 -0.641456,1.45914 2.114692,2.114692 0 0 1 -0.704898,0.42294 2.5446794,2.5446794 0 0 1 -1.762243,-0.0212 2.114692,2.114692 0 0 1 -0.740142,-0.47228 2.245098,2.245098 0 0 1 -0.489904,-0.73662 2.6997568,2.6997568 0 0 1 0.04229,-2.00543 2.0900206,2.0900206 0 0 1 0.630883,-0.78244 2.8795056,2.8795056 0 0 1 1.057346,-0.4899 5.4629544,5.4629544 0 0 1 1.409795,-0.1727 6.0938375,6.0938375 0 0 1 1.561347,0.17975 3.2812971,3.2812971 0 0 1 1.134885,0.52515 2.1816573,2.1816573 0 0 1 0.683751,0.82473 2.5482039,2.5482039 0 0 1 0.229091,1.09259 2.1957552,2.1957552 0 0 1 -0.229091,1.03972 1.7199495,1.7199495 0 0 1 -0.567443,0.67318 1.1525072,1.1525072 0 0 1 -0.65203,0.23262 0.49695262,0.49695262 0 0 1 -0.352448,-0.14451 0.47228122,0.47228122 0 0 1 -0.151553,-0.35245 0.63440761,0.63440761 0 0 1 0.112783,-0.35245 0.70489734,0.70489734 0 0 1 0.352449,-0.24319 0.91989103,0.91989103 0 0 0 0.429987,-0.35949 0.89521962,0.89521962 0 0 0 0.169176,-0.5322 0.95866038,0.95866038 0 0 0 -0.133931,-0.49695 1.1701296,1.1701296 0 0 0 -0.37712,-0.40179 3.6266968,3.6266968 0 0 0 -1.737572,-0.4018 z m -1.409795,0.10574 a 1.8115862,1.8115862 0 0 0 -0.58154,0.0881 1.3815988,1.3815988 0 0 0 -0.458183,0.23967 1.1630806,1.1630806 0 0 0 -0.303106,0.35244 1.0115277,1.0115277 0 0 0 -0.112784,0.46876 0.93046449,0.93046449 0 0 0 0.363023,0.76129 1.5225783,1.5225783 0 0 0 0.993905,0.30311 1.4732354,1.4732354 0 0 0 0.979807,-0.30311 0.96570936,0.96570936 0 0 0 0.352449,-0.77186 1.057346,1.057346 0 0 0 -0.151553,-0.5463 1.1384092,1.1384092 0 0 0 -0.433512,-0.42294 1.332256,1.332256 0 0 0 -0.648506,-0.16565 z"
           id="path1398"
           inkscape:power="50"
           inkscape:feed="50"
           inkscape:engrave="0"
           style="stroke-width:0.352449" />
        <path
           d="m 14.984355,151.59698 -2.209853,0.14451 c -0.429987,0.0282 -0.740142,0.0423 -0.92694,0.0423 a 0.84940129,0.84940129 0 0 1 -0.599163,-0.20089 0.70489734,0.70489734 0 0 1 -0.211469,-0.52868 0.53219749,0.53219749 0 0 1 0.271386,-0.52867 1.8820759,1.8820759 0 0 1 0.793009,-0.13393 6.0762151,6.0762151 0 0 1 0.616785,0.0317 l 2.276819,0.19737 a 1.85388,1.85388 0 0 1 0.620309,0.14098 0.35244867,0.35244867 0 0 1 0.218519,0.35245 0.35244867,0.35244867 0 0 1 -0.21147,0.35245 2.0019084,2.0019084 0 0 1 -0.637932,0.1304 z m 3.034583,-0.52162 a 0.73309323,0.73309323 0 0 1 -0.179749,0.49343 0.65203004,0.65203004 0 0 1 -0.51105,0.20794 0.68727491,0.68727491 0 0 1 -0.687275,-0.70489 0.70489734,0.70489734 0 0 1 0.200896,-0.49696 0.70489734,0.70489734 0 0 1 0.993905,0 0.70489734,0.70489734 0 0 1 0.183273,0.50048 z"
           id="path1400"
           inkscape:power="50"
           inkscape:feed="50"
           inkscape:engrave="0"
           style="stroke-width:0.352449" />
        <path
           d="m 17.507888,143.76557 -1.34283,0.91285 1.34283,0.92694 a 2.5023856,2.5023856 0 0 1 0.401791,0.35245 0.55334441,0.55334441 0 0 1 0.119833,0.35244 0.57449133,0.57449133 0 0 1 -0.151553,0.40532 0.44760981,0.44760981 0 0 1 -0.352449,0.16918 1.1384092,1.1384092 0 0 1 -0.567442,-0.25729 l -1.635362,-1.13841 -1.360452,1.008 a 1.0044787,1.0044787 0 0 1 -0.585065,0.26434 0.43351186,0.43351186 0 0 1 -0.352448,-0.1586 0.56391787,0.56391787 0 0 1 -0.144504,-0.40884 0.54981993,0.54981993 0 0 1 0.123357,-0.35245 2.1922307,2.1922307 0 0 1 0.394742,-0.35245 l 1.113738,-0.81768 -1.074968,-0.78596 a 2.1323145,2.1323145 0 0 1 -0.398267,-0.35245 0.53219749,0.53219749 0 0 1 -0.119833,-0.35245 0.60621171,0.60621171 0 0 1 0.140979,-0.41589 0.43351186,0.43351186 0 0 1 0.352449,-0.16213 0.58506479,0.58506479 0 0 1 0.27491,0.067 2.1922307,2.1922307 0 0 1 0.310155,0.20442 l 1.360452,1.01153 1.603641,-1.14194 a 1.2053745,1.2053745 0 0 1 0.574492,-0.26433 0.42646289,0.42646289 0 0 1 0.352448,0.16565 0.60268723,0.60268723 0 0 1 0.144504,0.40884 0.54629544,0.54629544 0 0 1 -0.126881,0.35245 2.0653492,2.0653492 0 0 1 -0.398267,0.35949 z"
           id="path1402"
           inkscape:power="50"
           inkscape:feed="50"
           inkscape:engrave="0"
           style="stroke-width:0.352449" />
        <path
           d="m 11.216679,138.39073 v -3.07335 a 1.1560316,1.1560316 0 0 1 0.137455,-0.64146 0.51809954,0.51809954 0 0 1 0.454659,-0.19737 0.97275833,0.97275833 0 0 1 0.514575,0.23262 c 0.211469,0.15508 0.444085,0.3313 0.704897,0.5322 a 7.8737033,7.8737033 0 0 0 0.95866,0.61326 7.9970603,7.9970603 0 0 0 1.409795,0.57801 5.28673,5.28673 0 0 0 0.602687,0.15508 c 0.158602,0.0317 0.352449,0.067 0.623835,0.10221 0.271385,0.0352 0.451134,0.0705 0.585064,0.0987 a 1.3005356,1.3005356 0 0 1 0.65203,0.27491 0.62030966,0.62030966 0 0 1 0.183274,0.47228 0.57096685,0.57096685 0 0 1 -0.197372,0.45113 0.86349924,0.86349924 0 0 1 -0.578015,0.16918 3.4821929,3.4821929 0 0 1 -0.803583,-0.12336 9.3751346,9.3751346 0 0 1 -1.215948,-0.40532 12.036122,12.036122 0 0 1 -2.935898,-1.70585 v 2.46714 a 0.96570936,0.96570936 0 0 1 -0.140979,0.57802 0.51105057,0.51105057 0 0 1 -0.440561,0.19385 0.40179148,0.40179148 0 0 1 -0.40884,-0.20443 1.3675008,1.3675008 0 0 1 -0.105735,-0.56744 z"
           id="path1404"
           inkscape:power="50"
           inkscape:feed="50"
           inkscape:engrave="0"
           style="stroke-width:0.352449" />
        <path
           d="m 14.984355,133.18154 -2.209853,0.14803 c -0.429987,0.0282 -0.740142,0.0423 -0.92694,0.0423 a 0.84940129,0.84940129 0 0 1 -0.599163,-0.20089 0.70489734,0.70489734 0 0 1 -0.211469,-0.52868 0.53219749,0.53219749 0 0 1 0.271386,-0.52867 1.8256841,1.8256841 0 0 1 0.793009,-0.13393 6.0762151,6.0762151 0 0 1 0.616785,0.0317 l 2.276819,0.19737 a 1.7833903,1.7833903 0 0 1 0.620309,0.13746 0.35244867,0.35244867 0 0 1 0.218519,0.35245 0.35244867,0.35244867 0 0 1 -0.21147,0.35245 2.114692,2.114692 0 0 1 -0.637932,0.1304 z m 3.034583,-0.51105 a 0.72604426,0.72604426 0 0 1 -0.179749,0.4899 0.64145658,0.64145658 0 0 1 -0.51105,0.21147 0.68727491,0.68727491 0 0 1 -0.687275,-0.70489 0.70489734,0.70489734 0 0 1 0.200896,-0.49696 0.70489734,0.70489734 0 0 1 0.993905,0 0.70489734,0.70489734 0 0 1 0.183273,0.50048 z"
           id="path1406"
           inkscape:power="50"
           inkscape:feed="50"
           inkscape:engrave="0"
           style="stroke-width:0.352449" />
      </g>
      <g
         id="g31626"
         inkscape:power="50"
         inkscape:feed="50"
         inkscape:engrave="0">
        <path
           d="m 12.908433,197.1827 -4.0531602,-1.08555 q 0.5674424,1.36398 0.4617078,1.76225 a 0.46523224,0.46523224 0 0 1 -0.2396651,0.29253 0.49695262,0.49695262 0 0 1 -0.384169,0.0529 0.40531597,0.40531597 0 0 1 -0.2960569,-0.23262 3.3306399,3.3306399 0 0 1 -0.1409795,-0.57802 3.4786684,3.4786684 0 0 0 -0.7789116,-1.74109 c -0.1867978,-0.22909 -0.2995813,-0.37712 -0.3524486,-0.44056 a 0.41941392,0.41941392 0 0 1 0,-0.30663 0.4758057,0.4758057 0 0 1 0.2854834,-0.3313 0.85292578,0.85292578 0 0 1 0.5427709,0 l 5.0999318,1.3675 c 0.599163,0.1586 0.842353,0.44408 0.733094,0.8494 a 0.57801582,0.57801582 0 0 1 -0.299582,0.38769 0.81063194,0.81063194 0 0 1 -0.578015,0.004 z"
           id="path1408"
           inkscape:power="50"
           inkscape:feed="50"
           inkscape:engrave="0"
           style="stroke-width:0.352449" />
        <path
           d="m 9.9831086,188.81909 -0.5674424,2.11469 1.3780748,0.64146 a 2.5975467,2.5975467 0 0 1 -0.0282,-1.25824 2.0406778,2.0406778 0 0 1 0.37712,-0.75777 2.1358389,2.1358389 0 0 1 0.616785,-0.53572 2.1957552,2.1957552 0 0 1 1.663558,-0.19737 2.4671407,2.4671407 0 0 1 1.099639,0.60621 2.2133776,2.2133776 0 0 1 0.62031,1.05734 2.9535199,2.9535199 0 0 1 -0.648505,2.56231 1.8785514,1.8785514 0 0 1 -0.867024,0.52515 1.4943824,1.4943824 0 0 1 -0.704898,0.0282 0.5040016,0.5040016 0 0 1 -0.292532,-0.23261 0.48285468,0.48285468 0 0 1 -0.05639,-0.40532 0.60621171,0.60621171 0 0 1 0.578016,-0.44056 1.5648721,1.5648721 0 0 0 0.747191,-0.31721 1.1560316,1.1560316 0 0 0 0.401792,-0.61678 1.057346,1.057346 0 0 0 0,-0.64851 1.187752,1.187752 0 0 0 -0.380645,-0.53219 1.85388,1.85388 0 0 0 -0.673177,-0.33131 1.723474,1.723474 0 0 0 -0.771862,-0.0423 1.057346,1.057346 0 0 0 -0.560394,0.28548 1.1313602,1.1313602 0 0 0 -0.299581,0.52515 1.1525072,1.1525072 0 0 0 -0.05287,0.57097 4.6347,4.6347 0 0 0 0.200895,0.56392 0.9798073,0.9798073 0 0 1 0.09516,0.57096 0.56744236,0.56744236 0 0 1 -0.260813,0.35245 0.5040016,0.5040016 0 0 1 -0.405315,0.074 L 10.903,192.8511 8.8693708,191.90654 a 1.0749684,1.0749684 0 0 1 -0.4969526,-0.38065 0.78596053,0.78596053 0 0 1 -0.024671,-0.59916 l 0.6308831,-2.35436 c 0.123357,-0.4617 0.3524486,-0.6485 0.7048973,-0.55334 a 0.49695262,0.49695262 0 0 1 0.3313014,0.27139 0.78243605,0.78243605 0 0 1 -0.03172,0.52867 z"
           id="path1410"
           inkscape:power="50"
           inkscape:feed="50"
           inkscape:engrave="0"
           style="stroke-width:0.352449" />
        <path
           d="m 13.183343,187.28946 -2.174609,-0.42999 c -0.422938,-0.0846 -0.72252,-0.15155 -0.905793,-0.20089 a 0.83530335,0.83530335 0 0 1 -0.5251484,-0.35245 0.70489734,0.70489734 0 0 1 -0.07049,-0.56744 0.53924647,0.53924647 0 0 1 0.405316,-0.43352 1.8715024,1.8715024 0 0 1 0.8000584,0.074 c 0.197372,0.0529 0.391218,0.11631 0.58859,0.19032 l 2.135839,0.78244 a 1.7974882,1.7974882 0 0 1 0.563917,0.29253 0.35244867,0.35244867 0 0 1 0.119833,0.39827 0.35244867,0.35244867 0 0 1 -0.292532,0.27843 2.1781328,2.1781328 0 0 1 -0.644981,-0.0317 z m 3.062778,0.28901 a 0.70489734,0.70489734 0 0 1 -0.303105,0.42999 0.70489734,0.70489734 0 0 1 -0.962185,-0.25024 0.65203004,0.65203004 0 0 1 -0.06697,-0.52515 0.66965247,0.66965247 0 0 1 0.320729,-0.42646 0.65555453,0.65555453 0 0 1 0.525148,-0.074 0.63440761,0.63440761 0 0 1 0.433512,0.3313 0.70489734,0.70489734 0 0 1 0.06344,0.51458 z"
           id="path1412"
           inkscape:power="50"
           inkscape:feed="50"
           inkscape:engrave="0"
           style="stroke-width:0.352449" />
        <path
           d="m 15.921869,181.03702 -0.37712,1.4098 a 0.70489734,0.70489734 0 0 1 -0.278435,0.44761 0.51105057,0.51105057 0 0 1 -0.419414,0.0705 0.528673,0.528673 0 0 1 -0.352448,-0.26787 0.72604426,0.72604426 0 0 1 -0.01762,-0.53219 l 0.37712,-1.4098 a 0.72604426,0.72604426 0 0 1 0.278435,-0.45113 0.528673,0.528673 0 0 1 0.433512,-0.0599 0.52162403,0.52162403 0 0 1 0.352448,0.26434 0.73661772,0.73661772 0 0 1 0.0035,0.52867 z"
           id="path1414"
           inkscape:power="50"
           inkscape:feed="50"
           inkscape:engrave="0"
           style="stroke-width:0.352449" />
        <path
           d="m 13.877666,176.51863 a 1.600117,1.600117 0 0 1 -0.775387,-0.46876 1.7622434,1.7622434 0 0 1 -0.440561,-0.88112 2.4671407,2.4671407 0 0 1 0.05992,-1.15955 2.8195894,2.8195894 0 0 1 0.387693,-0.89522 1.9137963,1.9137963 0 0 1 0.560394,-0.56745 1.6177394,1.6177394 0 0 1 0.65203,-0.25024 1.7340475,1.7340475 0 0 1 0.68375,0.0458 1.4097947,1.4097947 0 0 1 0.704897,0.43351 1.6635577,1.6635577 0 0 1 0.380645,0.82121 1.9490411,1.9490411 0 0 1 0.556869,-0.52515 1.6071659,1.6071659 0 0 1 0.65203,-0.22909 1.9349432,1.9349432 0 0 1 0.729569,0.0599 2.0301043,2.0301043 0 0 1 0.962185,0.54629 1.9137963,1.9137963 0 0 1 0.500477,0.98686 2.9077015,2.9077015 0 0 1 -0.07401,1.31111 2.9499954,2.9499954 0 0 1 -0.595638,1.1948 1.9208453,1.9208453 0 0 1 -0.923415,0.60269 2.0265799,2.0265799 0 0 1 -1.085542,0 1.6952781,1.6952781 0 0 1 -1.34283,-1.57193 1.4591375,1.4591375 0 0 1 -1.593068,0.5463 z m 3.806446,-2.4037 a 1.2617662,1.2617662 0 0 0 -0.644981,-0.0211 1.0080032,1.0080032 0 0 0 -0.504002,0.29606 1.2511928,1.2511928 0 0 0 -0.296057,0.54277 1.057346,1.057346 0 0 0 0.102211,0.84235 1.1701296,1.1701296 0 0 0 0.761289,0.53572 1.3287315,1.3287315 0 0 0 0.65203,0.0176 1.0890664,1.0890664 0 0 0 0.518099,-0.28549 1.187752,1.187752 0 0 0 0.296057,-1.11726 1.0820174,1.0820174 0 0 0 -0.310155,-0.504 1.3639764,1.3639764 0 0 0 -0.574491,-0.30663 z m -4.106027,0.0952 a 0.92694,0.92694 0 0 0 0.08106,0.74367 0.94456244,0.94456244 0 0 0 0.602687,0.43703 0.85997475,0.85997475 0 0 0 0.704898,-0.0952 0.97628282,0.97628282 0 0 0 0.433512,-0.60973 1.057346,1.057346 0 0 0 0.03524,-0.39827 0.94103795,0.94103795 0 0 0 -0.105735,-0.35245 0.86349924,0.86349924 0 0 0 -0.229092,-0.26434 0.96218487,0.96218487 0 0 0 -0.352448,-0.16212 0.9798073,0.9798073 0 0 0 -0.504002,0 0.83882783,0.83882783 0 0 0 -0.415889,0.24319 0.98685628,0.98685628 0 0 0 -0.250239,0.45818 z"
           id="path1416"
           inkscape:power="50"
           inkscape:feed="50"
           inkscape:engrave="0"
           style="stroke-width:0.352449" />
        <path
           d="m 17.486741,171.22485 -2.171084,-0.42999 c -0.422938,-0.0846 -0.726044,-0.15155 -0.909318,-0.19737 a 0.84587681,0.84587681 0 0 1 -0.521624,-0.35245 0.67317696,0.67317696 0 0 1 -0.07049,-0.56744 0.528673,0.528673 0 0 1 0.401791,-0.44056 1.8151107,1.8151107 0 0 1 0.796534,0.0775 4.5818327,4.5818327 0 0 1 0.588589,0.19032 l 2.146413,0.77186 a 1.8151107,1.8151107 0 0 1 0.567442,0.29606 0.35244867,0.35244867 0 0 1 0.116308,0.39474 0.35244867,0.35244867 0 0 1 -0.292532,0.27844 1.9666636,1.9666636 0 0 1 -0.65203,-0.0212 z m 3.066303,0.29253 a 0.73661772,0.73661772 0 0 1 -0.303106,0.42647 0.70489734,0.70489734 0 0 1 -0.965709,-0.25024 0.66612799,0.66612799 0 0 1 -0.06696,-0.52515 0.70489734,0.70489734 0 0 1 0.320728,-0.42646 0.70489734,0.70489734 0 0 1 0.962185,0.25728 0.73309323,0.73309323 0 0 1 0.05287,0.5181 z"
           id="path1418"
           inkscape:power="50"
           inkscape:feed="50"
           inkscape:engrave="0"
           style="stroke-width:0.352449" />
      </g>
      <g
         id="g32892"
         inkscape:power="50"
         inkscape:feed="50"
         inkscape:engrave="0">
        <path
           d="m 8.936336,75.542086 0.2396651,0.08811 a 3.714809,3.714809 0 0 1 -0.5991627,-1.519054 3.2636747,3.2636747 0 0 1 0.1973712,-1.550774 3.0310586,3.0310586 0 0 1 0.8564503,-1.282913 2.3085388,2.3085388 0 0 1 1.3075841,-0.574492 2.4671407,2.4671407 0 0 1 0.881122,0.03172 8.7231046,8.7231046 0 0 1 1.09964,0.352449 l 3.690138,1.332255 a 1.4097947,1.4097947 0 0 1 0.807107,0.602688 0.96570936,0.96570936 0 0 1 0.04582,0.821205 0.97628282,0.97628282 0 0 1 -0.574491,0.609736 1.4097947,1.4097947 0 0 1 -0.983332,-0.04229 l -3.316542,-1.208898 a 3.5244867,3.5244867 0 0 0 -1.607166,-0.27491 c -0.412365,0.05639 -0.704897,0.352448 -0.919891,0.902268 a 1.730523,1.730523 0 0 0 -0.03524,1.085542 1.9490411,1.9490411 0 0 0 0.637933,0.95866 6.7247206,6.7247206 0 0 0 1.61069,0.750716 l 2.495337,0.909318 a 1.3639764,1.3639764 0 0 1 0.807107,0.609736 1.0115277,1.0115277 0 0 1 0.03877,0.835303 0.96570936,0.96570936 0 0 1 -0.570967,0.595638 1.4097947,1.4097947 0 0 1 -1.000954,-0.04934 L 8.2878305,77.410064 a 1.3357805,1.3357805 0 0 1 -0.7612891,-0.532198 0.90579308,0.90579308 0 0 1 -0.035245,-0.778911 0.96218487,0.96218487 0 0 1 0.2960569,-0.429988 0.93046449,0.93046449 0 0 1 0.4969526,-0.20442 1.4097947,1.4097947 0 0 1 0.65203,0.07754 z"
           id="path1420"
           inkscape:power="50"
           inkscape:feed="50"
           inkscape:engrave="0"
           style="stroke-width:0.352449" />
        <path
           d="M 13.983401,68.464916 10.402523,67.428717 C 9.6976252,67.224297 9.2077215,67.076269 8.9116646,66.959961 a 1.4097947,1.4097947 0 0 1 -0.8282543,-0.655555 1.1595561,1.1595561 0 0 1 -0.035245,-0.95866 0.89521962,0.89521962 0 0 1 0.7401422,-0.680226 3.172038,3.172038 0 0 1 1.3287315,0.243189 10.157571,10.157571 0 0 1 0.95866,0.408841 l 3.482193,1.621264 a 2.9958137,2.9958137 0 0 1 0.902269,0.578015 0.61326069,0.61326069 0 0 1 0.144504,0.680226 0.59916274,0.59916274 0 0 1 -0.532198,0.426463 3.446948,3.446948 0 0 1 -1.089066,-0.158602 z m 5.092883,0.937514 a 1.2265214,1.2265214 0 0 1 -0.570967,0.673177 1.057346,1.057346 0 0 1 -0.92694,0.03877 1.1560316,1.1560316 0 0 1 -0.704897,-1.490858 1.1419337,1.1419337 0 0 1 0.602687,-0.669652 1.1137378,1.1137378 0 0 1 0.888171,-0.04229 1.0784929,1.0784929 0 0 1 0.711946,0.62031 1.180703,1.180703 0 0 1 0,0.870548 z"
           id="path1422"
           inkscape:power="50"
           inkscape:feed="50"
           inkscape:engrave="0"
           style="stroke-width:0.352449" />
      </g>
      <g
         id="g30771"
         inkscape:power="50"
         inkscape:feed="50"
         inkscape:engrave="0">
        <path
           d="m 104.66492,114.78725 a 1.1313602,1.1313602 0 0 0 -0.48638,-0.59917 0.85997475,0.85997475 0 0 0 -0.77539,-0.0458 0.86349924,0.86349924 0 0 0 -0.50752,1.14546 1.1454582,1.1454582 0 0 0 0.23261,0.40884 0.72956875,0.72956875 0 0 0 0.29254,0.2009 1.4097947,1.4097947 0 0 0 0.38416,0.074 l 0.41589,0.0317 a 0.32425278,0.32425278 0 0 1 0.2009,0.10574 0.63088312,0.63088312 0 0 1 0.14803,0.23966 0.48637916,0.48637916 0 0 1 -0.0247,0.37007 0.53219749,0.53219749 0 0 1 -0.32426,0.28196 1.0221011,1.0221011 0 0 1 -0.52514,0.0353 1.7798658,1.7798658 0 0 1 -0.61679,-0.22557 2.0900206,2.0900206 0 0 1 -0.59916,-0.5181 2.8195894,2.8195894 0 0 1 -0.45466,-0.82473 2.5552529,2.5552529 0 0 1 -0.16565,-0.80711 1.9314187,1.9314187 0 0 1 0.11278,-0.72252 1.5225783,1.5225783 0 0 1 0.35245,-0.57096 1.5437252,1.5437252 0 0 1 0.56744,-0.35245 1.462662,1.462662 0 0 1 0.81063,-0.0811 2.6398405,2.6398405 0 0 1 0.80359,0.3172 2.5834488,2.5834488 0 0 1 0.20794,-0.72252 1.6706067,1.6706067 0 0 1 0.96219,-0.8776 2.0230554,2.0230554 0 0 1 0.8212,-0.11631 2.0653492,2.0653492 0 0 1 0.82473,0.22557 2.3402592,2.3402592 0 0 1 0.7049,0.56744 2.7420507,2.7420507 0 0 1 0.50048,0.87408 2.3614061,2.3614061 0 0 1 0.15155,1.00095 2.2732939,2.2732939 0 0 1 -0.64851,1.45914 1.2793887,1.2793887 0 0 1 -0.44408,0.3172 0.57449133,0.57449133 0 0 1 -0.46523,0 0.6097362,0.6097362 0 0 1 -0.30311,-0.35245 0.50047711,0.50047711 0 0 1 0,-0.26081 0.35244867,0.35244867 0 0 1 0.11983,-0.21147 3.1473666,3.1473666 0 0 0 0.7049,-0.80711 0.98333179,0.98333179 0 0 0 0.0282,-0.83177 1.187752,1.187752 0 0 0 -0.32073,-0.47229 1.1842275,1.1842275 0 0 0 -1.20538,-0.21147 1.180703,1.180703 0 0 0 -0.70489,0.56745 1.0961154,1.0961154 0 0 0 0,0.87759 c 0.0211,0.0564 0.0599,0.14451 0.1163,0.26082 0.0564,0.1163 0.0881,0.19384 0.10221,0.22909 a 0.56039339,0.56039339 0 0 1 0,0.41236 0.45465878,0.45465878 0 0 1 -0.28548,0.25024 0.43703635,0.43703635 0 0 1 -0.39122,-0.0352 0.76128913,0.76128913 0 0 1 -0.29605,-0.41589 z"
           id="path1425"
           inkscape:power="50"
           inkscape:feed="50"
           inkscape:engrave="0"
           style="stroke-width:0.352449" />
        <path
           d="m 104.34772,110.54729 -2.02658,0.89522 c -0.39475,0.1727 -0.68023,0.29253 -0.85645,0.35245 a 0.83530335,0.83530335 0 0 1 -0.63089,0.0176 0.70489734,0.70489734 0 0 1 -0.38064,-0.42294 0.528673,0.528673 0 0 1 0.074,-0.59211 1.9137963,1.9137963 0 0 1 0.7049,-0.39827 c 0.19385,-0.067 0.38769,-0.13041 0.59211,-0.17975 l 2.20633,-0.59211 a 1.8115862,1.8115862 0 0 1 0.63088,-0.0846 0.35244867,0.35244867 0 0 1 0.32426,0.25729 0.35244867,0.35244867 0 0 1 -0.0775,0.39826 2.114692,2.114692 0 0 1 -0.56039,0.34893 z m 2.67861,-1.51906 a 0.74719118,0.74719118 0 0 1 0,0.52515 0.64145658,0.64145658 0 0 1 -0.40885,0.37007 0.64850555,0.64850555 0 0 1 -0.52514,-0.0211 0.6626035,0.6626035 0 0 1 -0.35245,-0.39122 0.70489734,0.70489734 0 0 1 0.0176,-0.53572 0.65203004,0.65203004 0 0 1 0.38769,-0.35245 0.63793209,0.63793209 0 0 1 0.5463,0.0211 0.70489734,0.70489734 0 0 1 0.33483,0.38417 z"
           id="path1427"
           inkscape:power="50"
           inkscape:feed="50"
           inkscape:engrave="0"
           style="stroke-width:0.352449" />
        <path
           d="m 103.52299,102.5608 0.40531,1.12079 -1.64946,0.59916 0.60269,1.66003 -1.13489,0.41589 -0.60621,-1.66003 -1.660031,0.60269 -0.398267,-1.11727 1.660038,-0.60621 -0.60269,-1.67413 1.13488,-0.41236 0.60621,1.66708 z"
           id="path1429"
           inkscape:power="50"
           inkscape:feed="50"
           inkscape:engrave="0"
           style="stroke-width:0.352449" />
        <path
           d="m 98.867139,97.61947 a 2.0688737,2.0688737 0 0 1 -0.75424,-0.451134 1.8397821,1.8397821 0 0 1 -0.451135,-0.704897 1.9525656,1.9525656 0 0 1 -0.123357,-0.817681 1.9173208,1.9173208 0 0 1 0.214994,-0.768338 2.114692,2.114692 0 0 1 0.521624,-0.648506 2.4424693,2.4424693 0 0 1 0.75424,-0.437036 2.4036999,2.4036999 0 0 1 1.212425,-0.126882 2.114692,2.114692 0 0 1 1.05734,0.500477 2.4248468,2.4248468 0 0 1 0.7049,1.029151 2.2274756,2.2274756 0 0 1 -0.65555,2.579924 5.0012466,5.0012466 0 0 1 -1.60012,0.898744 6.3017822,6.3017822 0 0 1 -1.526102,0.352449 3.3588358,3.3588358 0 0 1 -1.247669,-0.09516 2.1887062,2.1887062 0 0 1 -0.919891,-0.535722 2.4988611,2.4988611 0 0 1 -0.592113,-0.948086 2.2556715,2.2556715 0 0 1 -0.137455,-1.057346 1.7269985,1.7269985 0 0 1 0.303105,-0.831779 1.1912765,1.1912765 0 0 1 0.539247,-0.437037 0.48285468,0.48285468 0 0 1 0.370071,0.01762 0.46875673,0.46875673 0 0 1 0.271385,0.289008 0.59916274,0.59916274 0 0 1 0,0.37712 0.70489734,0.70489734 0 0 1 -0.23614,0.352448 0.95866038,0.95866038 0 0 0 -0.310155,0.458184 0.9022686,0.9022686 0 0 0 0.02467,0.560393 1.0009542,1.0009542 0 0 0 0.299582,0.408841 1.2793887,1.2793887 0 0 0 0.496952,0.253763 q 0.58859,0.155077 1.783391,-0.218519 z m 2.266241,-2.149937 a 0.94456244,0.94456244 0 0 0 -0.62383,-0.592113 1.5296272,1.5296272 0 0 0 -1.039724,0.05287 1.6988026,1.6988026 0 0 0 -0.630883,0.384169 1.057346,1.057346 0 0 0 -0.299582,0.525149 0.99038076,0.99038076 0 0 0 0.03877,0.570966 1.0820174,1.0820174 0 0 0 0.331302,0.461708 1.1313602,1.1313602 0 0 0 0.556868,0.24319 1.4097947,1.4097947 0 0 0 0.704899,-0.08106 1.6600332,1.6600332 0 0 0 0.86702,-0.659079 0.99742974,0.99742974 0 0 0 0.0952,-0.905794 z"
           id="path1431"
           inkscape:power="50"
           inkscape:feed="50"
           inkscape:engrave="0"
           style="stroke-width:0.352449" />
        <path
           d="m 97.852087,92.702811 -2.02658,0.89522 c -0.394743,0.1727 -0.680226,0.289008 -0.856451,0.352449 a 0.85292578,0.85292578 0 0 1 -0.630883,0 0.70489734,0.70489734 0 0 1 -0.380644,-0.422939 0.53219749,0.53219749 0 0 1 0.07401,-0.592113 1.8644535,1.8644535 0 0 1 0.704897,-0.394743 6.1008865,6.1008865 0 0 1 0.592114,-0.183273 l 2.206329,-0.592114 a 1.7974882,1.7974882 0 0 1 0.630883,-0.08106 0.35244867,0.35244867 0 0 1 0.324253,0.253763 0.35244867,0.35244867 0 0 1 -0.07754,0.398267 2.0935451,2.0935451 0 0 1 -0.560393,0.366546 z m 2.678613,-1.519053 a 0.74014221,0.74014221 0 0 1 0,0.521624 0.64850555,0.64850555 0 0 1 -0.40884,0.373595 0.67670145,0.67670145 0 0 1 -0.525153,-0.02115 0.65907901,0.65907901 0 0 1 -0.352448,-0.394742 0.70489734,0.70489734 0 0 1 0.01762,-0.535722 0.6626035,0.6626035 0 0 1 0.387694,-0.352449 0.63793209,0.63793209 0 0 1 0.546297,0.02115 0.70489734,0.70489734 0 0 1 0.33483,0.387694 z"
           id="path1433"
           inkscape:power="50"
           inkscape:feed="50"
           inkscape:engrave="0"
           style="stroke-width:0.352449" />
      </g>
      <g
         id="g29616"
         inkscape:power="50"
         inkscape:feed="50"
         inkscape:engrave="0">
        <path
           d="m 101.15453,49.598339 a 2.6010712,2.6010712 0 0 1 -0.55687,-0.852926 2.8195894,2.8195894 0 0 1 -0.17975,-1.02915 3.0099116,3.0099116 0 0 1 0.16565,-1.008003 2.5235325,2.5235325 0 0 1 0.46524,-0.810632 2.0759227,2.0759227 0 0 1 0.70489,-0.535722 2.0547757,2.0547757 0 0 1 2.04068,0.179749 2.4671407,2.4671407 0 0 1 0.83178,1.036199 3.6372703,3.6372703 0 0 1 0.29606,1.501431 3.446948,3.446948 0 0 1 -0.37712,1.667083 2.520008,2.520008 0 0 1 -1.12079,1.057346 3.9861945,3.9861945 0 0 1 -1.81511,0.373595 5.0717364,5.0717364 0 0 1 -1.56135,-0.225567 3.0028627,3.0028627 0 0 1 -1.141932,-0.644981 2.6680364,2.6680364 0 0 1 -0.68375,-1.015052 3.7535783,3.7535783 0 0 1 -0.229092,-1.363977 3.3694093,3.3694093 0 0 1 0.229092,-1.297011 2.1393634,2.1393634 0 0 1 0.574491,-0.845877 1.057346,1.057346 0 0 1 0.655554,-0.281958 0.4511343,0.4511343 0 0 1 0.352449,0.176224 0.67670145,0.67670145 0 0 1 0.151553,0.454659 0.85997475,0.85997475 0 0 1 -0.119832,0.447609 0.75776464,0.75776464 0 0 1 -0.352449,0.306631 1.0150522,1.0150522 0 0 0 -0.444085,0.419414 1.2829132,1.2829132 0 0 0 -0.169176,0.666128 1.4097947,1.4097947 0 0 0 0.14098,0.606211 1.5261027,1.5261027 0 0 0 0.380644,0.507527 q 0.507526,0.437036 1.762243,0.51105 z m 2.86893,-1.554299 a 1.2970111,1.2970111 0 0 0 -0.38064,-0.95866 1.3569274,1.3569274 0 0 0 -1.00096,-0.380644 1.3815988,1.3815988 0 0 0 -0.72252,0.179748 1.180703,1.180703 0 0 0 -0.4617,0.486379 1.4979068,1.4979068 0 0 0 -0.16213,0.687275 1.586019,1.586019 0 0 0 0.15508,0.680226 1.2441438,1.2441438 0 0 0 0.44056,0.521624 1.1525072,1.1525072 0 0 0 0.6767,0.200896 1.4097947,1.4097947 0 0 0 1.03972,-0.405316 1.3393049,1.3393049 0 0 0 0.40884,-1.011528 z"
           id="path1435"
           inkscape:power="50"
           inkscape:feed="50"
           inkscape:engrave="0"
           style="stroke-width:0.352449" />
        <path
           d="m 104.23141,40.610898 h -0.85998 v 2.886555 a 1.4097947,1.4097947 0 0 1 -0.19737,0.817681 0.63793209,0.63793209 0 0 1 -0.54277,0.274909 0.46875673,0.46875673 0 0 1 -0.17622,-0.03877 0.86349924,0.86349924 0 0 1 -0.19033,-0.123357 c -0.067,-0.05287 -0.1304,-0.109259 -0.19032,-0.165651 l -0.22909,-0.211469 -3.274248,-3.048681 A 3.968572,3.968572 0 0 1 98.102325,40.512212 0.74719118,0.74719118 0 0 1 97.954297,40.04698 c 0,-0.58154 0.271385,-0.874073 0.807107,-0.874073 h 3.573826 v -0.246714 a 2.1499369,2.1499369 0 0 1 0.0987,-0.704897 0.40179148,0.40179148 0 0 1 0.42646,-0.267861 0.41588943,0.41588943 0 0 1 0.3877,0.218518 1.3357805,1.3357805 0 0 1 0.12335,0.655555 v 0.352448 h 0.85998 a 0.67317696,0.67317696 0 0 1 0.52867,0.197372 0.86702373,0.86702373 0 0 1 0,1.057346 0.67670145,0.67670145 0 0 1 -0.52867,0.176224 z m -1.89618,2.467141 v -2.467141 h -2.682131 z"
           id="path1437"
           inkscape:power="50"
           inkscape:feed="50"
           inkscape:engrave="0"
           style="stroke-width:0.352449" />
        <path
           d="m 101.90172,36.40971 -2.213376,0.183273 q -0.644981,0.05287 -0.930464,0.05287 a 0.74366669,0.74366669 0 0 1 -0.595639,-0.250238 0.97628282,0.97628282 0 0 1 -0.214993,-0.659079 0.70489734,0.70489734 0 0 1 0.27491,-0.662604 1.5578231,1.5578231 0 0 1 0.789485,-0.16565 5.28673,5.28673 0 0 1 0.620309,0.03877 l 2.276818,0.250238 a 1.4661865,1.4661865 0 0 1 0.62383,0.1727 0.46523224,0.46523224 0 0 1 0.21852,0.437037 0.45818327,0.45818327 0 0 1 -0.20794,0.429987 1.7622434,1.7622434 0 0 1 -0.64146,0.1727 z m 3.04163,-0.637932 a 1.057346,1.057346 0 0 1 -0.18327,0.609736 0.58858928,0.58858928 0 0 1 -0.51105,0.264336 0.60621171,0.60621171 0 0 1 -0.48638,-0.250238 1.057346,1.057346 0 0 1 0,-1.230046 0.6097362,0.6097362 0 0 1 0.99391,0 1.0150522,1.0150522 0 0 1 0.16917,0.606212 z"
           id="path1439"
           inkscape:power="50"
           inkscape:feed="50"
           inkscape:engrave="0"
           style="stroke-width:0.352449" />
      </g>
      <g
         id="g29507"
         inkscape:power="50"
         inkscape:feed="50"
         inkscape:engrave="0">
        <path
           d="m 105.87029,17.923777 -3.9439,1.437991 q 1.24767,0.793009 1.38513,1.173654 a 0.45818327,0.45818327 0 0 1 -0.0282,0.37712 0.49342814,0.49342814 0 0 1 -0.28548,0.260812 0.39474251,0.39474251 0 0 1 -0.3736,-0.01762 3.316542,3.316542 0 0 1 -0.44761,-0.394742 3.9861945,3.9861945 0 0 0 -0.82473,-0.648506 3.7359559,3.7359559 0 0 0 -0.81415,-0.334826 4.6981408,4.6981408 0 0 1 -0.5322,-0.165651 0.39474251,0.39474251 0 0 1 -0.179751,-0.246714 0.48285468,0.48285468 0 0 1 0.04582,-0.433512 0.80358297,0.80358297 0 0 1 0.437031,-0.317203 l 4.96601,-1.808062 c 0.57801,-0.211469 0.94103,-0.119833 1.08554,0.278434 a 0.59211377,0.59211377 0 0 1 -0.0212,0.489904 0.8212054,0.8212054 0 0 1 -0.46876,0.348924 z"
           id="path1441"
           inkscape:power="50"
           inkscape:feed="50"
           inkscape:engrave="0"
           style="stroke-width:0.352449" />
        <path
           d="m 100.73512,13.902338 a 1.1102133,1.1102133 0 0 0 -0.48286,-0.599163 0.89169514,0.89169514 0 0 0 -1.282911,1.09964 1.1454582,1.1454582 0 0 0 0.232616,0.40884 0.70489734,0.70489734 0 0 0 0.292532,0.200896 1.4097947,1.4097947 0 0 0 0.380645,0.07401 l 0.419418,0.03172 a 0.33130175,0.33130175 0 0 1 0.20089,0.105734 0.66965247,0.66965247 0 0 1 0.14451,0.239665 0.47228122,0.47228122 0 0 1 -0.0247,0.352449 0.52514852,0.52514852 0 0 1 -0.32072,0.281959 1.0256256,1.0256256 0 0 1 -0.525153,0.03524 1.8221596,1.8221596 0 0 1 -0.620309,-0.225567 2.1887062,2.1887062 0 0 1 -0.599163,-0.5181 2.9781913,2.9781913 0 0 1 -0.454659,-0.82473 2.650414,2.650414 0 0 1 -0.162126,-0.807107 1.8644535,1.8644535 0 0 1 0.112783,-0.72252 1.4802844,1.4802844 0 0 1 0.352449,-0.570967 1.5155293,1.5155293 0 0 1 0.567442,-0.352448 1.462662,1.462662 0 0 1 0.810632,-0.08106 2.5869732,2.5869732 0 0 1 0.800054,0.317204 2.5869732,2.5869732 0 0 1 0.21147,-0.72252 1.6706067,1.6706067 0 0 1 0.96219,-0.877597 2.0054329,2.0054329 0 0 1 0.81768,-0.116308 2.0653492,2.0653492 0 0 1 0.82825,0.225567 2.3261612,2.3261612 0 0 1 0.7049,0.567443 2.6856589,2.6856589 0 0 1 0.504,0.874072 2.3614061,2.3614061 0 0 1 0.15156,1.000955 2.2662449,2.2662449 0 0 1 -0.21852,0.845876 2.1922307,2.1922307 0 0 1 -0.43351,0.613261 1.2793887,1.2793887 0 0 1 -0.44409,0.317204 0.56744236,0.56744236 0 0 1 -0.46171,0 0.59916274,0.59916274 0 0 1 -0.3031,-0.352449 0.46523224,0.46523224 0 0 1 0,-0.260812 0.38769354,0.38769354 0 0 1 0.11631,-0.211469 3.1050728,3.1050728 0 0 0 0.72956,-0.814156 0.98333179,0.98333179 0 0 0 0.0282,-0.831779 1.1525072,1.1525072 0 0 0 -0.8635,-0.740143 1.3216825,1.3216825 0 0 0 -1.35693,0.637933 1.0961154,1.0961154 0 0 0 0,0.877597 c 0.0211,0.05639 0.0599,0.144504 0.11631,0.260812 0.0564,0.116308 0.0881,0.193847 0.10221,0.229091 a 0.57801582,0.57801582 0 0 1 0,0.412365 0.47228122,0.47228122 0 0 1 -0.28548,0.250239 0.43703635,0.43703635 0 0 1 -0.39122,-0.03524 0.76128913,0.76128913 0 0 1 -0.29606,-0.415889 z"
           id="path1443"
           inkscape:power="50"
           inkscape:feed="50"
           inkscape:engrave="0"
           style="stroke-width:0.352449" />
        <path
           d="M 100.42144,9.6623803 98.394857,10.5576 c -0.394742,0.1727 -0.680225,0.292532 -0.85645,0.352449 a 0.83530335,0.83530335 0 0 1 -0.630883,0.01762 0.70489734,0.70489734 0 0 1 -0.384169,-0.422938 0.53572198,0.53572198 0 0 1 0.09164,-0.5921141 1.85388,1.85388 0 0 1 0.704897,-0.398267 5.2514852,5.2514852 0 0 1 0.592114,-0.1797489 l 2.206324,-0.5921137 a 1.8115862,1.8115862 0 0 1 0.63088,-0.084588 0.35244867,0.35244867 0 0 1 0.32426,0.2572875 0.35244867,0.35244867 0 0 1 -0.0775,0.398267 2.1957552,2.1957552 0 0 1 -0.57449,0.3489242 z m 2.67508,-1.5120048 a 0.72956875,0.72956875 0 0 1 0,0.5251485 0.62735863,0.62735863 0 0 1 -0.40531,0.3700711 0.64850555,0.64850555 0 0 1 -0.52515,-0.021147 0.67670145,0.67670145 0 0 1 -0.35245,-0.391218 0.70489734,0.70489734 0 0 1 0.0212,-0.535722 0.70489734,0.70489734 0 0 1 0.93399,-0.3524487 0.70489734,0.70489734 0 0 1 0.32777,0.405316 z"
           id="path1445"
           inkscape:power="50"
           inkscape:feed="50"
           inkscape:engrave="0"
           style="stroke-width:0.352449" />
      </g>
      <g
         id="g31090"
         inkscape:power="50"
         inkscape:feed="50"
         inkscape:engrave="0">
        <path
           d="m 103.31152,154.41657 a 2.1323145,2.1323145 0 0 1 0.54277,0.68023 1.9102718,1.9102718 0 0 1 0.17975,0.8353 1.9384677,1.9384677 0 0 1 -0.16918,0.80711 1.9137963,1.9137963 0 0 1 -0.46876,0.65203 2.114692,2.114692 0 0 1 -0.70489,0.42294 2.4671407,2.4671407 0 0 1 -0.84588,0.1445 2.4142734,2.4142734 0 0 1 -0.90227,-0.16565 2.114692,2.114692 0 0 1 -0.74014,-0.47228 2.1922307,2.1922307 0 0 1 -0.489905,-0.73662 2.6539385,2.6539385 0 0 1 0.04229,-2.00543 2.0829716,2.0829716 0 0 1 0.627365,-0.78244 2.9077015,2.9077015 0 0 1 1.03972,-0.4899 5.4700034,5.4700034 0 0 1 1.4098,-0.1727 6.1149844,6.1149844 0 0 1 1.56134,0.17975 3.3130175,3.3130175 0 0 1 1.13489,0.52515 2.1746083,2.1746083 0 0 1 0.68022,0.82473 2.4953366,2.4953366 0 0 1 0.22557,1.08906 2.2380491,2.2380491 0 0 1 -0.22909,1.03973 1.7622434,1.7622434 0 0 1 -0.56744,0.67317 1.1595561,1.1595561 0 0 1 -0.65203,0.23262 0.48637916,0.48637916 0 0 1 -0.35245,-0.1445 0.47228122,0.47228122 0 0 1 -0.15508,-0.35245 0.61326069,0.61326069 0 0 1 0.11631,-0.35245 0.70489734,0.70489734 0 0 1 0.35245,-0.24319 0.93398898,0.93398898 0 0 0 0.44408,-0.33483 0.89521962,0.89521962 0 0 0 0.16918,-0.53219 0.99038076,0.99038076 0 0 0 -0.13393,-0.49696 1.1701296,1.1701296 0 0 0 -0.37712,-0.40179 3.6513682,3.6513682 0 0 0 -1.73757,-0.42294 z m -1.4098,0.10574 a 1.7904392,1.7904392 0 0 0 -0.57801,0.0881 1.3498784,1.3498784 0 0 0 -0.45819,0.23967 1.1313602,1.1313602 0 0 0 -0.30663,0.35244 1.0080032,1.0080032 0 0 0 -0.10926,0.46876 0.93046449,0.93046449 0 0 0 0.37712,0.74367 1.5225783,1.5225783 0 0 0 0.99391,0.3031 1.4661865,1.4661865 0 0 0 0.97628,-0.3031 0.96923384,0.96923384 0 0 0 0.35245,-0.77187 1.1031643,1.1031643 0 0 0 -0.15155,-0.54629 1.1489827,1.1489827 0 0 0 -0.43704,-0.42294 1.325207,1.325207 0 0 0 -0.65908,-0.14803 z"
           id="path1447"
           inkscape:power="50"
           inkscape:feed="50"
           inkscape:engrave="0"
           style="stroke-width:0.352449" />
        <path
           d="m 103.40315,151.59698 -2.20985,0.14451 c -0.43351,0.0282 -0.74014,0.0423 -0.92694,0.0423 a 0.84235232,0.84235232 0 0 1 -0.599163,-0.20089 0.70489734,0.70489734 0 0 1 -0.214994,-0.52868 0.528673,0.528673 0 0 1 0.27491,-0.52867 1.8820759,1.8820759 0 0 1 0.793007,-0.13393 6.1290824,6.1290824 0 0 1 0.61679,0.0317 l 2.27329,0.19737 a 1.8574045,1.8574045 0 0 1 0.62384,0.14098 0.35244867,0.35244867 0 0 1 0.21499,0.35245 0.35244867,0.35244867 0 0 1 -0.20794,0.35245 2.0265799,2.0265799 0 0 1 -0.63794,0.1304 z m 3.03459,-0.51457 a 0.70489734,0.70489734 0 0 1 -0.18328,0.49343 0.64498107,0.64498107 0 0 1 -0.51105,0.20794 0.68727491,0.68727491 0 0 1 -0.68727,-0.7049 0.70489734,0.70489734 0 0 1 0.20089,-0.49695 0.65203004,0.65203004 0 0 1 0.48638,-0.20442 0.63793209,0.63793209 0 0 1 0.50753,0.20795 0.70489734,0.70489734 0 0 1 0.1868,0.4899 z"
           id="path1449"
           inkscape:power="50"
           inkscape:feed="50"
           inkscape:engrave="0"
           style="stroke-width:0.352449" />
        <path
           d="m 105.92669,143.76557 -1.34283,0.91285 1.34283,0.93751 a 2.2979653,2.2979653 0 0 1 0.39826,0.35245 0.53219749,0.53219749 0 0 1 0.11984,0.35245 0.58506479,0.58506479 0 0 1 -0.14803,0.40531 0.44760981,0.44760981 0 0 1 -0.35245,0.16918 1.1525072,1.1525072 0 0 1 -0.56744,-0.25729 l -1.63184,-1.13841 -1.36045,1.00801 a 1.0150522,1.0150522 0 0 1 -0.58507,0.26433 0.44056084,0.44056084 0 0 1 -0.35245,-0.1586 0.57801582,0.57801582 0 0 1 -0.14098,-0.40884 0.53219749,0.53219749 0 0 1 0.12336,-0.35245 2.1499369,2.1499369 0 0 1 0.39122,-0.35245 l 1.11726,-0.81768 -1.11726,-0.79301 a 2.0900206,2.0900206 0 0 1 -0.39474,-0.35245 0.53219749,0.53219749 0 0 1 -0.11984,-0.35245 0.60621171,0.60621171 0 0 1 0.14098,-0.41588 0.4229384,0.4229384 0 0 1 0.35245,-0.16213 0.58506479,0.58506479 0 0 1 0.27491,0.067 2.4142734,2.4142734 0 0 1 0.31016,0.20442 l 1.36045,1.01153 1.63184,-1.14193 a 1.2124234,1.2124234 0 0 1 0.57801,-0.26434 0.42646289,0.42646289 0 0 1 0.35245,0.16565 0.60268723,0.60268723 0 0 1 0.14098,0.40884 0.54277095,0.54277095 0 0 1 -0.12336,0.35245 2.0653492,2.0653492 0 0 1 -0.39826,0.35597 z"
           id="path1451"
           inkscape:power="50"
           inkscape:feed="50"
           inkscape:engrave="0"
           style="stroke-width:0.352449" />
        <path
           d="m 99.631952,138.39073 v -3.07335 a 1.1560316,1.1560316 0 0 1 0.155078,-0.63793 0.528673,0.528673 0 0 1 0.45818,-0.19737 0.96570936,0.96570936 0 0 1 0.51105,0.23261 c 0.215,0.15508 0.44761,0.3313 0.7049,0.5322 a 7.6093668,7.6093668 0 0 0 0.95866,0.61326 8.0640256,8.0640256 0 0 0 1.4098,0.57802 5.3149259,5.3149259 0 0 0 0.60621,0.15507 c 0.1586,0.0317 0.35245,0.067 0.62031,0.10221 0.26786,0.0353 0.45113,0.0705 0.58859,0.0987 a 1.3146335,1.3146335 0 0 1 0.65203,0.27491 0.63088312,0.63088312 0 0 1 0.17975,0.47228 0.56744236,0.56744236 0 0 1 -0.19385,0.45114 0.86349924,0.86349924 0 0 1 -0.57802,0.16917 3.4821929,3.4821929 0 0 1 -0.80358,-0.12336 9.3751346,9.3751346 0 0 1 -1.21595,-0.40531 11.609659,11.609659 0 0 1 -1.45209,-0.7049 11.310078,11.310078 0 0 1 -1.48381,-1.00095 v 2.46714 a 0.96570936,0.96570936 0 0 1 -0.14097,0.57801 0.51457506,0.51457506 0 0 1 -0.44057,0.19385 0.40884046,0.40884046 0 0 1 -0.412361,-0.20442 1.4309416,1.4309416 0 0 1 -0.123357,-0.57097 z"
           id="path1453"
           inkscape:power="50"
           inkscape:feed="50"
           inkscape:engrave="0"
           style="stroke-width:0.352449" />
        <path
           d="m 103.40315,133.18154 -2.20985,0.14803 c -0.43351,0.0282 -0.74014,0.0423 -0.92694,0.0423 a 0.84235232,0.84235232 0 0 1 -0.599163,-0.20089 0.70489734,0.70489734 0 0 1 -0.214994,-0.52868 0.528673,0.528673 0 0 1 0.27491,-0.52867 1.8256841,1.8256841 0 0 1 0.793007,-0.13393 6.1290824,6.1290824 0 0 1 0.61679,0.0317 l 2.27329,0.19737 a 1.7833903,1.7833903 0 0 1 0.62384,0.13746 0.35244867,0.35244867 0 0 1 0.21499,0.35245 0.35244867,0.35244867 0 0 1 -0.20794,0.35245 2.1499369,2.1499369 0 0 1 -0.63794,0.1304 z m 3.03459,-0.51105 a 0.70489734,0.70489734 0 0 1 -0.18328,0.4899 0.63793209,0.63793209 0 0 1 -0.51105,0.21147 0.68727491,0.68727491 0 0 1 -0.68727,-0.70489 0.70489734,0.70489734 0 0 1 0.20089,-0.49696 0.65203004,0.65203004 0 0 1 0.48638,-0.20442 0.63793209,0.63793209 0 0 1 0.50753,0.20442 0.70489734,0.70489734 0 0 1 0.1868,0.50048 z"
           id="path1455"
           inkscape:power="50"
           inkscape:feed="50"
           inkscape:engrave="0"
           style="stroke-width:0.352449" />
      </g>
      <g
         id="g31098"
         inkscape:power="50"
         inkscape:feed="50"
         inkscape:engrave="0">
        <path
           d="m 101.32723,197.1827 -4.053159,-1.08555 q 0.567442,1.36398 0.458183,1.76225 a 0.46170776,0.46170776 0 0 1 -0.236141,0.29253 0.49695262,0.49695262 0 0 1 -0.384169,0.0529 0.40531597,0.40531597 0 0 1 -0.296057,-0.23262 3.0275341,3.0275341 0 0 1 -0.140979,-0.57802 3.8557884,3.8557884 0 0 0 -0.30663,-1.00447 3.7112845,3.7112845 0 0 0 -0.458184,-0.73662 c -0.186797,-0.22909 -0.303106,-0.37712 -0.352448,-0.44056 a 0.40179148,0.40179148 0 0 1 0,-0.30663 0.4758057,0.4758057 0 0 1 0.285483,-0.3313 0.84235232,0.84235232 0 0 1 0.539247,0 l 5.103454,1.3675 c 0.59564,0.1586 0.84235,0.44408 0.7331,0.8494 a 0.58506479,0.58506479 0 0 1 -0.29959,0.38769 0.81063194,0.81063194 0 0 1 -0.59211,0.004 z"
           id="path1457"
           inkscape:power="50"
           inkscape:feed="50"
           inkscape:engrave="0"
           style="stroke-width:0.352449" />
        <path
           d="m 98.401906,188.81909 -0.567442,2.11469 1.37455,0.64146 a 2.5940222,2.5940222 0 0 1 -0.02467,-1.25824 2.0371533,2.0371533 0 0 1 0.373596,-0.75777 2.1499369,2.1499369 0 0 1 0.62031,-0.53572 2.1887062,2.1887062 0 0 1 1.66356,-0.19737 2.512959,2.512959 0 0 1 1.09964,0.60621 2.2098532,2.2098532 0 0 1 0.61678,1.05734 2.5623018,2.5623018 0 0 1 -0.0247,1.34283 2.5904977,2.5904977 0 0 1 -0.64146,1.21243 1.8715024,1.8715024 0 0 1 -0.8635,0.52515 1.5084803,1.5084803 0 0 1 -0.72252,0.0282 0.53572198,0.53572198 0 0 1 -0.35245,-0.63793 0.61326069,0.61326069 0 0 1 0.58155,-0.44056 1.5824945,1.5824945 0 0 0 0.74719,-0.3172 1.1560316,1.1560316 0 0 0 0.40179,-0.61679 1.057346,1.057346 0 0 0 -0.0176,-0.64851 1.2229969,1.2229969 0 0 0 -0.38417,-0.53219 1.8362576,1.8362576 0 0 0 -0.66966,-0.3313 1.723474,1.723474 0 0 0 -0.77186,-0.0423 1.057346,1.057346 0 0 0 -0.56039,0.28549 1.0996399,1.0996399 0 0 0 -0.299582,0.52514 1.2088989,1.2088989 0 0 0 -0.05639,0.57097 c 0.03524,0.12688 0.102202,0.31368 0.200892,0.56392 a 0.95866038,0.95866038 0 0 1 0.0987,0.57097 0.56039339,0.56039339 0 0 1 -0.264337,0.35244 0.49342814,0.49342814 0 0 1 -0.401792,0.074 c 0,0 -0.112784,-0.0458 -0.289008,-0.13041 l -2.037153,-0.94456 a 1.057346,1.057346 0 0 1 -0.493428,-0.38064 0.77186259,0.77186259 0 0 1 -0.02467,-0.59917 l 0.630883,-2.35435 c 0.123357,-0.46171 0.352449,-0.64851 0.704898,-0.55335 a 0.48285468,0.48285468 0 0 1 0.327777,0.27139 0.78243605,0.78243605 0 0 1 0.02467,0.53572 z"
           id="path1459"
           inkscape:power="50"
           inkscape:feed="50"
           inkscape:engrave="0"
           style="stroke-width:0.352449" />
        <path
           d="m 101.59862,187.28946 -2.164039,-0.42999 c -0.422938,-0.0846 -0.726044,-0.15155 -0.905793,-0.20089 a 0.82472989,0.82472989 0 0 1 -0.525149,-0.35245 0.70489734,0.70489734 0 0 1 -0.07049,-0.56744 0.528673,0.528673 0 0 1 0.401791,-0.44056 1.8750269,1.8750269 0 0 1 0.800059,0.074 c 0.193846,0.0529 0.391218,0.11631 0.588589,0.19032 l 2.142892,0.78244 a 1.7798658,1.7798658 0 0 1 0.56744,0.29253 0.3700711,0.3700711 0 0 1 0.11983,0.39827 0.35244867,0.35244867 0 0 1 -0.29253,0.27843 2.2028042,2.2028042 0 0 1 -0.6626,-0.0247 z m 3.0663,0.28901 a 0.72956875,0.72956875 0 0 1 -0.30311,0.42999 0.64498107,0.64498107 0 0 1 -0.54629,0.0705 0.68727491,0.68727491 0 0 1 -0.48638,-0.84588 0.67317696,0.67317696 0 0 1 0.32425,-0.42646 0.70489734,0.70489734 0 0 1 0.95866,0.25728 0.70489734,0.70489734 0 0 1 0.0529,0.51458 z"
           id="path1461"
           inkscape:power="50"
           inkscape:feed="50"
           inkscape:engrave="0"
           style="stroke-width:0.352449" />
        <path
           d="m 104.34067,181.03702 -0.37712,1.4098 a 0.73661772,0.73661772 0 0 1 -0.27844,0.44761 0.51809954,0.51809954 0 0 1 -0.43351,0.067 0.53924647,0.53924647 0 0 1 -0.35245,-0.26786 0.74719118,0.74719118 0 0 1 -0.0176,-0.5322 l 0.37712,-1.40979 a 0.74366669,0.74366669 0 0 1 0.28196,-0.45114 0.528673,0.528673 0 0 1 0.43351,-0.0599 0.51457506,0.51457506 0 0 1 0.35245,0.26433 0.73309323,0.73309323 0 0 1 0.0141,0.5322 z"
           id="path1463"
           inkscape:power="50"
           inkscape:feed="50"
           inkscape:engrave="0"
           style="stroke-width:0.352449" />
        <path
           d="m 102.29294,176.51863 a 1.6318373,1.6318373 0 0 1 -0.77539,-0.46876 1.7622434,1.7622434 0 0 1 -0.43703,-0.88112 2.4671407,2.4671407 0 0 1 0.0564,-1.15955 2.9958137,2.9958137 0 0 1 0.38769,-0.89522 1.998384,1.998384 0 0 1 0.5604,-0.56745 1.6494598,1.6494598 0 0 1 0.65555,-0.25024 1.7340475,1.7340475 0 0 1 0.68375,0.0458 1.448564,1.448564 0 0 1 0.7049,0.43351 1.7269985,1.7269985 0 0 1 0.38064,0.82121 1.9384677,1.9384677 0 0 1 0.55335,-0.52515 1.6388863,1.6388863 0 0 1 0.65555,-0.22909 1.9384677,1.9384677 0 0 1 0.72957,0.0599 2.0195309,2.0195309 0 0 1 0.94456,0.54629 1.9173208,1.9173208 0 0 1 0.504,0.98686 2.9077015,2.9077015 0 0 1 -0.074,1.31111 2.9535199,2.9535199 0 0 1 -0.59916,1.1948 1.9032228,1.9032228 0 0 1 -0.92342,0.60269 2.0265799,2.0265799 0 0 1 -1.08554,0 1.6988026,1.6988026 0 0 1 -1.33931,-1.57193 1.462662,1.462662 0 0 1 -1.58249,0.5463 z m 3.80645,-2.4037 a 1.2617662,1.2617662 0 0 0 -0.64499,-0.0211 1.0221011,1.0221011 0 0 0 -0.504,0.29606 1.2476683,1.2476683 0 0 0 -0.29253,0.54277 1.057346,1.057346 0 0 0 0.0987,0.84235 1.1771786,1.1771786 0 0 0 0.76481,0.53572 1.325207,1.325207 0 0 0 0.65203,0.0176 1.0784929,1.0784929 0 0 0 0.51457,-0.28549 1.1137378,1.1137378 0 0 0 0.29606,-0.5181 1.1525072,1.1525072 0 0 0 0,-0.59916 1.1102133,1.1102133 0 0 0 -0.31015,-0.504 1.3780743,1.3780743 0 0 0 -0.57449,-0.30663 z m -4.10251,0.0952 a 0.94103795,0.94103795 0 0 0 0.0775,0.74367 0.96218487,0.96218487 0 0 0 0.60269,0.43703 0.87054821,0.87054821 0 0 0 0.7049,-0.0952 0.97628282,0.97628282 0 0 0 0.43351,-0.60973 1.057346,1.057346 0 0 0 0.0352,-0.39827 0.94103795,0.94103795 0 0 0 -0.10573,-0.35245 0.86349924,0.86349924 0 0 0 -0.22909,-0.26434 0.99038076,0.99038076 0 0 0 -0.35245,-0.16212 0.9798073,0.9798073 0 0 0 -0.504,0 0.84940129,0.84940129 0 0 0 -0.41942,0.24319 1.0150522,1.0150522 0 0 0 -0.24319,0.45818 z"
           id="path1465"
           inkscape:power="50"
           inkscape:feed="50"
           inkscape:engrave="0"
           style="stroke-width:0.352449" />
        <path
           d="m 105.90554,171.22485 -2.17461,-0.42999 c -0.42294,-0.0846 -0.72252,-0.15155 -0.90579,-0.19737 a 0.84235232,0.84235232 0 0 1 -0.52515,-0.35245 0.70489734,0.70489734 0 0 1 -0.0705,-0.56744 0.53924647,0.53924647 0 0 1 0.40179,-0.44056 1.8292086,1.8292086 0 0 1 0.80006,0.0775 4.758057,4.758057 0 0 1 0.58859,0.19032 l 2.14641,0.77186 a 1.7939637,1.7939637 0 0 1 0.56392,0.29606 0.35244867,0.35244867 0 0 1 0.10573,0.40884 0.35244867,0.35244867 0 0 1 -0.29253,0.27844 1.9631391,1.9631391 0 0 1 -0.63793,-0.0352 z m 3.06278,0.29253 a 0.70489734,0.70489734 0 0 1 -0.30311,0.42647 0.64145658,0.64145658 0 0 1 -0.54629,0.0705 0.6626035,0.6626035 0 0 1 -0.41942,-0.32073 0.68022593,0.68022593 0 0 1 -0.067,-0.52515 0.70489734,0.70489734 0 0 1 0.32425,-0.42646 0.70489734,0.70489734 0 0 1 0.95866,0.25728 0.70489734,0.70489734 0 0 1 0.0529,0.5181 z"
           id="path1467"
           inkscape:power="50"
           inkscape:feed="50"
           inkscape:engrave="0"
           style="stroke-width:0.352449" />
      </g>
      <g
         id="g30140"
         inkscape:power="50"
         inkscape:feed="50"
         inkscape:engrave="0">
        <path
           d="m 97.351609,75.542086 0.24319,0.08811 a 3.6689907,3.6689907 0 0 1 -0.599163,-1.519054 3.2213808,3.2213808 0 0 1 0.197371,-1.550774 3.05573,3.05573 0 0 1 0.852926,-1.282913 2.3191122,2.3191122 0 0 1 1.307585,-0.574492 2.4671407,2.4671407 0 0 1 0.881122,0.03172 8.7231046,8.7231046 0 0 1 1.09964,0.352449 l 3.70776,1.349878 a 1.4097947,1.4097947 0 0 1 0.80358,0.602687 0.96570936,0.96570936 0 0 1 0.0494,0.821206 0.98333179,0.98333179 0 0 1 -0.57802,0.609736 1.4097947,1.4097947 0 0 1 -0.99743,-0.04934 L 100.99945,73.2124 a 3.5244867,3.5244867 0 0 0 -1.603638,-0.27491 c -0.41589,0.05639 -0.72252,0.352449 -0.919891,0.902269 a 1.7058516,1.7058516 0 0 0 -0.03525,1.085542 1.9490411,1.9490411 0 0 0 0.637932,0.95866 6.6542309,6.6542309 0 0 0 1.610687,0.750716 l 2.49533,0.909317 a 1.3675008,1.3675008 0 0 1 0.80359,0.609736 0.99742974,0.99742974 0 0 1 0.0388,0.835304 0.94808692,0.94808692 0 0 1 -0.57097,0.595638 1.4097947,1.4097947 0 0 1 -0.99743,-0.04934 L 96.703129,77.42064 a 1.332256,1.332256 0 0 1 -0.761289,-0.556869 0.90579308,0.90579308 0 0 1 -0.03172,-0.778911 0.96218487,0.96218487 0 0 1 0.296057,-0.429988 0.93046449,0.93046449 0 0 1 0.493428,-0.20442 1.4097947,1.4097947 0 0 1 0.65203,0.09164 z"
           id="path1469"
           inkscape:power="50"
           inkscape:feed="50"
           inkscape:engrave="0"
           style="stroke-width:0.352449" />
        <path
           d="m 102.39867,68.464916 -3.57735,-1.036199 c -0.704897,-0.20442 -1.194801,-0.352448 -1.490858,-0.468756 a 1.4097947,1.4097947 0 0 1 -0.828254,-0.662604 1.1454582,1.1454582 0 0 1 -0.03524,-0.95866 0.89521962,0.89521962 0 0 1 0.736618,-0.680226 3.1403176,3.1403176 0 0 1 1.328731,0.243189 9.7804506,9.7804506 0 0 1 0.958661,0.408841 l 3.482202,1.621264 a 3.0204851,3.0204851 0 0 1 0.90579,0.578016 0.6097362,0.6097362 0 0 1 0.14098,0.680225 0.59211377,0.59211377 0 0 1 -0.5322,0.426463 3.4716194,3.4716194 0 0 1 -1.08908,-0.151553 z m 5.09641,0.937514 a 1.2265214,1.2265214 0 0 1 -0.57096,0.673177 1.057346,1.057346 0 0 1 -0.92694,0.03877 1.1102133,1.1102133 0 0 1 -0.65556,-0.599163 1.1348847,1.1348847 0 0 1 -0.0352,-0.891695 1.1630806,1.1630806 0 0 1 0.60268,-0.669652 1.1137378,1.1137378 0 0 1 0.88817,-0.04229 1.0855419,1.0855419 0 0 1 0.68375,0.62031 1.180703,1.180703 0 0 1 0.0141,0.870548 z"
           id="path1471"
           inkscape:power="50"
           inkscape:feed="50"
           inkscape:engrave="0"
           style="stroke-width:0.352449" />
      </g>
    </g>
  </g>
  <g
     inkscape:groupmode="layer"
     id="layer3"
     inkscape:power="50"
     inkscape:feed="50"
     inkscape:engrave="1"
     inkscape:label="PREENCHIMENTO"
     inkscape:highlight-color="#818181" />
</svg>
